<?xml version="1.0" encoding="utf-8"?>
<svg version="1.1" xmlns="http://www.w3.org/2000/svg" xmlns:xlink="http://www.w3.org/1999/xlink" x="0px" y="0px"
	 viewBox="0 0 1746 545.2" style="enable-background:new 0 0 1746 545.2;" xml:space="preserve">
<style type="text/css">
	.st0{fill:#FDEFAE;}
	.st1{fill:url(#SVGID_1_);}
	.st2{fill:#FFFFFF;}
	.st3{fill:#857B7B;}
	.st4{fill:#FCB567;}
	.st5{fill:#333333;}
	.st6{fill:#F496B7;}
	.st7{fill:#676767;}
	.st8{fill:#444545;}
	.st9{fill:#555555;}
	.st10{fill:#FFE5CA;}
	.st11{fill:#FAC9D8;}
	.st12{fill:#E88F45;}
	.st13{fill:#F89747;}
	.st14{fill:#010101;}
	.st15{fill:#D27631;}
	.st16{fill:#FFD838;}
	.st17{fill:#EEEEEE;}
	.st18{fill:#3D9645;}
	.st19{fill:url(#SVGID_00000070825696746993660360000008022096465740451511_);}
</style>
<g>
	<linearGradient id="SVGID_1_" gradientUnits="userSpaceOnUse" x1="0" y1="272.6168" x2="1745.9678" y2="272.6168">
		<stop  offset="7.343490e-02" style="stop-color:#FAF6BE"/>
		<stop  offset="0.3243" style="stop-color:#FFEFBC"/>
		<stop  offset="0.8519" style="stop-color:#FEDCB9"/>
	</linearGradient>
	<path class="st1" d="M1745.9,268.6C1743.9,119.2,1619.8-1.6,1470.3,0c-114.9,1.3-212.7,73.7-251.5,175.2
		c-4.9,19.7-24,34.2-45.2,34.2c-21.2,0-40.2-14.5-45.1-34.2C1089.3,72.8,990.1,0,873.8,0c-0.3,0-0.6,0-0.9,0c-0.3,0-0.6,0-0.9,0
		C755.9,0,656.7,72.8,617.5,175.2c-4.9,19.7-24,34.2-45.1,34.2c-21.2,0-40.3-14.5-45.2-34.2C488.3,73.7,390.5,1.3,275.6,0
		C126.1-1.6,2.1,119.2,0,268.6c0,1.3,0,2.6,0,4c0,1.3,0,2.6,0,4c2.1,149.5,126.1,270.3,275.6,268.6
		c114.9-1.3,212.7-73.7,251.5-175.2c4.9-19.7,24-34.2,45.2-34.2c21.2,0,40.2,14.5,45.1,34.2c39.2,102.5,138.4,175.2,254.6,175.2
		c0.3,0,0.6,0,0.9,0c0.3,0,0.6,0,0.9,0c116.2,0,215.4-72.8,254.6-175.2c4.9-19.7,24-34.2,45.1-34.2c21.2,0,40.3,14.5,45.2,34.2
		c38.8,101.5,136.7,173.9,251.5,175.2c149.5,1.7,273.5-119.2,275.6-268.6c0-1.3,0-2.6,0-4C1746,271.3,1746,270,1745.9,268.6z"/>
	<g>
		<g>
			<path class="st2" d="M269.6,380.1c0,0-0.1,0-0.1,0c-75.2,0-128-27.3-136.2-86.5c-4.5-32.5,6.8-109.7,43.9-151.7
				c1.3-1.5,5.7-1.9,9,1.2c14.9,14.1,27.1,49,30.4,59.1c0,0,0.5,1.4,0.9,2.8c0.7,0,1.4,0,1.4,0s32.1-6.7,50.4-6.7S320,205,320,205
				s0.7,0,1.4,0c0.5-1.4,0.9-2.8,0.9-2.8c3.3-10.1,15.5-45.1,30.4-59.1c3.3-3.1,7.7-2.7,9-1.2c37.2,42.1,48.5,119.2,43.9,151.7
				C397.4,352.8,344.7,380.1,269.6,380.1z"/>
			<path class="st3" d="M137.4,231c6.4-31.4,19.1-65.7,39.7-89.1c1.3-1.5,5.7-1.9,9,1.2c14.9,14.1,27.1,49,30.4,59.1
				c0,0,0.5,1.4,0.9,2.8c0.7,0,1.4,0,1.4,0s23.8-4.9,42.2-6.3c-9.1,49.3-49.4,86.4-97.8,86.4c-10.8,0-21.2-1.9-31-5.3
				C132.2,266.3,133.8,249.1,137.4,231z"/>
			<path class="st4" d="M399.6,231c-6.4-31.4-19.1-65.7-39.7-89.1c-1.3-1.5-5.7-1.9-9,1.2c-14.9,14.1-27.1,49-30.4,59.1
				c0,0-0.5,1.4-0.9,2.8c-0.7,0-1.4,0-1.4,0s-36.7-5.1-55.1-6.4c4.9,26.8,22.2,48.3,58.7,46.3c12.2,32.9,29.9,40.3,52,40.3
				c10.8,0,21.2-1.9,31-5.3C404.9,266.3,403.3,249.1,399.6,231z"/>
			<g>
				<g>
					<path class="st5" d="M228.3,284.1c0.9-0.6,1.6-1.5,2.1-2.5c0.9-1.8,1.2-3.8,1.2-5.8c0-2.8-0.4-5.8-2.3-7.9
						c-1.5-1.7-4.3-2.5-6.3-1.5c-2.2,0.2-2.8,2.3-3.3,4.1c-0.7,3-1.3,6.2-0.5,9.2c0.8,3,3.6,5.7,6.7,5.3
						C226.7,285,227.6,284.6,228.3,284.1z"/>
				</g>
				<g>
					<path class="st5" d="M316.9,284.1c0.9-0.6,1.6-1.5,2.1-2.5c0.9-1.8,1.2-3.8,1.2-5.8c0-2.8-0.4-5.8-2.3-7.9
						c-1.5-1.7-4.3-2.5-6.3-1.5c-2.2,0.2-2.8,2.3-3.3,4.1c-0.7,3-1.3,6.2-0.5,9.2c0.8,3,3.6,5.7,6.7,5.3
						C315.3,285,316.2,284.6,316.9,284.1z"/>
				</g>
			</g>
			<g>
				<path class="st6" d="M267.5,297.1c-0.1,0-0.3,0-0.4-0.1c-1.4-0.2-3-0.6-3.7-1.9c-0.4-0.7-0.4-1.6-0.3-2.5
					c0.1-0.6,0.2-1.2,0.5-1.7c0.7-1.2,2.3-1.6,3.7-1.6c1.2-0.1,2.3,0,3.4,0.3c0,0,2.8,0.6,4.2,0.9c0.1,0,0.1,0.1,0.2,0.1
					c0.3,0.3,0.5,0.7,0.7,1.1c0.6,2.1-0.6,4.6-2.7,5.3c-0.7,0.2-1.5,0.3-2.3,0.3C269.7,297.3,268.6,297.2,267.5,297.1z"/>
			</g>
			<path class="st7" d="M269.6,383.4L269.6,383.4h-0.1c-82,0-131.5-31.7-139.5-89.4c-4.5-32.2,6.6-111.3,44.8-154.4
				c1.2-1.3,3.1-2.2,5.4-2.3c3-0.1,6.1,1,8.4,3.2c15.4,14.6,27.9,50,31.3,60.5l0.1,0.2c6.9-1.4,33.1-6.4,49.5-6.4
				c16.3,0,42.8,5,49.7,6.4l0.1-0.2c3.4-10.5,15.9-46,31.3-60.5c2.3-2.2,5.4-3.4,8.4-3.2c2.2,0.1,4.2,0.9,5.4,2.3
				c38.1,43.1,49.2,122.2,44.8,154.4C401,351.7,351.5,383.4,269.6,383.4z M179.6,144.2c-36.7,41.6-47.3,117.9-43,148.9
				c7.5,53.9,54.7,83.6,132.9,83.6l0.1,3.3l0-3.3c78.1,0,125.3-29.7,132.8-83.6c4.3-31-6.4-107.3-43-148.9c-0.5-0.2-2.6-0.4-4.3,1.3
				c-14.3,13.5-26.2,47.6-29.5,57.7l-0.9,2.8c-0.4,1.4-1.7,2.3-3.2,2.3H320c-0.2,0-0.5,0-0.7-0.1c-0.3-0.1-32.2-6.6-50-6.6
				c-17.8,0-49.4,6.5-49.7,6.6c-0.2,0-0.5,0.1-0.7,0.1h-1.4c-1.4,0-2.7-0.9-3.2-2.3l-0.9-2.8c-3.3-10.1-15.3-44.3-29.5-57.7
				C182.1,143.8,180.1,144,179.6,144.2z"/>
		</g>
		<g>
			<g>
				<path class="st8" d="M269.3,166.3c66.1,0,119.7,36.4,119.7,81.4h-17.2c0-38.5-45.9-69.7-102.5-69.7s-102.5,31.2-102.5,69.7
					h-17.2C149.6,202.7,203.2,166.3,269.3,166.3"/>
				<path class="st5" d="M391,249.6h-21.2v-2c0-37.3-45.1-67.7-100.5-67.7c-55.4,0-100.5,30.4-100.5,67.7v2h-21.2v-2
					c0-46,54.6-83.4,121.7-83.4c67.1,0,121.7,37.4,121.7,83.4V249.6z M373.8,245.6h13.2c-1.6-42.8-53.8-77.4-117.7-77.4
					s-116.1,34.5-117.7,77.4h13.2c1.6-38.6,47.8-69.7,104.5-69.7C325.9,175.9,372.2,207,373.8,245.6z"/>
			</g>
			<g>
				<path class="st8" d="M243.8,342.8c-55.2-2.3-98.7-31-98.7-66h8.8c0,33.5,43.6,60.7,97.3,60.7v5.5
					C248.7,343,246.2,343,243.8,342.8z"/>
				<path class="st5" d="M253.2,345h-2c-2.5,0-5-0.1-7.4-0.2l0,0c-56.4-2.4-100.7-32.3-100.7-68v-2h12.8v2
					c0,32.3,42.7,58.7,95.3,58.7h2V345z M147.1,278.9c1.7,32.7,43.6,59.7,96.8,62l0,0c1.7,0.1,3.5,0.1,5.2,0.1v-1.5
					c-52.8-0.7-95.6-27.4-97.2-60.6H147.1z"/>
			</g>
			<g>
				
					<ellipse transform="matrix(0.2665 -0.9638 0.9638 0.2665 -109.5071 329.2747)" class="st8" cx="161.6" cy="236.6" rx="57.7" ry="39.9"/>
				<path class="st5" d="M153.8,295.3c-2.7,0-5.5-0.4-8.1-1.1c-10.9-3-19.5-11.9-24.1-25.1c-4.5-12.9-4.6-28.4-0.4-43.6
					c4.2-15.3,12.3-28.5,22.8-37.2c10.7-8.9,22.6-12.2,33.5-9.2c10.9,3,19.5,11.9,24.1,25.1c4.5,12.9,4.6,28.4,0.4,43.6
					c-4.2,15.3-12.3,28.5-22.8,37.2C171.1,291.7,162.3,295.3,153.8,295.3z M169.4,181.9c-7.6,0-15.5,3.2-22.8,9.3
					c-9.9,8.2-17.5,20.7-21.5,35.2c-4,14.5-3.9,29.1,0.3,41.3c4.1,11.9,11.7,19.9,21.3,22.5c9.6,2.7,20.2-0.3,29.9-8.4
					c9.9-8.2,17.5-20.7,21.5-35.2c4-14.5,3.9-29.1-0.3-41.3c-4.1-11.9-11.7-19.9-21.3-22.5C174.1,182.3,171.8,181.9,169.4,181.9z"/>
			</g>
			<g>
				
					<ellipse transform="matrix(0.2665 -0.9638 0.9638 0.2665 -113.6677 318.8803)" class="st9" cx="152.7" cy="234.1" rx="49" ry="30.7"/>
				<path class="st5" d="M144.9,284.1c-2,0-3.9-0.3-5.8-0.8c-17.4-4.8-25.4-30.8-17.9-57.9c3.6-13,10.1-24.3,18.5-32
					c8.6-7.9,18-10.9,26.6-8.5c17.4,4.8,25.4,30.8,17.9,57.9c-3.6,13-10.1,24.3-18.5,32C159,280.9,151.8,284.1,144.9,284.1z
					 M160.5,188.2c-5.9,0-12.2,2.8-18.1,8.2c-7.8,7.1-13.9,17.8-17.3,30.1c-6.9,25-0.1,48.8,15.1,53c7.2,2,15.3-0.7,22.8-7.6
					c7.8-7.1,13.9-17.8,17.3-30.1l0,0c6.9-25,0.1-48.8-15.1-53C163.7,188.4,162.1,188.2,160.5,188.2z"/>
			</g>
			<g>
				
					<ellipse transform="matrix(0.9638 -0.2665 0.2665 0.9638 -49.4048 109.1229)" class="st8" cx="377.3" cy="236.6" rx="39.9" ry="57.7"/>
				<path class="st5" d="M385.1,295.3c-8.5,0-17.3-3.5-25.4-10.3c-10.5-8.8-18.6-22-22.8-37.2c-4.2-15.2-4.1-30.8,0.4-43.6
					c4.6-13.2,13.1-22.1,24.1-25.1c10.9-3,22.8,0.2,33.5,9.2c10.5,8.8,18.6,22,22.8,37.2c4.2,15.2,4.1,30.8-0.4,43.6
					c-4.6,13.2-13.1,22.1-24.1,25.1C390.6,294.9,387.9,295.3,385.1,295.3z M369.5,181.9c-2.4,0-4.7,0.3-7,0.9
					c-9.6,2.7-17.2,10.7-21.3,22.5c-4.2,12.1-4.3,26.8-0.3,41.3c4,14.5,11.6,27,21.5,35.2c9.7,8.1,20.3,11,29.9,8.4
					c9.6-2.7,17.2-10.7,21.3-22.5c4.2-12.1,4.3-26.8,0.3-41.3c-4-14.5-11.6-27-21.5-35.2C385,185.1,377.1,181.9,369.5,181.9z"/>
			</g>
			<g>
				
					<ellipse transform="matrix(0.9638 -0.2665 0.2665 0.9638 -48.426 111.4083)" class="st9" cx="386.3" cy="234.1" rx="30.7" ry="49"/>
				<path class="st5" d="M394,284.1c-6.9,0-14.1-3.2-20.8-9.3c-8.3-7.6-14.9-19-18.5-32c-7.5-27.1,0.5-53.1,17.9-57.9
					c8.6-2.4,18,0.7,26.6,8.5c8.3,7.6,14.9,19,18.5,32c7.5,27.1-0.5,53.1-17.9,57.9C397.9,283.8,396,284.1,394,284.1z M378.5,188.2
					c-1.6,0-3.2,0.2-4.7,0.6c-15.2,4.2-22,28-15.1,53l0,0c3.4,12.3,9.5,22.9,17.3,30.1c7.5,6.9,15.6,9.6,22.8,7.6
					c15.2-4.2,22-28,15.1-53c-3.4-12.3-9.5-22.9-17.3-30.1C390.6,191,384.4,188.2,378.5,188.2z"/>
			</g>
			<g>
				<circle class="st8" cx="257.1" cy="338.8" r="12.1"/>
				<path class="st5" d="M257.1,352.9c-7.8,0-14.1-6.3-14.1-14.1c0-7.8,6.3-14.1,14.1-14.1c7.8,0,14.1,6.3,14.1,14.1
					C271.3,346.6,264.9,352.9,257.1,352.9z M257.1,328.7c-5.6,0-10.1,4.5-10.1,10.1c0,5.6,4.5,10.1,10.1,10.1
					c5.6,0,10.1-4.5,10.1-10.1C267.3,333.2,262.7,328.7,257.1,328.7z"/>
			</g>
		</g>
	</g>
	<g>
		<g>
			<path class="st10" d="M829.7,322.1C829.7,322.1,829.7,322.1,829.7,322.1c-56.3,0-95.7-20.4-101.8-64.6
				c-3.4-24.3,5.1-81.9,32.8-113.3c1-1.1,4.3-1.4,6.7,0.9c11.1,10.5,20.3,36.6,22.7,44.2c0,0,0.3,1,0.7,2.1c0.5,0,1,0,1,0
				s23.9-5,37.7-5c13.7,0,37.8,5,37.8,5s0.5,0,1,0c0.3-1,0.7-2.1,0.7-2.1c2.5-7.6,11.6-33.7,22.7-44.2c2.4-2.3,5.8-2,6.7-0.9
				c27.8,31.4,36.2,89,32.8,113.3C925.2,301.7,885.9,322.1,829.7,322.1z"/>
			<path class="st4" d="M835.9,186.6V216c0,3.5-2.8,6.3-6.3,6.3l0,0c-3.5,0-6.3-2.8-6.3-6.3v-29.3"/>
			<path class="st4" d="M816.1,187.3V216c0,3.5-2.8,6.3-6.3,6.3l0,0c-3.5,0-6.3-2.8-6.3-6.3v-26.8"/>
			<path class="st4" d="M843.2,187.3V216c0,3.5,2.8,6.3,6.3,6.3h0c3.5,0,6.3-2.8,6.3-6.3v-26.8"/>
			<g>
				<g>
					<path class="st5" d="M798.9,250.4c0.6-0.5,1.2-1.1,1.5-1.8c0.7-1.3,0.9-2.8,0.9-4.3c0-2.1-0.3-4.3-1.7-5.9
						c-1.2-1.3-3.2-1.9-4.7-1.1c-1.7,0.1-2.1,1.7-2.4,3.1c-0.5,2.3-1,4.6-0.4,6.9c0.6,2.2,2.7,4.3,5,4
						C797.7,251.1,798.3,250.8,798.9,250.4z"/>
				</g>
				<g>
					<path class="st5" d="M865.1,250.4c0.6-0.5,1.2-1.1,1.5-1.8c0.7-1.3,0.9-2.8,0.9-4.3c0-2.1-0.3-4.3-1.7-5.9
						c-1.2-1.3-3.2-1.9-4.7-1.1c-1.7,0.1-2.1,1.7-2.4,3.1c-0.5,2.3-1,4.6-0.4,6.9c0.6,2.2,2.7,4.3,5,4
						C863.9,251.1,864.5,250.8,865.1,250.4z"/>
				</g>
			</g>
			<g>
				<path class="st6" d="M828.2,260.1c-0.1,0-0.2,0-0.3,0c-1.1-0.1-2.2-0.4-2.7-1.4c-0.3-0.6-0.3-1.2-0.2-1.8
					c0.1-0.4,0.1-0.9,0.4-1.3c0.5-0.9,1.7-1.2,2.7-1.2c0.9,0,1.7,0,2.6,0.2c0,0,2.1,0.4,3.1,0.7c0.1,0,0.1,0,0.2,0.1
					c0.3,0.2,0.4,0.5,0.5,0.8c0.5,1.6-0.5,3.4-2,3.9c-0.5,0.2-1.1,0.2-1.7,0.2C829.8,260.3,829,260.2,828.2,260.1z"/>
			</g>
			<path class="st11" d="M802.2,298.6c0.9-3.5,1.4-7.1,1.4-10.8c0-24.2-19.6-43.7-43.7-43.7c-13,0-24.7,5.7-32.7,14.6
				c5,32.8,28.6,52.2,63.8,59.8C796.4,313,800.3,306.2,802.2,298.6z"/>
			<path class="st11" d="M857,298.6c-0.9-3.5-1.4-7.1-1.4-10.8c0-24.2,19.6-43.7,43.7-43.7c13,0,24.7,5.7,32.7,14.6
				c-5,32.8-28.6,52.2-63.8,59.8C862.9,313,859,306.2,857,298.6z"/>
			<path class="st12" d="M829.7,324.6L829.7,324.6L829.7,324.6c-61.3,0-98.3-23.7-104.3-66.7c-3.3-24,5-83.1,33.4-115.3
				c0.9-1,2.3-1.6,4-1.7c2.3-0.1,4.6,0.8,6.3,2.4c11.5,10.9,20.8,37.4,23.4,45.2l0.1,0.2c5.1-1,24.8-4.8,36.9-4.8
				c12.2,0,31.9,3.8,37.1,4.8l0.1-0.2c2.6-7.9,11.9-34.3,23.4-45.2c1.7-1.6,4-2.5,6.3-2.4c1.7,0.1,3.1,0.7,4,1.7
				c28.5,32.2,36.8,91.3,33.4,115.3C927.9,300.9,890.9,324.6,829.7,324.6z M762.5,146c-27.4,31.1-35.4,88-32.1,111.2
				c5.6,40.3,40.9,62.4,99.3,62.4l0.1,2.5l0-2.5c58.4,0,93.6-22.2,99.2-62.4c3.2-23.2-4.8-80.1-32.1-111.2c-0.4-0.2-1.9-0.3-3.2,0.9
				c-10.7,10.1-19.6,35.6-22.1,43.1l-0.7,2.1c-0.3,1-1.3,1.7-2.4,1.7h-1c-0.2,0-0.3,0-0.5-0.1c-0.2,0-24-4.9-37.3-4.9
				c-13.3,0-36.9,4.9-37.2,4.9c-0.2,0-0.3,0.1-0.5,0.1h-1c-1.1,0-2-0.7-2.4-1.7l-0.7-2.1c-2.5-7.6-11.4-33.1-22.1-43.1
				C764.4,145.6,762.9,145.8,762.5,146z M896.8,146L896.8,146L896.8,146z M762.5,146L762.5,146L762.5,146z"/>
		</g>
		<g>
			<g>
				<g>
					<path class="st13" d="M804.9,304.6l0.2,0c38.6-14.1,69.8-25.1,109.8-35.5c-0.3,0,114.1,30.5,114,30.3v0.9
						C995,314,960.4,325.6,925.3,335C925.3,335,845,316,804.9,304.6z"/>
				</g>
				<path class="st14" d="M804.9,305.7c0.7,0,1.4-0.3,2-0.5c1-0.4,2-0.7,2.9-1.1c1.9-0.7,3.7-1.3,5.6-2c3.7-1.3,7.4-2.7,11.1-4
					c7-2.5,14-5,21-7.4c14-4.8,28-9.3,42.2-13.4c8.5-2.5,17.1-4.8,25.7-7.1c1.6-0.4,1.3-3-0.4-2.9c0,0,0,0,0,0
					c-1.8,0-1.9,2.4-0.4,2.9c1,0.4,2.1,0.6,3.1,0.8c2.8,0.7,5.6,1.5,8.4,2.2c9.1,2.4,18.3,4.9,27.4,7.3c11,2.9,22,5.9,32.9,8.8
					c9.5,2.5,18.9,5,28.4,7.5c4.5,1.2,9.1,2.7,13.7,3.6c0.3,0.1,0.6,0.1,1,0c0.5-0.1,0.9-0.5,1-1c0,0,0,0,0,0
					c0.4-1.9-2.5-2.7-2.9-0.8c0,0,0,0,0,0c0.3-0.3,0.7-0.7,1-1c0.3-0.1,1.1,0.1,0.5-0.1c-0.2-0.1-0.4-0.1-0.7-0.2
					c-0.8-0.2-1.5-0.4-2.3-0.6c-2.8-0.7-5.6-1.5-8.4-2.2c-9.1-2.4-18.2-4.8-27.3-7.2c-10.9-2.9-21.9-5.8-32.8-8.7
					c-9.4-2.5-18.9-5-28.3-7.6c-3.1-0.8-6.2-1.7-9.3-2.5c-1.4-0.4-3-1-4.4-1.2c-0.1,0-0.1,0-0.2-0.1c-0.1,1-0.3,2-0.4,2.9
					c0,0,0,0,0,0c-0.1-1-0.3-2-0.4-2.9c-29,7.5-57.5,16.7-85.7,26.7c-4,1.4-8.1,2.9-12.1,4.3c-2.1,0.7-4.1,1.5-6.2,2.2
					c-1,0.4-2.1,0.8-3.1,1.1c-0.7,0.2-1.9,1-2.6,0.9C802.9,302.6,802.9,305.6,804.9,305.7L804.9,305.7z"/>
			</g>
			<g>
				<g>
					<path class="st15" d="M925.5,424.6c30.6-14,61.2-28.1,91.8-42.1c0.4-2.5,0.9-5.1,1.3-7.6c4.2-24.7,7.7-49.4,10.6-74.3
						c-34.2,13.9-69.3,25.6-104.9,35.2"/>
				</g>
				<g>
					<path class="st13" d="M925.2,334.3c-40.2-9.1-80.1-19.3-119.7-30.6c4.9,29.8,9.2,59.6,12.9,89.6c4.4,1.6,8.8,3.1,13.2,4.6
						c31.1,10.5,62.8,18.8,94.8,25.3"/>
				</g>
				<path class="st14" d="M803.8,305.5c3.7,22.8,7.1,45.7,10.2,68.6c0.9,6.5,1.7,13,2.5,19.5c0.2,1.9,3.2,1.9,3,0
					c-2.9-23.1-6.2-46.2-9.7-69.3c-1-6.5-2-13.1-3.1-19.6C806.4,302.8,803.5,303.6,803.8,305.5L803.8,305.5z"/>
				<path class="st14" d="M924.5,334.6c0,23.1,0.1,46.3,0.1,69.4c0,6.5,0,13,0,19.5c0,1.9,3,1.9,3,0c0-23.1-0.1-46.3-0.1-69.4
					c0-6.5,0-13,0-19.5C927.5,332.7,924.5,332.7,924.5,334.6L924.5,334.6z"/>
				<path class="st14" d="M1028.2,299.7c-2.4,21.2-5.3,42.3-8.7,63.3c-1,5.9-2,11.8-3,17.7c-0.3,1.9,2.6,2.7,2.9,0.8
					c3.7-21.2,7-42.4,9.7-63.7c0.8-6,1.5-12.1,2.2-18.1C1031.4,297.8,1028.4,297.8,1028.2,299.7L1028.2,299.7z"/>
				<path class="st14" d="M927.4,424.5c23.8-10.9,47.6-21.8,71.4-32.8c6.7-3.1,13.4-6.2,20.2-9.3c1.8-0.8,0.2-3.4-1.5-2.6
					c-23.8,10.9-47.6,21.8-71.4,32.8c-6.7,3.1-13.4,6.2-20.2,9.3C924.2,422.7,925.7,425.3,927.4,424.5L927.4,424.5z"/>
				<path class="st14" d="M925.9,421.9c-19.3-3.7-38.4-8.2-57.2-13.7c-4.6-1.4-9.3-2.7-13.9-4.3c-2.3-0.8-4.5-1.7-6.8-2.5
					c-4.6-1.6-9.1-3.2-13.7-4.8c-4.7-1.7-9.5-3.2-14.1-5.1c-1.8-0.7-2.6,2.2-0.8,2.9c8.8,3.5,17.8,6.3,26.7,9.5
					c1.6,0.6,3.3,1.2,4.9,1.8c4.4,1.7,8.9,3,13.4,4.4c9.4,2.8,18.9,5.4,28.4,7.7c10.7,2.6,21.5,4.9,32.3,7
					C927,425.2,927.8,422.3,925.9,421.9L925.9,421.9z"/>
				<path class="st14" d="M1027.4,299.1c0,0.3,0,0.6,0,0.9c0.4-0.5,0.7-1,1.1-1.4c-21,8.5-42.3,16.2-63.9,23.1
					c-10.8,3.4-21.6,6.7-32.5,9.7c-1.3,0.4-2.6,0.7-3.9,1.1c-0.6,0.2-1.2,0.3-1.9,0.5c0,0-1.6,0.4-0.6,0.4c-0.1,0-0.3-0.1-0.4-0.1
					c-0.8-0.2-1.7-0.4-2.5-0.6c-9.2-2.2-18.4-4.4-27.6-6.6c-14.4-3.5-28.9-7.1-43.3-10.8c-14.1-3.6-28.2-7.2-42.3-11.1
					c-1.5-0.4-2.9-0.8-4.4-1.2c-1.9-0.5-2.7,2.4-0.8,2.9c13.8,3.9,27.6,7.5,41.5,11.1c14.7,3.7,29.3,7.4,44,11
					c10.1,2.5,20.2,4.9,30.2,7.3c1.5,0.4,3.1,0.9,4.6,1.1c1.1,0.2,2.5-0.5,3.6-0.8c1.4-0.4,2.8-0.8,4.2-1.1c2.8-0.8,5.6-1.6,8.3-2.4
					c5.4-1.6,10.8-3.2,16.1-4.8c21.7-6.7,43.2-14.2,64.3-22.5c2.6-1,5.2-2.1,7.8-3.1c0.6-0.3,1.1-0.7,1.1-1.4c0-0.3,0-0.6,0-0.9
					C1030.4,297.2,1027.4,297.2,1027.4,299.1L1027.4,299.1z"/>
			</g>
			<g>
				<path class="st16" d="M979,286.4v0.9c-33.8,13.7-68.5,25.3-103.6,34.7l0.3,1.2c0.8,10.4,1,20.8,0.7,31.1l-0.4,0.7
					c0.2,1.1-0.2,2.7-1.3,2.4c-0.3-0.1-0.5-0.3-0.7-0.5c-1-1-1.9-2-2.9-3c-0.6,1.5-1.5,3-2.4,4.3c-1.3-3.5-3-6.9-5-10.1
					c-1,0.5-0.8,2.6-2,2.6c-0.5,0-0.9-0.5-1.2-1c-1-1.7-1.9-3.4-2.9-5c-1.2,1.6-2.4,3.3-3.6,4.9c-1-10.9-2.1-21.8-3.2-32.7l-1-1
					l0.2,0c38.6-14.1,69.8-25.1,109.8-35.5"/>
				<path class="st14" d="M977.5,286.4c0,0.3,0,0.6,0,0.9c0.4-0.5,0.7-1,1.1-1.4c-26.4,10.6-53.2,20.1-80.5,28.2
					c-7.7,2.3-15.4,4.5-23.2,6.6c-0.8,0.2-1.3,1.1-1,1.8c0.7,2.8,0.6,5.9,0.8,8.7c0.2,3.8,0.3,7.6,0.3,11.4c0,1.8,0,3.6,0,5.4
					c0,1.9,0.1,4-0.1,5.9c0-0.3,0.1-0.2,0,0.1c-0.1,0.2-0.2,0.3-0.3,0.5c-0.1,0.3-0.3,1.3-0.2,1.7c-0.1,0.2,0,0.3,0.4,0.1
					c0.5,0,0.6-0.1,0.2-0.3c-0.1-0.3-0.8-0.8-1-1c-0.6-0.7-1.3-1.3-1.9-2c-0.6-0.6-2-0.6-2.4,0.3c-0.7,1.5-1.5,2.9-2.4,4.3
					c0.9,0.1,1.8,0.2,2.7,0.4c-1.4-3.7-3.1-7.2-5.2-10.5c-0.4-0.7-1.4-1-2.1-0.5c-0.6,0.4-1,0.8-1.3,1.5c-0.2,0.4-0.8,1.3-0.1,1.1
					c0.4,0,0.5-0.1,0.2-0.4c-0.2-0.3-0.3-0.6-0.5-0.8c-0.2-0.4-0.5-0.8-0.7-1.3c-0.6-1-1.1-2-1.7-2.9c-0.6-1-2-0.9-2.6,0
					c-1.2,1.6-2.4,3.3-3.6,4.9c0.9,0.3,1.9,0.5,2.8,0.8c-0.6-6.4-1.2-12.9-1.8-19.3c-0.3-3.1-0.6-6.3-0.9-9.4
					c-0.1-0.8-0.2-1.7-0.2-2.5c-0.1-0.7,0-1.6-0.4-2.2c-0.3-0.5-0.8-0.9-1.2-1.3c-0.4,0.9-0.7,1.7-1.1,2.6c0.7,0,1.4-0.3,2-0.5
					c1-0.4,2-0.7,2.9-1.1c1.9-0.7,3.7-1.3,5.6-2c3.7-1.3,7.4-2.7,11.1-4c7-2.5,14-5,21-7.4c14-4.8,28-9.3,42.2-13.4
					c8.5-2.5,17.1-4.8,25.7-7.1c1.9-0.5,1.1-3.4-0.8-2.9c-29,7.5-57.5,16.7-85.7,26.7c-4,1.4-8.1,2.9-12.1,4.3
					c-2.1,0.7-4.1,1.5-6.2,2.2c-1,0.4-2.1,0.8-3.1,1.1c-0.7,0.2-1.9,1-2.6,0.9c-1.4-0.1-1.9,1.7-1.1,2.6c0.3,0.3,0.7,0.7,1,1
					c-0.1-0.4-0.3-0.7-0.4-1.1c1.1,10.9,2.1,21.8,3.2,32.7c0.1,1.5,1.9,2,2.8,0.8c1.2-1.6,2.4-3.3,3.6-4.9c-0.9,0-1.7,0-2.6,0
					c0.8,1.3,1.5,2.7,2.3,4c0.6,1,1.2,2.3,2.4,2.7c0.9,0.3,1.8,0,2.5-0.7c0.4-0.5,0.7-1.8,1-2c-0.7-0.2-1.4-0.4-2.1-0.5
					c1.9,3.1,3.6,6.4,4.9,9.8c0.5,1.2,2,1.5,2.7,0.4c1-1.4,1.8-2.8,2.4-4.3c-0.8,0.1-1.6,0.2-2.4,0.3c0.8,0.8,1.5,1.6,2.3,2.4
					c0.6,0.6,1.2,1.3,2,1.6c1.6,0.4,2.8-0.9,3.1-2.3c0.1-0.3,0.2-0.7,0.1-1c-0.1-0.7-0.4,0.5,0-0.3c0.4-0.8,0.4-1.6,0.4-2.5
					c0.1-2.2,0.1-4.5,0.1-6.7c0-4.5-0.1-9.1-0.3-13.6c-0.1-2.3-0.2-4.6-0.4-6.9c-0.1-1.4-0.2-2.7-0.6-4.1c-0.3,0.6-0.7,1.2-1,1.8
					c27.4-7.4,54.5-16,81.2-26c7.5-2.8,15-5.7,22.5-8.7c0.6-0.3,1.1-0.7,1.1-1.4c0-0.3,0-0.6,0-0.9
					C980.5,284.5,977.5,284.5,977.5,286.4L977.5,286.4z"/>
			</g>
		</g>
		<g>
			<path class="st10" d="M771.6,312.4c-4.6,1.9-5.6,7.2-5.7,12.6c-0.2,11.5,6.2,20.5,14.3,27.8c5,4.5,12.7,8.6,16.8,10.4
				c9.8,4.5,18.2,5.4,28.4,5.2c2.4-0.1,4.7-0.1,7-0.7c8.1-2.2,13.7-12.3,11.7-21.3c-1.3-6.1-5.6-11-10.5-14.2s-10.5-4.9-15.9-6.6
				c-13.1-4-26.2-7.9-39.2-11.9c-2.4-0.7-4.9-1.5-7.3-1"/>
			<path class="st12" d="M823,371c-8.8,0-17-1.1-26.5-5.4c-4.9-2.2-12.5-6.4-17.4-10.9c-10.4-9.3-15.3-19-15.2-29.7
				c0-2.9,0.2-11.9,7.3-14.9l0.2,0.4l-0.1-0.3c3.1-0.5,6.1,0.4,8.5,1.1l39.2,11.9c5.6,1.7,11.4,3.4,16.6,6.9
				c6.1,4,10.2,9.6,11.5,15.8c2.3,10.3-4.1,21.7-13.5,24.2c-2.6,0.7-5.1,0.8-7.6,0.8C825,371,824,371,823,371z M772.6,315
				c-2.4,1.4-3.5,4.6-3.6,10.1c-0.1,9.1,4.3,17.6,13.5,25.9c4.8,4.3,12.4,8.3,16.1,10c9.8,4.4,18,5.2,27.3,5
				c2.3-0.1,4.4-0.1,6.4-0.7c6.8-1.8,11.6-10.8,9.9-18.4c-1.1-4.9-4.5-9.5-9.4-12.7c-4.6-3-10.1-4.7-15.3-6.3l-39.2-11.9
				C776.4,315.5,774.4,314.9,772.6,315z"/>
		</g>
	</g>
	<g>
		<g>
			<g>
				<g>
					<rect x="1329.2" y="190.3" class="st2" width="203.5" height="174.3"/>
					<path class="st5" d="M1534.9,366.8H1327V188.2h207.8V366.8z M1331.4,362.4h199.2V192.5h-199.2V362.4z"/>
				</g>
				<g>
					<rect x="1329.2" y="163.9" class="st17" width="203.5" height="26.4"/>
					<path class="st5" d="M1534.9,192.5H1327v-30.8h207.8V192.5z M1331.4,188.2h199.2v-22.1h-199.2V188.2z"/>
				</g>
				<g>
					
						<rect x="1511.7" y="175.8" transform="matrix(0.7071 -0.7071 0.7071 0.7071 319.4421 1125.4294)" class="st5" width="13.1" height="2.6"/>
					
						<rect x="1516.9" y="170.6" transform="matrix(0.7071 -0.7071 0.7071 0.7071 319.4857 1125.4844)" class="st5" width="2.6" height="13.1"/>
				</g>
			</g>
			<path class="st18" d="M1416.7,309.8c-3.6,0-7.2-1.5-9.7-4.4l-29.5-33.1c-4.8-5.4-4.3-13.6,1.1-18.4c5.4-4.8,13.6-4.3,18.4,1.1
				l20.8,23.4l48.3-42.8c5.4-4.8,13.6-4.3,18.4,1.1c4.8,5.4,4.3,13.6-1.1,18.4l-58,51.5C1422.9,308.7,1419.8,309.8,1416.7,309.8z"/>
		</g>
		<g>
			<path class="st10" d="M1565.9,402.2C1565.9,402.2,1565.8,402.2,1565.9,402.2c-48.9,0-83.1-17.7-88.5-56.1
				c-2.9-21.1,4.4-71.2,28.5-98.5c0.9-1,3.7-1.2,5.9,0.8c9.7,9.1,17.6,31.8,19.8,38.4c0,0,0.3,0.9,0.6,1.8c0.4,0,0.9,0,0.9,0
				s20.8-4.3,32.7-4.3s32.9,4.3,32.9,4.3s0.4,0,0.9,0c0.3-0.9,0.6-1.8,0.6-1.8c2.1-6.6,10.1-29.3,19.8-38.4c2.1-2,5-1.7,5.9-0.8
				c24.1,27.3,31.5,77.4,28.5,98.5C1648.9,384.5,1614.7,402.2,1565.9,402.2z"/>
			<path class="st4" d="M1571.2,284.5V310c0,3-2.4,5.4-5.4,5.4l0,0c-3,0-5.4-2.4-5.4-5.4v-25.5"/>
			<path class="st4" d="M1554.1,285.1V310c0,3-2.4,5.4-5.4,5.4l0,0c-3,0-5.4-2.4-5.4-5.4v-23.3"/>
			<path class="st4" d="M1577.6,285.1V310c0,3,2.4,5.4,5.4,5.4l0,0c3,0,5.4-2.4,5.4-5.4v-23.3"/>
			<g>
				<g>
					<path class="st5" d="M1539.1,339.9c0.6-0.4,1-1,1.3-1.6c0.6-1.1,0.7-2.5,0.8-3.7c0-1.8-0.3-3.8-1.5-5.1c-1-1.1-2.8-1.6-4.1-1
						c-1.4,0.1-1.8,1.5-2.1,2.7c-0.4,2-0.9,4-0.4,6c0.5,1.9,2.3,3.7,4.3,3.5C1538.1,340.5,1538.6,340.3,1539.1,339.9z"/>
				</g>
				<g>
					<path class="st5" d="M1596.6,339.9c0.6-0.4,1-1,1.3-1.6c0.6-1.1,0.7-2.5,0.8-3.7c0-1.8-0.3-3.8-1.5-5.1c-1-1.1-2.8-1.6-4.1-1
						c-1.4,0.1-1.8,1.5-2.1,2.7c-0.4,2-0.9,4-0.4,6c0.5,1.9,2.3,3.7,4.3,3.5C1595.6,340.5,1596.1,340.3,1596.6,339.9z"/>
				</g>
			</g>
			<g>
				<path class="st6" d="M1564.5,348.4c-0.1,0-0.2,0-0.3,0c-0.9-0.1-1.9-0.4-2.4-1.2c-0.3-0.5-0.3-1.1-0.2-1.6
					c0-0.4,0.1-0.8,0.3-1.1c0.5-0.8,1.5-1,2.4-1.1c0.7,0,1.5,0,2.2,0.2c0,0,1.8,0.4,2.7,0.6c0,0,0.1,0,0.1,0.1
					c0.2,0.2,0.3,0.4,0.4,0.7c0.4,1.4-0.4,3-1.8,3.4c-0.5,0.2-1,0.2-1.5,0.2C1565.9,348.5,1565.2,348.5,1564.5,348.4z"/>
			</g>
			<path class="st11" d="M1542,381.8c0.8-3,1.2-6.2,1.2-9.4c0-21-17-38-38-38c-11.3,0-21.4,4.9-28.4,12.7
				c4.4,28.5,24.9,45.4,55.5,51.9C1536.9,394.4,1540.3,388.4,1542,381.8z"/>
			<path class="st11" d="M1589.6,381.8c-0.8-3-1.2-6.2-1.2-9.4c0-21,17-38,38-38c11.3,0,21.4,4.9,28.4,12.7
				c-4.4,28.5-24.9,45.4-55.5,51.9C1594.7,394.4,1591.3,388.4,1589.6,381.8z"/>
			<path class="st12" d="M1565.9,404.4L1565.9,404.4L1565.9,404.4c-53.3,0-85.4-20.6-90.6-58c-2.9-20.9,4.3-72.2,29-100.2
				c0.8-0.9,2-1.4,3.5-1.5c2-0.1,4,0.7,5.5,2.1c10,9.4,18.1,32.5,20.3,39.3l0,0.1c4.5-0.9,21.5-4.1,32.1-4.1
				c10.6,0,27.8,3.3,32.2,4.1l0-0.1c2.2-6.8,10.3-29.8,20.3-39.3c1.5-1.4,3.5-2.2,5.5-2.1c1.5,0.1,2.7,0.6,3.5,1.5
				c24.7,28,32,79.3,29,100.2C1651.2,383.8,1619,404.4,1565.9,404.4z M1507.5,249.2c-23.8,27-30.7,76.5-27.9,96.6
				c4.9,35,35.5,54.2,86.3,54.2l0.1,2.2l0-2.2c50.7,0,81.3-19.3,86.2-54.2c2.8-20.1-4.1-69.6-27.9-96.6c-0.3-0.1-1.7-0.3-2.8,0.8
				c-9.3,8.7-17,30.9-19.2,37.5l-0.6,1.8c-0.3,0.9-1.1,1.5-2.1,1.5h-0.9c-0.1,0-0.3,0-0.4,0c-0.2,0-20.9-4.3-32.4-4.3
				c-11.6,0-32.1,4.2-32.3,4.3c-0.1,0-0.3,0-0.4,0h-0.9c-0.9,0-1.8-0.6-2.1-1.5l-0.6-1.8c-2.2-6.6-9.9-28.7-19.2-37.5
				C1509.1,248.9,1507.8,249,1507.5,249.2z"/>
		</g>
	</g>
</g>
</svg>
