<?xml version="1.0" encoding="utf-8"?>
<!-- Generator: Adobe Illustrator 27.0.0, SVG Export Plug-In . SVG Version: 6.00 Build 0)  -->
<svg version="1.1" id="Layer_1" xmlns="http://www.w3.org/2000/svg" xmlns:xlink="http://www.w3.org/1999/xlink" x="0px" y="0px"
	 viewBox="0 0 1751 550.2" style="enable-background:new 0 0 1751 550.2;" xml:space="preserve">
<style type="text/css">
	.st0{fill:#FFFFFF;}
	.st1{fill:#FFC350;}
	.st2{fill:#857B7B;}
	.st3{fill:#FCB567;}
	.st4{fill:#333333;}
	.st5{fill:#F496B7;}
	.st6{fill:#676767;}
	.st7{fill:#444545;}
	.st8{fill:#555555;}
	.st9{fill:#FFE5CA;}
	.st10{fill:#FAC9D8;}
	.st11{fill:#E88F45;}
	.st12{fill:#F89747;}
	.st13{fill:#010101;}
	.st14{fill:#D27631;}
	.st15{fill:#FFD838;}
	.st16{fill:#EEEEEE;}
	.st17{fill:#3D9645;}
</style>
<g>
	<g>
		<path class="st0" d="M1748.4,271.1c-2-149.4-126.1-270.2-275.6-268.6c-114.9,1.3-212.7,73.7-251.5,175.2
			c-4.9,19.7-24,34.2-45.2,34.2s-40.2-14.5-45.1-34.2C1091.8,75.3,992.6,2.5,876.3,2.5c-0.3,0-0.6,0-0.9,0c-0.3,0-0.6,0-0.9,0
			C758.4,2.5,659.2,75.3,620,177.7c-4.9,19.7-24,34.2-45.1,34.2c-21.2,0-40.3-14.5-45.2-34.2C490.8,76.2,393,3.8,278.1,2.5
			C128.6,0.9,4.6,121.7,2.5,271.1c0,1.3,0,2.6,0,4c0,1.3,0,2.6,0,4c2.1,149.5,126.1,270.3,275.6,268.6
			C393,546.4,490.8,474,529.6,372.5c4.9-19.7,24-34.2,45.2-34.2s40.2,14.5,45.1,34.2C659.1,475,758.3,547.7,874.5,547.7
			c0.3,0,0.6,0,0.9,0c0.3,0,0.6,0,0.9,0c116.2,0,215.4-72.8,254.6-175.2c4.9-19.7,24-34.2,45.1-34.2c21.2,0,40.3,14.5,45.2,34.2
			c38.8,101.5,136.7,173.9,251.5,175.2c149.5,1.7,273.5-119.2,275.6-268.6c0-1.3,0-2.6,0-4C1748.5,273.8,1748.5,272.5,1748.4,271.1z
			"/>
		<path class="st1" d="M275,550.2c-71.8,0-139.8-27.7-191.7-78.3C30.6,420.6,1,352.1,0,279.2v-8c1-73,30.6-141.4,83.3-192.7
			C136,27.1,205.2-0.8,278.1,0c56.2,0.6,110,18.1,155.7,50.5c44.7,31.7,78.7,75.4,98.2,126.3l0.1,0.3c4.7,18.7,22.6,32.3,42.8,32.3
			c20.1,0,38-13.6,42.7-32.3l0.1-0.3c19.7-51.4,54-95.4,99.3-127.2C763.3,17.2,817.8,0,874.5,0h1.8c56.8,0,111.3,17.2,157.7,49.7
			c45.3,31.7,79.6,75.7,99.3,127.2l0.1,0.3c4.7,18.7,22.6,32.3,42.7,32.3c20.1,0,38.1-13.6,42.8-32.3l0.1-0.3
			c19.5-51,53.4-94.6,98.1-126.3c45.7-32.4,99.5-49.8,155.7-50.5c1,0,2,0,3,0c71.9,0,139.9,27.8,191.9,78.4
			c52.7,51.3,82.2,119.7,83.2,192.6c0.1,1.6,0.1,3-0.1,4.3v3.8c-1,73-30.6,141.4-83.3,192.8c-52.7,51.4-121.9,79.2-194.8,78.3
			c-56.1-0.6-110-18.1-155.7-50.5c-44.7-31.7-78.7-75.4-98.1-126.3l-0.1-0.3c-4.7-18.7-22.6-32.3-42.8-32.3
			c-20.1,0-38,13.6-42.7,32.3l-0.1,0.3c-19.7,51.4-54,95.4-99.3,127.2c-46.3,32.5-100.8,49.7-157.6,49.7h-1.8
			c-56.8,0-111.3-17.2-157.6-49.6c-45.3-31.7-79.6-75.7-99.3-127.2l-0.1-0.3c-4.7-18.7-22.6-32.3-42.7-32.3
			c-20.1,0-38.1,13.6-42.8,32.3l-0.1,0.3c-19.5,51-53.4,94.6-98.1,126.3c-45.7,32.4-99.5,49.8-155.7,50.5
			C277.1,550.2,276,550.2,275,550.2z M1223.6,371.8c39.9,104.1,137.6,172.2,249.1,173.5c1,0,2.1,0,3.1,0
			c147.1,0,267.9-118.8,270-266.2l0-4.3c0.2-1,0.2-2.1,0.1-3.4l0-0.1C1743.9,123.8,1623,5,1475.8,5c-1,0-2,0-2.9,0
			c-111.5,1.3-209.3,69.3-249.1,173.5c-5.3,20.8-25.2,35.9-47.6,35.9c-22.3,0-42.2-15.1-47.5-35.9C1088.8,74.7,987.5,5,876.3,5h-1.8
			c-111,0-212.3,69.7-252.1,173.5c-5.3,20.8-25.2,35.9-47.5,35.9c-22.3,0-42.3-15.1-47.6-35.9C487.3,74.4,389.5,6.3,278.1,5
			C129.5,3.4,7.1,122.8,5,271.2v8c2.1,147.4,122.9,266.1,270,266.1c1,0,2.1,0,3.1,0c111.5-1.3,209.3-69.3,249.1-173.5
			c5.3-20.8,25.2-35.9,47.6-35.9c22.3,0,42.2,15.1,47.5,35.9C662,475.5,763.4,545.2,874.5,545.2h1.8c111.1,0,212.4-69.7,252.2-173.5
			c5.3-20.8,25.2-35.9,47.5-35.9C1198.3,335.8,1218.3,350.9,1223.6,371.8z"/>
	</g>
	<g>
		<g>
			<path class="st0" d="M272.1,382.6H272c-75.2,0-128-27.3-136.2-86.5c-4.5-32.5,6.8-109.7,43.9-151.7c1.3-1.5,5.7-1.9,9,1.2
				c14.9,14.1,27.1,49,30.4,59.1c0,0,0.5,1.4,0.9,2.8c0.7,0,1.4,0,1.4,0s32.1-6.7,50.4-6.7s50.7,6.7,50.7,6.7s0.7,0,1.4,0
				c0.5-1.4,0.9-2.8,0.9-2.8c3.3-10.1,15.5-45.1,30.4-59.1c3.3-3.1,7.7-2.7,9-1.2c37.2,42.1,48.5,119.2,43.9,151.7
				C399.9,355.3,347.2,382.6,272.1,382.6z"/>
			<path class="st2" d="M139.9,233.5c6.4-31.4,19.1-65.7,39.7-89.1c1.3-1.5,5.7-1.9,9,1.2c14.9,14.1,27.1,49,30.4,59.1
				c0,0,0.5,1.4,0.9,2.8c0.7,0,1.4,0,1.4,0s23.8-4.9,42.2-6.3c-9.1,49.3-49.4,86.4-97.8,86.4c-10.8,0-21.2-1.9-31-5.3
				C134.7,268.8,136.3,251.6,139.9,233.5z"/>
			<path class="st3" d="M402.1,233.5c-6.4-31.4-19.1-65.7-39.7-89.1c-1.3-1.5-5.7-1.9-9,1.2c-14.9,14.1-27.1,49-30.4,59.1
				c0,0-0.5,1.4-0.9,2.8c-0.7,0-1.4,0-1.4,0s-36.7-5.1-55.1-6.4c4.9,26.8,22.2,48.3,58.7,46.3c12.2,32.9,29.9,40.3,52,40.3
				c10.8,0,21.2-1.9,31-5.3C407.4,268.8,405.8,251.6,402.1,233.5z"/>
			<g>
				<g>
					<path class="st4" d="M230.8,286.6c0.9-0.6,1.6-1.5,2.1-2.5c0.9-1.8,1.2-3.8,1.2-5.8c0-2.8-0.4-5.8-2.3-7.9
						c-1.5-1.7-4.3-2.5-6.3-1.5c-2.2,0.2-2.8,2.3-3.3,4.1c-0.7,3-1.3,6.2-0.5,9.2s3.6,5.7,6.7,5.3
						C229.2,287.5,230.1,287.1,230.8,286.6z"/>
				</g>
				<g>
					<path class="st4" d="M319.4,286.6c0.9-0.6,1.6-1.5,2.1-2.5c0.9-1.8,1.2-3.8,1.2-5.8c0-2.8-0.4-5.8-2.3-7.9
						c-1.5-1.7-4.3-2.5-6.3-1.5c-2.2,0.2-2.8,2.3-3.3,4.1c-0.7,3-1.3,6.2-0.5,9.2s3.6,5.7,6.7,5.3
						C317.8,287.5,318.7,287.1,319.4,286.6z"/>
				</g>
			</g>
			<g>
				<path class="st5" d="M270,299.6c-0.1,0-0.3,0-0.4-0.1c-1.4-0.2-3-0.6-3.7-1.9c-0.4-0.7-0.4-1.6-0.3-2.5c0.1-0.6,0.2-1.2,0.5-1.7
					c0.7-1.2,2.3-1.6,3.7-1.6c1.2-0.1,2.3,0,3.4,0.3c0,0,2.8,0.6,4.2,0.9c0.1,0,0.1,0.1,0.2,0.1c0.3,0.3,0.5,0.7,0.7,1.1
					c0.6,2.1-0.6,4.6-2.7,5.3c-0.7,0.2-1.5,0.3-2.3,0.3C272.2,299.8,271.1,299.7,270,299.6z"/>
			</g>
			<path class="st6" d="M272.1,385.9L272.1,385.9H272c-82,0-131.5-31.7-139.5-89.4c-4.5-32.2,6.6-111.3,44.8-154.4
				c1.2-1.3,3.1-2.2,5.4-2.3c3-0.1,6.1,1,8.4,3.2c15.4,14.6,27.9,50,31.3,60.5l0.1,0.2c6.9-1.4,33.1-6.4,49.5-6.4
				c16.3,0,42.8,5,49.7,6.4l0.1-0.2c3.4-10.5,15.9-46,31.3-60.5c2.3-2.2,5.4-3.4,8.4-3.2c2.2,0.1,4.2,0.9,5.4,2.3
				c38.1,43.1,49.2,122.2,44.8,154.4C403.5,354.2,354,385.9,272.1,385.9z M182.1,146.7c-36.7,41.6-47.3,117.9-43,148.9
				c7.5,53.9,54.7,83.6,132.9,83.6l0.1,3.3v-3.3c78.1,0,125.3-29.7,132.8-83.6c4.3-31-6.4-107.3-43-148.9c-0.5-0.2-2.6-0.4-4.3,1.3
				c-14.3,13.5-26.2,47.6-29.5,57.7l-0.9,2.8c-0.4,1.4-1.7,2.3-3.2,2.3h-1.5c-0.2,0-0.5,0-0.7-0.1c-0.3-0.1-32.2-6.6-50-6.6
				s-49.4,6.5-49.7,6.6c-0.2,0-0.5,0.1-0.7,0.1H220c-1.4,0-2.7-0.9-3.2-2.3l-0.9-2.8c-3.3-10.1-15.3-44.3-29.5-57.7
				C184.6,146.3,182.6,146.5,182.1,146.7z"/>
		</g>
		<g>
			<g>
				<path class="st7" d="M271.8,168.8c66.1,0,119.7,36.4,119.7,81.4h-17.2c0-38.5-45.9-69.7-102.5-69.7s-102.5,31.2-102.5,69.7
					h-17.2C152.1,205.2,205.7,168.8,271.8,168.8"/>
				<path class="st4" d="M393.5,252.1h-21.2v-2c0-37.3-45.1-67.7-100.5-67.7s-100.5,30.4-100.5,67.7v2h-21.2v-2
					c0-46,54.6-83.4,121.7-83.4s121.7,37.4,121.7,83.4V252.1z M376.3,248.1h13.2c-1.6-42.8-53.8-77.4-117.7-77.4
					s-116.1,34.5-117.7,77.4h13.2c1.6-38.6,47.8-69.7,104.5-69.7C328.4,178.4,374.7,209.5,376.3,248.1z"/>
			</g>
			<g>
				<path class="st7" d="M246.3,345.3c-55.2-2.3-98.7-31-98.7-66h8.8c0,33.5,43.6,60.7,97.3,60.7v5.5
					C251.2,345.5,248.7,345.5,246.3,345.3z"/>
				<path class="st4" d="M255.7,347.5h-2c-2.5,0-5-0.1-7.4-0.2l0,0c-56.4-2.4-100.7-32.3-100.7-68v-2h12.8v2
					c0,32.3,42.7,58.7,95.3,58.7h2L255.7,347.5L255.7,347.5z M149.6,281.4c1.7,32.7,43.6,59.7,96.8,62l0,0c1.7,0.1,3.5,0.1,5.2,0.1
					V342c-52.8-0.7-95.6-27.4-97.2-60.6H149.6z"/>
			</g>
			<g>
				
					<ellipse transform="matrix(0.2665 -0.9638 0.9638 0.2665 -110.0856 333.5334)" class="st7" cx="164.1" cy="239.1" rx="57.7" ry="39.9"/>
				<path class="st4" d="M156.3,297.8c-2.7,0-5.5-0.4-8.1-1.1c-10.9-3-19.5-11.9-24.1-25.1c-4.5-12.9-4.6-28.4-0.4-43.6
					c4.2-15.3,12.3-28.5,22.8-37.2c10.7-8.9,22.6-12.2,33.5-9.2s19.5,11.9,24.1,25.1c4.5,12.9,4.6,28.4,0.4,43.6
					c-4.2,15.3-12.3,28.5-22.8,37.2C173.6,294.2,164.8,297.8,156.3,297.8z M171.9,184.4c-7.6,0-15.5,3.2-22.8,9.3
					c-9.9,8.2-17.5,20.7-21.5,35.2s-3.9,29.1,0.3,41.3c4.1,11.9,11.7,19.9,21.3,22.5c9.6,2.7,20.2-0.3,29.9-8.4
					c9.9-8.2,17.5-20.7,21.5-35.2c4-14.5,3.9-29.1-0.3-41.3c-4.1-11.9-11.7-19.9-21.3-22.5C176.6,184.8,174.3,184.4,171.9,184.4z"/>
			</g>
			<g>
				
					<ellipse transform="matrix(0.2665 -0.9638 0.9638 0.2665 -114.2514 323.0938)" class="st8" cx="155.2" cy="236.6" rx="49" ry="30.7"/>
				<path class="st4" d="M147.4,286.6c-2,0-3.9-0.3-5.8-0.8c-17.4-4.8-25.4-30.8-17.9-57.9c3.6-13,10.1-24.3,18.5-32
					c8.6-7.9,18-10.9,26.6-8.5c17.4,4.8,25.4,30.8,17.9,57.9c-3.6,13-10.1,24.3-18.5,32C161.5,283.4,154.3,286.6,147.4,286.6z
					 M163,190.7c-5.9,0-12.2,2.8-18.1,8.2c-7.8,7.1-13.9,17.8-17.3,30.1c-6.9,25-0.1,48.8,15.1,53c7.2,2,15.3-0.7,22.8-7.6
					c7.8-7.1,13.9-17.8,17.3-30.1l0,0c6.9-25,0.1-48.8-15.1-53C166.2,190.9,164.6,190.7,163,190.7z"/>
			</g>
			<g>
				
					<ellipse transform="matrix(0.9638 -0.2665 0.2665 0.9638 -49.9926 109.8662)" class="st7" cx="379.8" cy="239.1" rx="39.9" ry="57.7"/>
				<path class="st4" d="M387.6,297.8c-8.5,0-17.3-3.5-25.4-10.3c-10.5-8.8-18.6-22-22.8-37.2c-4.2-15.2-4.1-30.8,0.4-43.6
					c4.6-13.2,13.1-22.1,24.1-25.1c10.9-3,22.8,0.2,33.5,9.2c10.5,8.8,18.6,22,22.8,37.2c4.2,15.2,4.1,30.8-0.4,43.6
					c-4.6,13.2-13.1,22.1-24.1,25.1C393.1,297.4,390.4,297.8,387.6,297.8z M372,184.4c-2.4,0-4.7,0.3-7,0.9
					c-9.6,2.7-17.2,10.7-21.3,22.5c-4.2,12.1-4.3,26.8-0.3,41.3c4,14.5,11.6,27,21.5,35.2c9.7,8.1,20.3,11,29.9,8.4
					c9.6-2.7,17.2-10.7,21.3-22.5c4.2-12.1,4.3-26.8,0.3-41.3s-11.6-27-21.5-35.2C387.5,187.6,379.6,184.4,372,184.4z"/>
			</g>
			<g>
				
					<ellipse transform="matrix(0.9638 -0.2665 0.2665 0.9638 -48.9952 112.17)" class="st8" cx="388.8" cy="236.6" rx="30.7" ry="49"/>
				<path class="st4" d="M396.5,286.6c-6.9,0-14.1-3.2-20.8-9.3c-8.3-7.6-14.9-19-18.5-32c-7.5-27.1,0.5-53.1,17.9-57.9
					c8.6-2.4,18,0.7,26.6,8.5c8.3,7.6,14.9,19,18.5,32c7.5,27.1-0.5,53.1-17.9,57.9C400.4,286.3,398.5,286.6,396.5,286.6z
					 M381,190.7c-1.6,0-3.2,0.2-4.7,0.6c-15.2,4.2-22,28-15.1,53l0,0c3.4,12.3,9.5,22.9,17.3,30.1c7.5,6.9,15.6,9.6,22.8,7.6
					c15.2-4.2,22-28,15.1-53c-3.4-12.3-9.5-22.9-17.3-30.1C393.1,193.5,386.9,190.7,381,190.7z"/>
			</g>
			<g>
				<circle class="st7" cx="259.6" cy="341.3" r="12.1"/>
				<path class="st4" d="M259.6,355.4c-7.8,0-14.1-6.3-14.1-14.1c0-7.8,6.3-14.1,14.1-14.1c7.8,0,14.1,6.3,14.1,14.1
					C273.8,349.1,267.4,355.4,259.6,355.4z M259.6,331.2c-5.6,0-10.1,4.5-10.1,10.1s4.5,10.1,10.1,10.1s10.1-4.5,10.1-10.1
					C269.8,335.7,265.2,331.2,259.6,331.2z"/>
			</g>
		</g>
	</g>
	<g>
		<g>
			<path class="st9" d="M832.2,324.6L832.2,324.6c-56.3,0-95.7-20.4-101.8-64.6c-3.4-24.3,5.1-81.9,32.8-113.3
				c1-1.1,4.3-1.4,6.7,0.9c11.1,10.5,20.3,36.6,22.7,44.2c0,0,0.3,1,0.7,2.1c0.5,0,1,0,1,0s23.9-5,37.7-5c13.7,0,37.8,5,37.8,5
				s0.5,0,1,0c0.3-1,0.7-2.1,0.7-2.1c2.5-7.6,11.6-33.7,22.7-44.2c2.4-2.3,5.8-2,6.7-0.9c27.8,31.4,36.2,89,32.8,113.3
				C927.7,304.2,888.4,324.6,832.2,324.6z"/>
			<path class="st3" d="M838.4,189.1v29.4c0,3.5-2.8,6.3-6.3,6.3l0,0c-3.5,0-6.3-2.8-6.3-6.3v-29.3"/>
			<path class="st3" d="M818.6,189.8v28.7c0,3.5-2.8,6.3-6.3,6.3l0,0c-3.5,0-6.3-2.8-6.3-6.3v-26.8"/>
			<path class="st3" d="M845.7,189.8v28.7c0,3.5,2.8,6.3,6.3,6.3l0,0c3.5,0,6.3-2.8,6.3-6.3v-26.8"/>
			<g>
				<g>
					<path class="st4" d="M801.4,252.9c0.6-0.5,1.2-1.1,1.5-1.8c0.7-1.3,0.9-2.8,0.9-4.3c0-2.1-0.3-4.3-1.7-5.9
						c-1.2-1.3-3.2-1.9-4.7-1.1c-1.7,0.1-2.1,1.7-2.4,3.1c-0.5,2.3-1,4.6-0.4,6.9c0.6,2.2,2.7,4.3,5,4
						C800.2,253.6,800.8,253.3,801.4,252.9z"/>
				</g>
				<g>
					<path class="st4" d="M867.6,252.9c0.6-0.5,1.2-1.1,1.5-1.8c0.7-1.3,0.9-2.8,0.9-4.3c0-2.1-0.3-4.3-1.7-5.9
						c-1.2-1.3-3.2-1.9-4.7-1.1c-1.7,0.1-2.1,1.7-2.4,3.1c-0.5,2.3-1,4.6-0.4,6.9c0.6,2.2,2.7,4.3,5,4
						C866.4,253.6,867,253.3,867.6,252.9z"/>
				</g>
			</g>
			<g>
				<path class="st5" d="M830.7,262.6c-0.1,0-0.2,0-0.3,0c-1.1-0.1-2.2-0.4-2.7-1.4c-0.3-0.6-0.3-1.2-0.2-1.8
					c0.1-0.4,0.1-0.9,0.4-1.3c0.5-0.9,1.7-1.2,2.7-1.2c0.9,0,1.7,0,2.6,0.2c0,0,2.1,0.4,3.1,0.7c0.1,0,0.1,0,0.2,0.1
					c0.3,0.2,0.4,0.5,0.5,0.8c0.5,1.6-0.5,3.4-2,3.9c-0.5,0.2-1.1,0.2-1.7,0.2C832.3,262.8,831.5,262.7,830.7,262.6z"/>
			</g>
			<path class="st10" d="M804.7,301.1c0.9-3.5,1.4-7.1,1.4-10.8c0-24.2-19.6-43.7-43.7-43.7c-13,0-24.7,5.7-32.7,14.6
				c5,32.8,28.6,52.2,63.8,59.8C798.9,315.5,802.8,308.7,804.7,301.1z"/>
			<path class="st10" d="M859.5,301.1c-0.9-3.5-1.4-7.1-1.4-10.8c0-24.2,19.6-43.7,43.7-43.7c13,0,24.7,5.7,32.7,14.6
				c-5,32.8-28.6,52.2-63.8,59.8C865.4,315.5,861.5,308.7,859.5,301.1z"/>
			<path class="st11" d="M832.2,327.1L832.2,327.1L832.2,327.1c-61.3,0-98.3-23.7-104.3-66.7c-3.3-24,5-83.1,33.4-115.3
				c0.9-1,2.3-1.6,4-1.7c2.3-0.1,4.6,0.8,6.3,2.4c11.5,10.9,20.8,37.4,23.4,45.2l0.1,0.2c5.1-1,24.8-4.8,36.9-4.8
				c12.2,0,31.9,3.8,37.1,4.8l0.1-0.2c2.6-7.9,11.9-34.3,23.4-45.2c1.7-1.6,4-2.5,6.3-2.4c1.7,0.1,3.1,0.7,4,1.7
				c28.5,32.2,36.8,91.3,33.4,115.3C930.4,303.4,893.4,327.1,832.2,327.1z M765,148.5c-27.4,31.1-35.4,88-32.1,111.2
				c5.6,40.3,40.9,62.4,99.3,62.4l0.1,2.5v-2.5c58.4,0,93.6-22.2,99.2-62.4c3.2-23.2-4.8-80.1-32.1-111.2c-0.4-0.2-1.9-0.3-3.2,0.9
				c-10.7,10.1-19.6,35.6-22.1,43.1l-0.7,2.1c-0.3,1-1.3,1.7-2.4,1.7h-1c-0.2,0-0.3,0-0.5-0.1c-0.2,0-24-4.9-37.3-4.9
				s-36.9,4.9-37.2,4.9c-0.2,0-0.3,0.1-0.5,0.1h-1c-1.1,0-2-0.7-2.4-1.7l-0.7-2.1c-2.5-7.6-11.4-33.1-22.1-43.1
				C766.9,148.1,765.4,148.3,765,148.5z M899.3,148.5L899.3,148.5L899.3,148.5z M765,148.5L765,148.5L765,148.5z"/>
		</g>
		<g>
			<g>
				<g>
					<path class="st12" d="M807.4,307.1h0.2c38.6-14.1,69.8-25.1,109.8-35.5c-0.3,0,114.1,30.5,114,30.3v0.9
						c-33.9,13.7-68.5,25.3-103.6,34.7C927.8,337.5,847.5,318.5,807.4,307.1z"/>
				</g>
				<path class="st13" d="M807.4,308.2c0.7,0,1.4-0.3,2-0.5c1-0.4,2-0.7,2.9-1.1c1.9-0.7,3.7-1.3,5.6-2c3.7-1.3,7.4-2.7,11.1-4
					c7-2.5,14-5,21-7.4c14-4.8,28-9.3,42.2-13.4c8.5-2.5,17.1-4.8,25.7-7.1c1.6-0.4,1.3-3-0.4-2.9l0,0c-1.8,0-1.9,2.4-0.4,2.9
					c1,0.4,2.1,0.6,3.1,0.8c2.8,0.7,5.6,1.5,8.4,2.2c9.1,2.4,18.3,4.9,27.4,7.3c11,2.9,22,5.9,32.9,8.8c9.5,2.5,18.9,5,28.4,7.5
					c4.5,1.2,9.1,2.7,13.7,3.6c0.3,0.1,0.6,0.1,1,0c0.5-0.1,0.9-0.5,1-1l0,0c0.4-1.9-2.5-2.7-2.9-0.8l0,0c0.3-0.3,0.7-0.7,1-1
					c0.3-0.1,1.1,0.1,0.5-0.1c-0.2-0.1-0.4-0.1-0.7-0.2c-0.8-0.2-1.5-0.4-2.3-0.6c-2.8-0.7-5.6-1.5-8.4-2.2
					c-9.1-2.4-18.2-4.8-27.3-7.2c-10.9-2.9-21.9-5.8-32.8-8.7c-9.4-2.5-18.9-5-28.3-7.6c-3.1-0.8-6.2-1.7-9.3-2.5
					c-1.4-0.4-3-1-4.4-1.2c-0.1,0-0.1,0-0.2-0.1c-0.1,1-0.3,2-0.4,2.9l0,0c-0.1-1-0.3-2-0.4-2.9c-29,7.5-57.5,16.7-85.7,26.7
					c-4,1.4-8.1,2.9-12.1,4.3c-2.1,0.7-4.1,1.5-6.2,2.2c-1,0.4-2.1,0.8-3.1,1.1c-0.7,0.2-1.9,1-2.6,0.9
					C805.4,305.1,805.4,308.1,807.4,308.2L807.4,308.2z"/>
			</g>
			<g>
				<g>
					<path class="st14" d="M928,427.1c30.6-14,61.2-28.1,91.8-42.1c0.4-2.5,0.9-5.1,1.3-7.6c4.2-24.7,7.7-49.4,10.6-74.3
						c-34.2,13.9-69.3,25.6-104.9,35.2"/>
				</g>
				<g>
					<path class="st12" d="M927.7,336.8c-40.2-9.1-80.1-19.3-119.7-30.6c4.9,29.8,9.2,59.6,12.9,89.6c4.4,1.6,8.8,3.1,13.2,4.6
						c31.1,10.5,62.8,18.8,94.8,25.3"/>
				</g>
				<path class="st13" d="M806.3,308c3.7,22.8,7.1,45.7,10.2,68.6c0.9,6.5,1.7,13,2.5,19.5c0.2,1.9,3.2,1.9,3,0
					c-2.9-23.1-6.2-46.2-9.7-69.3c-1-6.5-2-13.1-3.1-19.6C808.9,305.3,806,306.1,806.3,308L806.3,308z"/>
				<path class="st13" d="M927,337.1c0,23.1,0.1,46.3,0.1,69.4c0,6.5,0,13,0,19.5c0,1.9,3,1.9,3,0c0-23.1-0.1-46.3-0.1-69.4
					c0-6.5,0-13,0-19.5C930,335.2,927,335.2,927,337.1L927,337.1z"/>
				<path class="st13" d="M1030.7,302.2c-2.4,21.2-5.3,42.3-8.7,63.3c-1,5.9-2,11.8-3,17.7c-0.3,1.9,2.6,2.7,2.9,0.8
					c3.7-21.2,7-42.4,9.7-63.7c0.8-6,1.5-12.1,2.2-18.1C1033.9,300.3,1030.9,300.3,1030.7,302.2L1030.7,302.2z"/>
				<path class="st13" d="M929.9,427c23.8-10.9,47.6-21.8,71.4-32.8c6.7-3.1,13.4-6.2,20.2-9.3c1.8-0.8,0.2-3.4-1.5-2.6
					c-23.8,10.9-47.6,21.8-71.4,32.8c-6.7,3.1-13.4,6.2-20.2,9.3C926.7,425.2,928.2,427.8,929.9,427L929.9,427z"/>
				<path class="st13" d="M928.4,424.4c-19.3-3.7-38.4-8.2-57.2-13.7c-4.6-1.4-9.3-2.7-13.9-4.3c-2.3-0.8-4.5-1.7-6.8-2.5
					c-4.6-1.6-9.1-3.2-13.7-4.8c-4.7-1.7-9.5-3.2-14.1-5.1c-1.8-0.7-2.6,2.2-0.8,2.9c8.8,3.5,17.8,6.3,26.7,9.5
					c1.6,0.6,3.3,1.2,4.9,1.8c4.4,1.7,8.9,3,13.4,4.4c9.4,2.8,18.9,5.4,28.4,7.7c10.7,2.6,21.5,4.9,32.3,7
					C929.5,427.7,930.3,424.8,928.4,424.4L928.4,424.4z"/>
				<path class="st13" d="M1029.9,301.6c0,0.3,0,0.6,0,0.9c0.4-0.5,0.7-1,1.1-1.4c-21,8.5-42.3,16.2-63.9,23.1
					c-10.8,3.4-21.6,6.7-32.5,9.7c-1.3,0.4-2.6,0.7-3.9,1.1c-0.6,0.2-1.2,0.3-1.9,0.5c0,0-1.6,0.4-0.6,0.4c-0.1,0-0.3-0.1-0.4-0.1
					c-0.8-0.2-1.7-0.4-2.5-0.6c-9.2-2.2-18.4-4.4-27.6-6.6c-14.4-3.5-28.9-7.1-43.3-10.8c-14.1-3.6-28.2-7.2-42.3-11.1
					c-1.5-0.4-2.9-0.8-4.4-1.2c-1.9-0.5-2.7,2.4-0.8,2.9c13.8,3.9,27.6,7.5,41.5,11.1c14.7,3.7,29.3,7.4,44,11
					c10.1,2.5,20.2,4.9,30.2,7.3c1.5,0.4,3.1,0.9,4.6,1.1c1.1,0.2,2.5-0.5,3.6-0.8c1.4-0.4,2.8-0.8,4.2-1.1c2.8-0.8,5.6-1.6,8.3-2.4
					c5.4-1.6,10.8-3.2,16.1-4.8c21.7-6.7,43.2-14.2,64.3-22.5c2.6-1,5.2-2.1,7.8-3.1c0.6-0.3,1.1-0.7,1.1-1.4c0-0.3,0-0.6,0-0.9
					C1032.9,299.7,1029.9,299.7,1029.9,301.6L1029.9,301.6z"/>
			</g>
			<g>
				<path class="st15" d="M981.5,288.9v0.9c-33.8,13.7-68.5,25.3-103.6,34.7l0.3,1.2c0.8,10.4,1,20.8,0.7,31.1l-0.4,0.7
					c0.2,1.1-0.2,2.7-1.3,2.4c-0.3-0.1-0.5-0.3-0.7-0.5c-1-1-1.9-2-2.9-3c-0.6,1.5-1.5,3-2.4,4.3c-1.3-3.5-3-6.9-5-10.1
					c-1,0.5-0.8,2.6-2,2.6c-0.5,0-0.9-0.5-1.2-1c-1-1.7-1.9-3.4-2.9-5c-1.2,1.6-2.4,3.3-3.6,4.9c-1-10.9-2.1-21.8-3.2-32.7l-1-1h0.2
					c38.6-14.1,69.8-25.1,109.8-35.5"/>
				<path class="st13" d="M980,288.9c0,0.3,0,0.6,0,0.9c0.4-0.5,0.7-1,1.1-1.4c-26.4,10.6-53.2,20.1-80.5,28.2
					c-7.7,2.3-15.4,4.5-23.2,6.6c-0.8,0.2-1.3,1.1-1,1.8c0.7,2.8,0.6,5.9,0.8,8.7c0.2,3.8,0.3,7.6,0.3,11.4c0,1.8,0,3.6,0,5.4
					c0,1.9,0.1,4-0.1,5.9c0-0.3,0.1-0.2,0,0.1c-0.1,0.2-0.2,0.3-0.3,0.5c-0.1,0.3-0.3,1.3-0.2,1.7c-0.1,0.2,0,0.3,0.4,0.1
					c0.5,0,0.6-0.1,0.2-0.3c-0.1-0.3-0.8-0.8-1-1c-0.6-0.7-1.3-1.3-1.9-2c-0.6-0.6-2-0.6-2.4,0.3c-0.7,1.5-1.5,2.9-2.4,4.3
					c0.9,0.1,1.8,0.2,2.7,0.4c-1.4-3.7-3.1-7.2-5.2-10.5c-0.4-0.7-1.4-1-2.1-0.5c-0.6,0.4-1,0.8-1.3,1.5c-0.2,0.4-0.8,1.3-0.1,1.1
					c0.4,0,0.5-0.1,0.2-0.4c-0.2-0.3-0.3-0.6-0.5-0.8c-0.2-0.4-0.5-0.8-0.7-1.3c-0.6-1-1.1-2-1.7-2.9c-0.6-1-2-0.9-2.6,0
					c-1.2,1.6-2.4,3.3-3.6,4.9c0.9,0.3,1.9,0.5,2.8,0.8c-0.6-6.4-1.2-12.9-1.8-19.3c-0.3-3.1-0.6-6.3-0.9-9.4
					c-0.1-0.8-0.2-1.7-0.2-2.5c-0.1-0.7,0-1.6-0.4-2.2c-0.3-0.5-0.8-0.9-1.2-1.3c-0.4,0.9-0.7,1.7-1.1,2.6c0.7,0,1.4-0.3,2-0.5
					c1-0.4,2-0.7,2.9-1.1c1.9-0.7,3.7-1.3,5.6-2c3.7-1.3,7.4-2.7,11.1-4c7-2.5,14-5,21-7.4c14-4.8,28-9.3,42.2-13.4
					c8.5-2.5,17.1-4.8,25.7-7.1c1.9-0.5,1.1-3.4-0.8-2.9c-29,7.5-57.5,16.7-85.7,26.7c-4,1.4-8.1,2.9-12.1,4.3
					c-2.1,0.7-4.1,1.5-6.2,2.2c-1,0.4-2.1,0.8-3.1,1.1c-0.7,0.2-1.9,1-2.6,0.9c-1.4-0.1-1.9,1.7-1.1,2.6c0.3,0.3,0.7,0.7,1,1
					c-0.1-0.4-0.3-0.7-0.4-1.1c1.1,10.9,2.1,21.8,3.2,32.7c0.1,1.5,1.9,2,2.8,0.8c1.2-1.6,2.4-3.3,3.6-4.9c-0.9,0-1.7,0-2.6,0
					c0.8,1.3,1.5,2.7,2.3,4c0.6,1,1.2,2.3,2.4,2.7c0.9,0.3,1.8,0,2.5-0.7c0.4-0.5,0.7-1.8,1-2c-0.7-0.2-1.4-0.4-2.1-0.5
					c1.9,3.1,3.6,6.4,4.9,9.8c0.5,1.2,2,1.5,2.7,0.4c1-1.4,1.8-2.8,2.4-4.3c-0.8,0.1-1.6,0.2-2.4,0.3c0.8,0.8,1.5,1.6,2.3,2.4
					c0.6,0.6,1.2,1.3,2,1.6c1.6,0.4,2.8-0.9,3.1-2.3c0.1-0.3,0.2-0.7,0.1-1c-0.1-0.7-0.4,0.5,0-0.3s0.4-1.6,0.4-2.5
					c0.1-2.2,0.1-4.5,0.1-6.7c0-4.5-0.1-9.1-0.3-13.6c-0.1-2.3-0.2-4.6-0.4-6.9c-0.1-1.4-0.2-2.7-0.6-4.1c-0.3,0.6-0.7,1.2-1,1.8
					c27.4-7.4,54.5-16,81.2-26c7.5-2.8,15-5.7,22.5-8.7c0.6-0.3,1.1-0.7,1.1-1.4c0-0.3,0-0.6,0-0.9C983,287,980,287,980,288.9
					L980,288.9z"/>
			</g>
		</g>
		<g>
			<path class="st9" d="M774.1,314.9c-4.6,1.9-5.6,7.2-5.7,12.6c-0.2,11.5,6.2,20.5,14.3,27.8c5,4.5,12.7,8.6,16.8,10.4
				c9.8,4.5,18.2,5.4,28.4,5.2c2.4-0.1,4.7-0.1,7-0.7c8.1-2.2,13.7-12.3,11.7-21.3c-1.3-6.1-5.6-11-10.5-14.2s-10.5-4.9-15.9-6.6
				c-13.1-4-26.2-7.9-39.2-11.9c-2.4-0.7-4.9-1.5-7.3-1"/>
			<path class="st11" d="M825.5,373.5c-8.8,0-17-1.1-26.5-5.4c-4.9-2.2-12.5-6.4-17.4-10.9c-10.4-9.3-15.3-19-15.2-29.7
				c0-2.9,0.2-11.9,7.3-14.9l0.2,0.4l-0.1-0.3c3.1-0.5,6.1,0.4,8.5,1.1l39.2,11.9c5.6,1.7,11.4,3.4,16.6,6.9
				c6.1,4,10.2,9.6,11.5,15.8c2.3,10.3-4.1,21.7-13.5,24.2c-2.6,0.7-5.1,0.8-7.6,0.8C827.5,373.5,826.5,373.5,825.5,373.5z
				 M775.1,317.5c-2.4,1.4-3.5,4.6-3.6,10.1c-0.1,9.1,4.3,17.6,13.5,25.9c4.8,4.3,12.4,8.3,16.1,10c9.8,4.4,18,5.2,27.3,5
				c2.3-0.1,4.4-0.1,6.4-0.7c6.8-1.8,11.6-10.8,9.9-18.4c-1.1-4.9-4.5-9.5-9.4-12.7c-4.6-3-10.1-4.7-15.3-6.3l-39.2-11.9
				C778.9,318,776.9,317.4,775.1,317.5z"/>
		</g>
	</g>
	<g>
		<g>
			<g>
				<g>
					<rect x="1331.7" y="192.8" class="st0" width="203.5" height="174.3"/>
					<path class="st4" d="M1537.4,369.3h-207.9V190.7h207.8L1537.4,369.3L1537.4,369.3z M1333.9,364.9h199.2V195h-199.2V364.9z"/>
				</g>
				<g>
					<rect x="1331.7" y="166.4" class="st16" width="203.5" height="26.4"/>
					<path class="st4" d="M1537.4,195h-207.9v-30.8h207.8L1537.4,195L1537.4,195z M1333.9,190.7h199.2v-22.1h-199.2V190.7z"/>
				</g>
				<g>
					
						<rect x="1514.2" y="178.3" transform="matrix(0.7071 -0.7071 0.7071 0.7071 318.4001 1127.9233)" class="st4" width="13.1" height="2.6"/>
					
						<rect x="1519.5" y="173.2" transform="matrix(0.7071 -0.7071 0.7071 0.7071 318.3241 1127.991)" class="st4" width="2.6" height="13.1"/>
				</g>
			</g>
			<path class="st17" d="M1419.2,312.3c-3.6,0-7.2-1.5-9.7-4.4l-29.5-33.1c-4.8-5.4-4.3-13.6,1.1-18.4s13.6-4.3,18.4,1.1l20.8,23.4
				l48.3-42.8c5.4-4.8,13.6-4.3,18.4,1.1c4.8,5.4,4.3,13.6-1.1,18.4l-58,51.5C1425.4,311.2,1422.3,312.3,1419.2,312.3z"/>
		</g>
		<g>
			<path class="st9" d="M1568.4,404.7C1568.4,404.7,1568.3,404.7,1568.4,404.7c-48.9,0-83.1-17.7-88.5-56.1
				c-2.9-21.1,4.4-71.2,28.5-98.5c0.9-1,3.7-1.2,5.9,0.8c9.7,9.1,17.6,31.8,19.8,38.4c0,0,0.3,0.9,0.6,1.8c0.4,0,0.9,0,0.9,0
				s20.8-4.3,32.7-4.3s32.9,4.3,32.9,4.3s0.4,0,0.9,0c0.3-0.9,0.6-1.8,0.6-1.8c2.1-6.6,10.1-29.3,19.8-38.4c2.1-2,5-1.7,5.9-0.8
				c24.1,27.3,31.5,77.4,28.5,98.5C1651.4,387,1617.2,404.7,1568.4,404.7z"/>
			<path class="st3" d="M1573.7,287v25.5c0,3-2.4,5.4-5.4,5.4l0,0c-3,0-5.4-2.4-5.4-5.4V287"/>
			<path class="st3" d="M1556.6,287.6v24.9c0,3-2.4,5.4-5.4,5.4l0,0c-3,0-5.4-2.4-5.4-5.4v-23.3"/>
			<path class="st3" d="M1580.1,287.6v24.9c0,3,2.4,5.4,5.4,5.4l0,0c3,0,5.4-2.4,5.4-5.4v-23.3"/>
			<g>
				<g>
					<path class="st4" d="M1541.6,342.4c0.6-0.4,1-1,1.3-1.6c0.6-1.1,0.7-2.5,0.8-3.7c0-1.8-0.3-3.8-1.5-5.1c-1-1.1-2.8-1.6-4.1-1
						c-1.4,0.1-1.8,1.5-2.1,2.7c-0.4,2-0.9,4-0.4,6c0.5,1.9,2.3,3.7,4.3,3.5C1540.6,343,1541.1,342.8,1541.6,342.4z"/>
				</g>
				<g>
					<path class="st4" d="M1599.1,342.4c0.6-0.4,1-1,1.3-1.6c0.6-1.1,0.7-2.5,0.8-3.7c0-1.8-0.3-3.8-1.5-5.1c-1-1.1-2.8-1.6-4.1-1
						c-1.4,0.1-1.8,1.5-2.1,2.7c-0.4,2-0.9,4-0.4,6c0.5,1.9,2.3,3.7,4.3,3.5C1598.1,343,1598.6,342.8,1599.1,342.4z"/>
				</g>
			</g>
			<g>
				<path class="st5" d="M1567,350.9c-0.1,0-0.2,0-0.3,0c-0.9-0.1-1.9-0.4-2.4-1.2c-0.3-0.5-0.3-1.1-0.2-1.6c0-0.4,0.1-0.8,0.3-1.1
					c0.5-0.8,1.5-1,2.4-1.1c0.7,0,1.5,0,2.2,0.2c0,0,1.8,0.4,2.7,0.6c0,0,0.1,0,0.1,0.1c0.2,0.2,0.3,0.4,0.4,0.7
					c0.4,1.4-0.4,3-1.8,3.4c-0.5,0.2-1,0.2-1.5,0.2C1568.4,351,1567.7,351,1567,350.9z"/>
			</g>
			<path class="st10" d="M1544.5,384.3c0.8-3,1.2-6.2,1.2-9.4c0-21-17-38-38-38c-11.3,0-21.4,4.9-28.4,12.7
				c4.4,28.5,24.9,45.4,55.5,51.9C1539.4,396.9,1542.8,390.9,1544.5,384.3z"/>
			<path class="st10" d="M1592.1,384.3c-0.8-3-1.2-6.2-1.2-9.4c0-21,17-38,38-38c11.3,0,21.4,4.9,28.4,12.7
				c-4.4,28.5-24.9,45.4-55.5,51.9C1597.2,396.9,1593.8,390.9,1592.1,384.3z"/>
			<path class="st11" d="M1568.4,406.9L1568.4,406.9L1568.4,406.9c-53.3,0-85.4-20.6-90.6-58c-2.9-20.9,4.3-72.2,29-100.2
				c0.8-0.9,2-1.4,3.5-1.5c2-0.1,4,0.7,5.5,2.1c10,9.4,18.1,32.5,20.3,39.3v0.1c4.5-0.9,21.5-4.1,32.1-4.1s27.8,3.3,32.2,4.1v-0.1
				c2.2-6.8,10.3-29.8,20.3-39.3c1.5-1.4,3.5-2.2,5.5-2.1c1.5,0.1,2.7,0.6,3.5,1.5c24.7,28,32,79.3,29,100.2
				C1653.7,386.3,1621.5,406.9,1568.4,406.9z M1510,251.7c-23.8,27-30.7,76.5-27.9,96.6c4.9,35,35.5,54.2,86.3,54.2l0.1,2.2v-2.2
				c50.7,0,81.3-19.3,86.2-54.2c2.8-20.1-4.1-69.6-27.9-96.6c-0.3-0.1-1.7-0.3-2.8,0.8c-9.3,8.7-17,30.9-19.2,37.5l-0.6,1.8
				c-0.3,0.9-1.1,1.5-2.1,1.5h-0.9c-0.1,0-0.3,0-0.4,0c-0.2,0-20.9-4.3-32.4-4.3c-11.6,0-32.1,4.2-32.3,4.3c-0.1,0-0.3,0-0.4,0h-0.9
				c-0.9,0-1.8-0.6-2.1-1.5l-0.6-1.8c-2.2-6.6-9.9-28.7-19.2-37.5C1511.6,251.4,1510.3,251.5,1510,251.7z"/>
		</g>
	</g>
</g>
</svg>
