
<svg version="1.1" xmlns="http://www.w3.org/2000/svg" xmlns:xlink="http://www.w3.org/1999/xlink" x="0px" y="0px"
	 viewBox="0 0 247 171.9" style="enable-background:new 0 0 247 171.9;" xml:space="preserve">
<style type="text/css">
	.st0{fill:#FFEA92;}
	.st1{fill:#B7A497;}
	.st2{fill:#8E4A1B;}
	.st3{fill:#FFFFFF;}
	.st4{fill:#D17633;}
	.st5{fill:#FF9843;}
	.st6{fill:#9B2C2C;}
	.st7{fill:#333333;}
	.st8{fill:#FFD7E2;}
	.st9{fill:#225B10;}
	.st10{fill:#FF6C22;}
</style>
<g>
	<g>
		<path d="M247,76.1c0-15.5-7.8-29.5-18.6-40.2C215.1,22.7,197.8,14,180.1,8.4c-21.4-6.8-44.3-9.3-66.8-8.2
			c-21.5,1.1-43,5.5-62.7,14.4c-15.7,7-30.9,17.2-40.8,31.6c-8.5,12.3-12,27.4-8.3,42c4,15.6,15.3,28.2,28.1,37.4
			c16.1,11.6,35.2,18.7,54.5,22.7c11.1,2.3,22.5,3.6,33.8,3.9c4.9,0.1,9.8,0,14.7-0.2c2.1-0.1,4.2-0.2,6.2-0.3c0.2,0,3,0,3-0.2
			c-0.1,0.5-0.5-0.4-0.4,0c0,0.1,0.4,0.3,0.5,0.4c0.4,0.3,0.7,0.5,1.1,0.8c0.9,0.6,1.7,1.1,2.6,1.6c1.8,1.1,3.8,2.1,5.7,3
			c4.4,2.1,8.9,3.8,13.4,5.3c9.4,3.2,19.1,5.7,28.9,7.5c4,0.7,7.9,1.3,11.9,1.7c1.5,0.1,2-2.1,0.8-2.8c-5.8-3.3-11.3-7.3-16.4-11.7
			c-2.6-2.3-5.2-4.7-7.4-7.4c-1.8-2.1-3.5-4.5-4.3-7.1c-0.3,0.6-0.7,1.2-1,1.8c14.8-4.4,29.2-10.9,41.6-20.1
			c10.2-7.6,19.2-17.3,24.2-29.1C245.6,89.2,246.9,82.7,247,76.1c0-1.9-3-1.9-3,0c0,11.5-4.6,22.4-11.7,31.4
			c-8.3,10.5-19.5,18.5-31.4,24.6c-7.8,4-16.1,7.2-24.5,9.7c-0.8,0.2-1.3,1.1-1,1.8c1.4,4.8,5.1,8.8,8.5,12.2
			c4.2,4.2,8.9,7.8,13.8,11.2c2.3,1.6,4.7,3.2,7.2,4.6c0.3-0.9,0.5-1.9,0.8-2.8c-8.8-0.8-17.5-2.7-26.1-4.9
			c-9.3-2.4-18.6-5.3-27.3-9.5c-1.9-0.9-3.7-1.9-5.5-2.9c-0.8-0.4-1.5-0.9-2.2-1.4c-0.8-0.5-1.7-1.5-2.7-1.6
			c-0.8-0.1-1.7,0.1-2.6,0.1c-1.9,0.1-3.8,0.2-5.7,0.3c-10.4,0.4-20.8,0.3-31.2-0.8c-20.3-2.2-40.6-7.5-58.6-17.2
			c-14.3-7.7-27.8-18.4-35.4-33C1.9,85.4,1.2,70.6,6.9,57.5c6.5-14.8,19.2-26,32.9-34c17.3-10.2,37-16,56.8-18.8
			c22.3-3.1,45.3-2.4,67.3,2.4c18.7,4.1,37.2,11.1,52.8,22.6c12.1,9,22.7,21.2,26.2,36.2c0.8,3.3,1.1,6.7,1.1,10.1
			C244,78,247,78,247,76.1z"/>
	</g>
</g>
</svg>
