<?xml version="1.0" encoding="utf-8"?>
<!-- Generator: Adobe Illustrator 27.0.0, SVG Export Plug-In . SVG Version: 6.00 Build 0)  -->
<svg version="1.1" id="Layer_1" xmlns="http://www.w3.org/2000/svg" xmlns:xlink="http://www.w3.org/1999/xlink" x="0px" y="0px"
	 viewBox="0 0 247 171.9" style="enable-background:new 0 0 247 171.9;" xml:space="preserve">
<style type="text/css">
	.st0{fill:#FFFFFF;}
</style>
<g>
	<g>
		<g>
			<path class="st0" d="M245.5,76.2c0-41.2-54.6-74.7-122-74.7S1.5,34.9,1.5,76.2s54.6,74.7,122,74.7c6.4,0,18.5-0.7,18.5-0.7
				c13.8,10.5,46.5,18.6,63.7,20.3c-9.1-5.1-26.2-17.9-28.8-27.1C217.5,131.2,245.5,105.7,245.5,76.2z"/>
			<g>
				<path d="M247,76.2c0-15.5-7.8-29.5-18.6-40.2c-13.3-13.2-30.6-21.9-48.3-27.5c-21.4-6.8-44.3-9.3-66.8-8.2
					c-21.5,1.1-43,5.5-62.7,14.4c-15.7,7-30.8,17.2-40.8,31.6c-8.5,12.3-12,27.4-8.3,42c4,15.6,15.3,28.2,28.1,37.4
					c16.1,11.6,35.2,18.7,54.5,22.7c11.1,2.3,22.5,3.6,33.8,3.9c4.9,0.1,9.8,0,14.7-0.2c2.1-0.1,4.2-0.2,6.2-0.3c0.2,0,3,0,3-0.2
					c-0.1,0.5-0.5-0.4-0.4,0c0,0.1,0.4,0.3,0.5,0.4c0.4,0.3,0.7,0.5,1.1,0.8c0.9,0.6,1.7,1.1,2.6,1.6c1.8,1.1,3.8,2.1,5.7,3
					c4.4,2.1,8.9,3.8,13.4,5.3c9.4,3.2,19.1,5.7,28.9,7.5c4,0.7,7.9,1.3,11.9,1.7c1.5,0.1,2-2.1,0.8-2.8
					c-5.8-3.3-11.3-7.3-16.4-11.7c-2.6-2.3-5.2-4.7-7.4-7.4c-1.8-2.1-3.5-4.5-4.3-7.1c-0.3,0.6-0.7,1.2-1,1.8
					c14.8-4.4,29.2-10.9,41.6-20.1C229,117,238,107.3,243,95.4C245.6,89.3,247,82.8,247,76.2c0-1.9-3-1.9-3,0
					c0,11.5-4.6,22.4-11.7,31.4c-8.3,10.5-19.5,18.5-31.4,24.6c-7.8,4-16.1,7.2-24.5,9.7c-0.8,0.2-1.3,1.1-1,1.8
					c1.4,4.8,5.1,8.8,8.5,12.2c4.2,4.2,8.9,7.8,13.8,11.2c2.3,1.6,4.7,3.2,7.2,4.6c0.3-0.9,0.5-1.9,0.8-2.8
					c-8.8-0.8-17.5-2.7-26.1-4.9c-9.3-2.4-18.6-5.3-27.3-9.5c-1.9-0.9-3.7-1.9-5.5-2.9c-0.8-0.4-1.5-0.9-2.2-1.4
					c-0.8-0.5-1.7-1.5-2.7-1.6c-0.8-0.1-1.7,0.1-2.6,0.1c-1.9,0.1-3.8,0.2-5.7,0.3c-10.4,0.4-20.8,0.3-31.2-0.8
					c-20.3-2.2-40.6-7.5-58.6-17.2C29.5,123.3,16,112.6,8.4,98C1.9,85.5,1.2,70.7,6.9,57.6c6.5-14.8,19.2-26,32.9-34
					c17.3-10.2,37-16,56.8-18.8C118.9,1.7,142,2.4,164,7.2c18.7,4.1,37.2,11.1,52.8,22.6c12.1,9,22.7,21.2,26.2,36.2
					c0.8,3.3,1.1,6.7,1.1,10.1C244,78.1,247,78.1,247,76.2z"/>
			</g>
		</g>
	</g>
</g>
<g>
	<path d="M41.9,87.6H72c1.6,0,2.4,0.7,2.4,2.2s-0.8,2.3-2.4,2.3H60.5v11.2c0,1.6-0.8,2.4-2.3,2.4s-2.3-0.8-2.3-2.4V92.1h-14
		c-1.5,0-2.2-0.8-2.2-2.3C39.6,88.3,40.4,87.6,41.9,87.6z M59.7,54.7V61h8.8c1.6,0,2.4,0.7,2.4,2.2c0,1.5-0.8,2.2-2.4,2.2H46.2
		c-1.6,0-2.4-0.7-2.4-2.2c0-1.4,0.8-2.2,2.4-2.2h8.9v-6.3c0-1.6,0.8-2.4,2.3-2.4C59,52.3,59.7,53.1,59.7,54.7z M66.2,75.6
		c0,2.4-0.8,4.3-2.5,5.9c-1.7,1.6-3.8,2.3-6.2,2.3s-4.6-0.8-6.2-2.3c-1.7-1.6-2.5-3.5-2.5-5.9s0.8-4.3,2.5-5.9s3.8-2.3,6.2-2.3
		s4.6,0.8,6.2,2.3C65.3,71.3,66.2,73.3,66.2,75.6z M61.6,75.6c0-1.1-0.4-2-1.2-2.8c-0.8-0.7-1.8-1.1-3-1.1s-2.2,0.4-3,1.1
		s-1.2,1.7-1.2,2.8c0,1.1,0.4,2.1,1.2,2.8c0.8,0.7,1.8,1.1,3,1.1s2.2-0.4,3-1.1C61.2,77.7,61.6,76.7,61.6,75.6z"/>
	<path d="M104.6,76.1c1.6,0,2.4,0.7,2.4,2.2s-0.8,2.2-2.4,2.2h-8.3v5.9c0,1.6-0.8,2.4-2.3,2.4s-2.3-0.8-2.3-2.4v-5.9H84
		c-1.6,0-2.4-0.7-2.4-2.2c0-1.4,0.8-2.2,2.4-2.2H104.6z M102.9,65.1c0,2.4-0.9,4.3-2.6,5.9s-3.8,2.4-6.4,2.4s-4.6-0.8-6.4-2.4
		c-1.7-1.6-2.6-3.5-2.6-5.9s0.9-4.3,2.6-5.9s3.8-2.4,6.4-2.4s4.6,0.8,6.4,2.4C102,60.8,102.9,62.8,102.9,65.1z M98.4,65.1
		c0-1.2-0.4-2.1-1.2-2.9c-0.8-0.8-1.9-1.1-3.2-1.1s-2.4,0.4-3.2,1.1C90,63,89.6,64,89.6,65.1c0,1.2,0.4,2.1,1.2,2.9
		c0.8,0.8,1.9,1.1,3.2,1.1s2.4-0.4,3.2-1.1C98,67.2,98.4,66.3,98.4,65.1z M113.6,102.5l-16.4,0.4c-2.1,0.1-3.1-0.9-3.2-2.9l-0.2-7.1
		c0-1.6,0.7-2.4,2.3-2.5c1.6,0,2.4,0.7,2.4,2.3l0.1,5.7l14.8-0.2c1.5,0,2.3,0.7,2.3,2.1C115.8,101.7,115,102.5,113.6,102.5z
		 M103.7,83.2h7.8l-0.3-21.4c0-1.6,0.7-2.4,2.3-2.4c1.6,0,2.3,0.8,2.3,2.3l0.4,27.5c0,1.6-0.8,2.5-2.3,2.5c-1.6,0-2.3-0.8-2.3-2.3
		v-1.9h-7.9c-1.6,0-2.4-0.7-2.4-2.2C101.3,83.9,102.1,83.2,103.7,83.2z"/>
	<path d="M138.9,61.6v8h6c1.6,0,2.4,0.7,2.4,2.2s-0.8,2.2-2.4,2.2h-17.6c-1.6,0-2.4-0.7-2.4-2.2c0-1.4,0.8-2.2,2.4-2.2h6.9v-8
		c0-1.6,0.8-2.4,2.3-2.4C138.2,59.2,138.9,60,138.9,61.6z M145.4,85.9c0,2.5-0.9,4.6-2.6,6.3c-1.7,1.7-3.9,2.5-6.4,2.5
		c-2.6,0-4.7-0.8-6.4-2.5s-2.6-3.8-2.6-6.3s0.9-4.6,2.6-6.3c1.7-1.7,3.9-2.5,6.4-2.5c2.6,0,4.7,0.8,6.4,2.5
		C144.6,81.3,145.4,83.4,145.4,85.9z M140.9,86c0-1.3-0.4-2.4-1.3-3.2c-0.9-0.8-1.9-1.3-3.1-1.3c-1.2,0-2.3,0.4-3.2,1.3
		c-0.9,0.8-1.3,1.9-1.3,3.2c0,1.3,0.4,2.4,1.3,3.2c0.9,0.8,1.9,1.2,3.2,1.2c1.2,0,2.3-0.4,3.1-1.2S140.9,87.3,140.9,86z M153.5,89.5
		V67.8c0-1.6,0.8-2.4,2.3-2.4c1.6,0,2.3,0.8,2.3,2.4v7h6.7c1.6,0,2.4,0.7,2.4,2.2s-0.8,2.3-2.4,2.3h-6.7v10.3c0,1.6-0.8,2.4-2.3,2.4
		C154.3,91.9,153.5,91.1,153.5,89.5z"/>
	<path d="M175.7,70.6l12.6,0.2c2.4,0,3.4,1.4,3.1,4l-2.3,16.9c-0.2,1.5-1.1,2.2-2.6,2c-1.6-0.2-2.3-1.1-2-2.6l2.1-15.8l-11-0.2
		c-1.6,0-2.4-0.8-2.3-2.3C173.2,71.3,174.1,70.6,175.7,70.6z M207,68.6l0.4,23c0,1.6-0.7,2.4-2.3,2.5c-1.5,0-2.3-0.7-2.3-2.3
		l-0.4-23.1c0-1.6,0.7-2.4,2.3-2.4C206.2,66.3,207,67,207,68.6z"/>
</g>
</svg>
