
<svg version="1.1" xmlns="http://www.w3.org/2000/svg" xmlns:xlink="http://www.w3.org/1999/xlink" x="0px" y="0px"
	 viewBox="0 0 301.6 212.1" style="enable-background:new 0 0 301.6 212.1;" xml:space="preserve">
<style type="text/css">
	.st0{fill:#FFEA92;}
	.st1{fill:#B7A497;}
	.st2{fill:#8E4A1B;}
	.st3{fill:#FFFFFF;}
	.st4{fill:#D17633;}
	.st5{fill:#FF9843;}
	.st6{fill:#9B2C2C;}
	.st7{fill:#333333;}
	.st8{fill:#FFD7E2;}
	.st9{fill:#225B10;}
	.st10{fill:#FF6C22;}
</style>
<g>
	<g>
		<g>
			<path class="st2" d="M11.6,62.8h0.3c48-17.5,86.7-31.2,136.4-44.1c-0.3-0.1,141.8,38,141.7,37.7v1.1c-42,17-85.1,31.4-128.8,43.1
				C161.3,100.7,61.5,77,11.6,62.8z"/>
		</g>
		<g>
			<g>
				<path d="M11.6,63.8c0.9,0,1.9-0.5,2.7-0.8c1.2-0.4,2.3-0.9,3.5-1.3c2.3-0.8,4.6-1.7,6.9-2.5c4.5-1.6,9-3.3,13.6-4.9
					c8.7-3.1,17.5-6.2,26.3-9.2C82,39.2,99.4,33.5,117,28.4c10.5-3.1,21.1-6,31.7-8.7c1.7-0.4,1.3-2.9-0.4-2.9l0,0
					c-1.8-0.1-1.9,2.3-0.4,2.9c1.2,0.5,2.6,0.7,3.9,1c3.4,0.9,6.9,1.8,10.3,2.8c11.3,3,22.7,6.1,34,9.1c13.6,3.6,27.3,7.3,40.9,10.9
					c11.8,3.1,23.5,6.3,35.3,9.4c5.6,1.5,11.3,3.3,17.1,4.4c0.3,0.1,0.7,0.2,1,0c0.7-0.3,1-0.7,1.1-1.4l0,0c0.2-1.9-2.8-1.9-3,0l0,0
					c0.4-0.5,0.7-1,1.1-1.4c0.3-0.1,1.1,0.1,0.5-0.1c-0.3-0.1-0.5-0.1-0.8-0.2c-1-0.2-1.9-0.5-2.9-0.7c-3.5-0.9-7-1.8-10.4-2.7
					c-11.3-3-22.6-6-33.9-9c-13.6-3.6-27.2-7.2-40.8-10.9c-11.7-3.1-23.5-6.3-35.2-9.4c-3.9-1-7.7-2.1-11.6-3.1
					c-1.8-0.5-3.7-1.2-5.5-1.5c-0.1,0-0.2,0-0.2-0.1c-0.1,1-0.3,2-0.4,2.9l0,0c-0.1-1-0.3-2-0.4-2.9c-18.3,4.7-36.4,10-54.4,15.6
					c-17.5,5.6-34.8,11.5-52,17.7c-5,1.8-9.9,3.6-14.9,5.4c-2.5,0.9-5.1,1.8-7.6,2.8c-1.3,0.5-2.7,1-4,1.5c-0.6,0.2-1.2,0.4-1.8,0.6
					c-0.4,0.2-1.2,0.6-1.7,0.6C9.7,60.8,9.7,63.8,11.6,63.8L11.6,63.8z"/>
			</g>
		</g>
	</g>
	<g>
		<g>
			<path class="st4" d="M161.6,212c38-17.5,76.1-34.9,114.1-52.4c0.6-3.1,1.1-6.3,1.6-9.4c5.3-30.6,9.6-61.4,13.1-92.3
				c-42.6,17.2-86.1,31.8-130.4,43.7"/>
		</g>
		<g>
			<path class="st5" d="M161.2,99.7c-49.9-11.3-99.6-24-148.8-38c6,37,11.4,74.1,16.1,111.3c5.5,1.9,10.9,3.8,16.4,5.7
				c38.7,13,78.1,23.3,117.8,31.5"/>
		</g>
		<g>
			<g>
				<path d="M10.7,63.8c4.6,28.4,8.9,56.9,12.7,85.5c1.1,8,2.1,16.1,3.1,24.1c0.2,1.9,3.2,1.9,3,0c-3.6-28.8-7.6-57.5-12.1-86.1
					c-1.2-8.1-2.5-16.2-3.8-24.2C13.3,61.1,10.4,62,10.7,63.8L10.7,63.8z"/>
			</g>
		</g>
		<g>
			<g>
				<path d="M160.7,100.1c0,28.7,0.1,57.3,0.1,86c0,8.2,0,16.3,0,24.5c0,1.9,3,1.9,3,0c0-28.7-0.1-57.3-0.1-86c0-8.2,0-16.3,0-24.5
					C163.7,98.2,160.7,98.2,160.7,100.1L160.7,100.1z"/>
			</g>
		</g>
		<g>
			<g>
				<path d="M289.5,56.8c-3,26.4-6.6,52.7-10.9,78.9c-1.2,7.3-2.4,14.6-3.7,21.9c-0.3,1.9,2.6,2.7,2.9,0.8c4.7-26.2,8.7-52.6,12-79
					c1-7.5,1.9-15,2.7-22.6C292.8,54.9,289.8,54.9,289.5,56.8L289.5,56.8z"/>
			</g>
		</g>
		<g>
			<g>
				<path d="M163.8,211.5c29.6-13.6,59.2-27.2,88.9-40.8c8.3-3.8,16.6-7.6,24.9-11.4c1.8-0.8,0.2-3.4-1.5-2.6
					c-29.6,13.6-59.2,27.2-88.9,40.8c-8.3,3.8-16.6,7.6-24.9,11.4C160.5,209.7,162,212.3,163.8,211.5L163.8,211.5z"/>
			</g>
		</g>
		<g>
			<g>
				<path d="M161.9,209c-24-4.6-47.8-10.2-71.3-17c-5.7-1.7-11.5-3.3-17.1-5.2c-2.8-1-5.6-2.1-8.5-3.2c-5.6-2-11.3-4-16.9-6
					c-5.9-2.1-11.8-4-17.6-6.3c-1.8-0.7-2.6,2.2-0.8,2.9c4.9,2,10,3.6,15,5.4c6.1,2.1,12.1,4.3,18.2,6.4c2,0.7,4,1.5,6,2.2
					c5.5,2.1,11.1,3.7,16.7,5.4c11.6,3.5,23.4,6.7,35.2,9.5c13.4,3.3,26.8,6.2,40.3,8.7C163,212.2,163.8,209.4,161.9,209L161.9,209z
					"/>
			</g>
		</g>
		<g>
			<g>
				<path d="M288.5,56c0,0.4,0,0.7,0,1.1c0.4-0.5,0.7-1,1.1-1.4c-26.1,10.5-52.5,20.1-79.3,28.6c-13.5,4.3-27,8.3-40.6,12.1
					c-1.6,0.4-3.1,0.9-4.7,1.3c-0.9,0.2-1.7,0.5-2.6,0.7c0,0-1.6,0.5-0.8,0.4c-0.1,0-0.4-0.1-0.5-0.1c-1-0.2-2.1-0.5-3.1-0.7
					c-11.4-2.7-22.8-5.5-34.2-8.3c-17.9-4.4-35.8-8.8-53.7-13.3c-17.6-4.5-35.3-9-52.8-13.9c-1.8-0.5-3.5-1-5.3-1.5
					c-1.9-0.5-2.7,2.4-0.8,2.9c17.1,4.9,34.3,9.3,51.5,13.7c18.2,4.7,36.5,9.2,54.8,13.7c12.5,3.1,25,6.1,37.5,9.1
					c1.9,0.5,3.9,1.1,5.8,1.4c1.3,0.2,2.9-0.6,4.2-0.9c1.8-0.5,3.6-1,5.4-1.5c3.4-0.9,6.7-1.9,10.1-2.8c6.8-2,13.6-4,20.3-6.1
					c27-8.3,53.6-17.6,79.8-28c3.3-1.3,6.5-2.6,9.7-3.9c0.6-0.3,1.1-0.7,1.1-1.4c0-0.4,0-0.7,0-1.1C291.5,54,288.5,54,288.5,56
					L288.5,56z"/>
			</g>
		</g>
	</g>
	<g>
		<g>
			<path class="st5" d="M6.9,72.2c4.7,1.7,47.9,15.9,52.6,17.5c0,0,4.3,1.5,7.7,2.7c2.4,0.7,4.9,1.5,7.3,2.2
				c28.6,8.3,57.7,14.9,87.1,20.1l0.7,0.3c0-7.5-0.2-19.1,0-31.7l-1,0.1c0,0-106.6-23.7-159.9-37.9L2,46.7C2.3,50,4.5,62.5,5.8,71.4
				"/>
		</g>
		<g>
			<g>
				<path class="st4" d="M1.5,46h0.3C53.1,28.5,94.5,14.8,147.6,1.9c-0.3-0.1,151.6,38,151.4,37.7v1.1
					c-44.9,17-90.9,31.4-137.6,43.1C161.4,83.8,54.7,60.2,1.5,46z"/>
			</g>
			<g>
				<g>
					<path d="M1.5,47c1,0,2-0.5,2.9-0.8c1.3-0.4,2.5-0.9,3.8-1.3c2.5-0.8,5-1.7,7.5-2.5c4.8-1.6,9.6-3.2,14.3-4.8
						c9.3-3.1,18.7-6.2,28-9.2c18.6-6,37.3-11.6,56.2-16.7c11.2-3.1,22.5-6,33.8-8.7c1.7-0.4,1.3-2.9-0.4-2.9l0,0
						c-1.8,0-1.9,2.4-0.4,2.9c1.3,0.5,2.7,0.7,4.1,1c3.7,0.9,7.4,1.9,11.1,2.8c12.1,3,24.2,6,36.2,9.1c14.6,3.7,29.3,7.3,43.9,11
						c12.6,3.1,25.1,6.3,37.7,9.4c6,1.5,12.1,3.3,18.2,4.4c0.3,0.1,0.7,0.2,1,0c0.7-0.2,1-0.7,1.1-1.4l0,0c0.3-1.9-2.7-1.9-3,0l0,0
						c0.4-0.5,0.7-1,1.1-1.4c0.3-0.1,1.1,0.1,0.4-0.1c-0.3-0.1-0.6-0.1-0.8-0.2c-1-0.2-2.1-0.5-3.1-0.8c-3.7-0.9-7.5-1.8-11.2-2.8
						c-12.1-3-24.1-6-36.1-9c-14.5-3.6-29-7.2-43.5-10.8C191.6,11,179,7.8,166.5,4.7c-4.1-1-8.2-2.1-12.3-3.1
						c-1.9-0.5-3.9-1.3-5.9-1.5c-0.1,0-0.2,0-0.3-0.1c-0.1,1-0.3,2-0.4,2.9l0,0c-0.1-1-0.3-2-0.4-2.9c-19.6,4.8-39,10-58.3,15.7
						C70.4,21.2,52,27.1,33.8,33.2c-5.4,1.8-10.7,3.6-16.1,5.4c-2.7,0.9-5.5,1.9-8.2,2.8c-1.4,0.5-2.9,1-4.3,1.5
						c-0.6,0.2-1.3,0.4-1.9,0.6C2.8,43.6,2,44.1,1.5,44C-0.5,44-0.5,47,1.5,47L1.5,47z"/>
				</g>
			</g>
		</g>
		<g>
			<path class="st4" d="M300.2,40.8c-0.5,5.6-2.2,18.4-3.2,24.7c-40.5,17.4-92.8,32.9-133.3,50.3h-1.2c0-7.5-0.2-19.1,0-31.7
				L299.1,40L300.2,40.8z"/>
		</g>
		<g>
			<g>
				<path d="M0.5,46.6C1.4,55,3.2,63.4,4.3,71.8c0.1,0.8,1.1,1.2,1.8,1c0.9-0.2,1.2-1,1-1.8C6.6,66.2,5.8,61.5,5,56.7
					C4.5,53.4,3.8,50,3.5,46.6C3.3,44.7,0.3,44.7,0.5,46.6L0.5,46.6z"/>
			</g>
		</g>
		<g>
			<g>
				<path d="M160.9,83.3c-0.2,10.6,0,21.1,0,31.7c0,1.9,3,1.9,3,0c0-10.6-0.2-21.1,0-31.7C163.9,81.4,160.9,81.4,160.9,83.3
					L160.9,83.3z"/>
			</g>
		</g>
		<g>
			<g>
				<path d="M298.6,40c-0.8,8.1-1.8,16.3-3.1,24.3c-0.3,1.9,2.6,2.7,2.9,0.8c1.4-8.3,2.4-16.7,3.2-25.1
					C301.8,38,298.8,38.1,298.6,40L298.6,40z"/>
			</g>
		</g>
		<g>
			<g>
				<path d="M164.3,116.3c16.9-7.2,34.1-13.5,51.4-19.7c17.9-6.4,35.9-12.6,53.7-19.3c9.5-3.6,18.9-7.3,28.2-11.3
					c1.8-0.8,0.2-3.3-1.5-2.6c-16.9,7.2-34.1,13.5-51.4,19.7c-17.9,6.4-35.9,12.6-53.7,19.3c-9.5,3.6-18.9,7.3-28.2,11.3
					C161,114.4,162.6,117,164.3,116.3L164.3,116.3z"/>
			</g>
		</g>
		<g>
			<g>
				<path d="M162.1,113.2c-31.2-5.6-62.2-12.7-92.6-21.7c-6.2-1.8-12.3-4.2-18.4-6.2c-8.1-2.7-16.2-5.4-24.3-8.1
					c-6.5-2.1-13-4.1-19.4-6.5c-1.8-0.7-2.6,2.2-0.8,2.9c5.4,2,10.9,3.7,16.4,5.5c8.3,2.7,16.5,5.5,24.8,8.2
					c5.4,1.8,10.8,3.6,16.1,5.5c7.2,2.5,14.7,4.5,22.1,6.5c7.7,2.1,15.3,4.1,23.1,5.9c17.3,4.2,34.8,7.8,52.4,10.9
					C163.2,116.5,164,113.6,162.1,113.2L162.1,113.2z"/>
			</g>
		</g>
		<g>
			<g>
				<path d="M1.1,47c11.3,3,22.6,5.8,33.9,8.6c12.9,3.2,25.8,6.3,38.7,9.3c12.5,2.9,25.1,5.9,37.6,8.7c10.1,2.3,20.3,4.6,30.5,6.9
					c5.8,1.3,11.5,2.6,17.3,3.9c0.5,0.1,1.1,0.2,1.6,0.4c0.9,0.2,1.8-0.1,2.7-0.3c5.4-1.4,10.7-2.9,16.1-4.4
					c12.4-3.6,24.7-7.4,37-11.3c12.4-4,24.8-8.1,37.1-12.2c10-3.4,19.9-6.8,29.9-10.3c5.1-1.8,10.2-3.6,15.3-5.4
					c0.2-0.1,0.5-0.2,0.7-0.2c1.8-0.6,1-3.5-0.8-2.9c-3.5,1.3-7,2.5-10.5,3.7c-9,3.1-17.9,6.2-26.9,9.3c-11.9,4.1-23.8,8.1-35.8,12
					c-12.5,4.1-25.1,8.1-37.7,11.8c-5.7,1.7-11.4,3.3-17.1,4.9c-2.6,0.7-5.2,1.4-7.8,2.1c-0.3,0.1-0.6,0.1-0.9,0.2
					c-0.5,0.1-0.8,0.1-0.1,0.2c0,0,0,0-0.1,0s-0.2-0.1-0.4-0.1c-4.5-1.1-9-2-13.4-3c-9.3-2.1-18.5-4.2-27.8-6.3
					C108,69.8,95.8,67,83.7,64.2c-13-3-25.9-6.1-38.8-9.2C33,52.1,21.2,49.1,9.4,46.1c-2.5-0.7-5-1.3-7.6-2C0,43.6-0.8,46.5,1.1,47
					L1.1,47z"/>
			</g>
		</g>
	</g>
	<g>
		<g>
			<path class="st9" d="M129.8,47.4c-4.4-1.2-9.1-2.3-13.4-0.9c-4.5,1.4-8.3,5.5-13,5c-3.3-0.3-6.1-3.1-6.5-6.4
				c-0.4-3.2,1.8-6.6,4.9-7.6c0.8-0.3,1.6-0.4,2.3-0.9c2.7-2-0.4-6.4,0.7-9.6c1-2.9,4.9-3.3,8-2.8c0.9,0.2,1.9,0.3,2.7-0.1
				c0.8-0.4,1.2-1.3,1.7-2.1c1.8-2.6,5.9-3,8.5-1.3c2.7,1.7,3.9,5.1,3.8,8.3c-0.1,2-0.7,4.1-0.3,6.1s2.6,3.9,4.4,3"/>
		</g>
		<g>
			<path class="st10" d="M140.7,32.5c-4.7,4.3-8.2,10-9.8,16.1c-0.7,2.4-1,5-0.5,7.5c0.9,4.5,4.7,8.1,8.9,9.9s8.9,2.3,13.5,2.7
				c17.9,1.6,35.8,3.1,53.6,4.7c6,0.5,13.2,0.5,16.4-4.6c0.6-0.9,0.9-1.9,0.8-2.9c-0.2-1.4-1.4-2.4-2.6-3.3
				c-23.3-17.8-51.9-28.5-81.2-30.4"/>
		</g>
		<g>
			<g>
				<path d="M129.8,45.9c-4-1.1-8.2-2.1-12.4-1.4c-3.6,0.6-6.5,2.8-9.7,4.4c-3,1.4-6.5,1.5-8.6-1.4c-2-2.7-1-6.5,1.8-8.2
					c1.5-0.9,3.2-0.8,4.4-2.2c1-1.1,1.1-2.6,1-4c-0.3-2.4-1.9-6,1.1-7.3c1.3-0.5,2.8-0.5,4.2-0.4c1.8,0.2,3.6,0.6,5-0.8
					c1.1-1.1,1.4-2.5,2.9-3.1c1.3-0.6,3-0.5,4.3,0.1c1.7,0.8,2.8,2.4,3.3,4.1c0.6,2.1,0.3,4.1,0,6.3c-0.2,2.1-0.1,4.3,1.4,5.9
					c1.2,1.4,3.1,2.2,4.9,1.5c1.8-0.7,1-3.6-0.8-2.9c-2,0.8-2.7-2-2.6-3.4c0.1-2.2,0.7-4.3,0.3-6.5c-0.5-3.5-2.6-6.9-6.1-8.2
					c-3.2-1.1-6.9-0.2-8.9,2.6c-0.4,0.6-0.7,1.5-1.5,1.6c-0.9,0.1-2-0.3-2.8-0.3c-1.5-0.1-3.2,0-4.6,0.6c-1.5,0.6-2.7,1.6-3.4,3
					c-0.7,1.5-0.5,3.1-0.2,4.7c0.2,1.1,0.9,3.1,0.3,4.2c-0.4,0.7-1.4,0.8-2.2,1c-0.9,0.3-1.7,0.7-2.5,1.3c-2.8,2.1-4.3,5.9-3.2,9.3
					c1,3.4,4.1,5.9,7.7,6.3c4.3,0.4,7.9-2.5,11.5-4.3c4.7-2.3,9.7-1.1,14.5,0.2C130.9,49.2,131.7,46.4,129.8,45.9L129.8,45.9z"/>
			</g>
		</g>
		<g>
			<g>
				<path d="M139.6,31.5c-5.2,4.8-9.2,11.4-10.6,18.4c-0.8,3.7-0.5,7.4,1.4,10.7c1.7,2.8,4.3,5,7.2,6.4c3.4,1.7,7.1,2.4,10.9,2.8
					c4.2,0.5,8.5,0.8,12.7,1.2c8.8,0.8,17.6,1.5,26.3,2.3c4.3,0.4,8.6,0.8,12.9,1.1c3.7,0.3,7.4,0.8,11,0.7c3-0.1,6.1-0.5,8.8-2
					c2.5-1.4,5.1-4.2,4.8-7.3c-0.2-1.7-1.3-3-2.6-4c-1.4-1.1-2.9-2.2-4.3-3.2c-3.1-2.2-6.2-4.3-9.4-6.2c-6.4-3.9-13-7.2-19.9-10.1
					c-13.8-5.8-28.5-9.6-43.5-11.1c-1.8-0.2-3.7-0.3-5.5-0.5c-1.9-0.1-1.9,2.9,0,3c27.7,1.8,54.8,11.6,77.4,27.9
					c1.2,0.9,2.5,1.7,3.6,2.7c1.4,1.2,1.6,2.4,0.5,4c-1.5,2.1-4.1,3.1-6.6,3.5c-2.7,0.5-5.6,0.3-8.3,0.1c-4.1-0.4-8.3-0.7-12.4-1.1
					c-7.9-0.7-15.9-1.4-23.8-2.1c-4.1-0.4-8.1-0.7-12.2-1.1c-3.8-0.3-7.7-0.5-11.5-1.2c-6.7-1.1-14.9-4.8-14.9-12.7
					c0-3.8,1.5-7.8,3.2-11.2c1.8-3.4,4.1-6.4,6.9-9C143.1,32.3,141,30.2,139.6,31.5L139.6,31.5z"/>
			</g>
		</g>
		<g>
			<g>
				<path d="M101.1,47.1c1,0.2,2,0.3,3.1,0.5c0.2,0.1,0.4,0.1,0.6,0c0.2,0,0.4-0.1,0.6-0.2c0.3-0.2,0.6-0.5,0.7-0.9s0.1-0.8-0.2-1.2
					c-0.2-0.3-0.5-0.6-0.9-0.7c-1-0.2-2-0.3-3.1-0.5c-0.2-0.1-0.4-0.1-0.6,0c-0.2,0-0.4,0.1-0.6,0.2c-0.3,0.2-0.6,0.5-0.7,0.9
					s-0.1,0.8,0.2,1.2C100.4,46.7,100.7,47,101.1,47.1L101.1,47.1z"/>
			</g>
		</g>
		<g>
			<g>
				<path d="M110.5,44.4c0.6-0.4,1.2-0.8,1.8-1.3c0.2-0.1,0.3-0.2,0.4-0.4c0.1-0.1,0.2-0.3,0.3-0.5c0.1-0.2,0.1-0.4,0-0.6
					c0-0.2-0.1-0.4-0.2-0.6c-0.2-0.3-0.5-0.6-0.9-0.7c-0.1,0-0.3,0-0.4-0.1c-0.3,0-0.5,0.1-0.8,0.2c-0.6,0.4-1.2,0.8-1.8,1.3
					c-0.2,0.1-0.3,0.2-0.4,0.4c-0.1,0.1-0.2,0.3-0.3,0.5c-0.1,0.2-0.1,0.4,0,0.6c0,0.2,0.1,0.4,0.2,0.6c0.2,0.3,0.5,0.6,0.9,0.7
					c0.1,0,0.3,0,0.4,0.1C110,44.6,110.3,44.5,110.5,44.4L110.5,44.4z"/>
			</g>
		</g>
		<g>
			<g>
				<path d="M117.9,40.5c0.8,0.1,1.5,0.3,2.3,0.4c0.2,0.1,0.4,0.1,0.6,0c0.2,0,0.4-0.1,0.6-0.2c0.3-0.2,0.6-0.5,0.7-0.9
					s0.1-0.8-0.2-1.2c-0.2-0.3-0.5-0.6-0.9-0.7c-0.8-0.1-1.5-0.3-2.3-0.4c-0.2-0.1-0.4-0.1-0.6,0c-0.2,0-0.4,0.1-0.6,0.2
					c-0.3,0.2-0.6,0.5-0.7,0.9s-0.1,0.8,0.2,1.2C117.2,40.1,117.5,40.4,117.9,40.5L117.9,40.5z"/>
			</g>
		</g>
		<g>
			<g>
				<path d="M125.3,42.5c0.5,0.3,1,0.7,1.6,1c0.2,0.1,0.4,0.2,0.6,0.2s0.4,0,0.6,0c0.2,0,0.4-0.1,0.5-0.3c0.2-0.1,0.3-0.2,0.4-0.4
					c0.2-0.3,0.3-0.8,0.2-1.2c-0.1-0.1-0.1-0.2-0.2-0.4c-0.1-0.2-0.3-0.4-0.5-0.5c-0.5-0.3-1-0.7-1.6-1c-0.2-0.1-0.4-0.2-0.6-0.2
					s-0.4,0-0.6,0s-0.4,0.1-0.5,0.3c-0.2,0.1-0.3,0.2-0.4,0.4c-0.2,0.3-0.3,0.8-0.2,1.2c0.1,0.1,0.1,0.2,0.2,0.4
					S125.1,42.4,125.3,42.5L125.3,42.5z"/>
			</g>
		</g>
		<g>
			<g>
				<path d="M133.4,52c0.2,0.6,0.5,1.1,0.8,1.6c0.1,0.2,0.2,0.3,0.4,0.4c0.1,0.1,0.3,0.2,0.5,0.3s0.4,0.1,0.6,0
					c0.2,0,0.4-0.1,0.6-0.2c0.1-0.1,0.2-0.2,0.3-0.2c0.2-0.2,0.3-0.4,0.4-0.7c0-0.1,0-0.3,0.1-0.4c0-0.3-0.1-0.5-0.2-0.8
					c-0.2-0.3-0.4-0.6-0.5-1c0.1,0.1,0.1,0.2,0.2,0.4c0-0.1-0.1-0.2-0.1-0.3c0-0.2-0.1-0.4-0.3-0.5c-0.1-0.2-0.2-0.3-0.4-0.4
					c-0.2-0.1-0.4-0.2-0.6-0.2c-0.2,0-0.4,0-0.6,0c-0.1,0.1-0.2,0.1-0.4,0.2c-0.2,0.1-0.4,0.3-0.5,0.5c-0.1,0.1-0.1,0.2-0.2,0.4
					C133.4,51.5,133.4,51.8,133.4,52L133.4,52z"/>
			</g>
		</g>
		<g>
			<g>
				<path d="M138.5,57c0.9,0.6,1.9,1,2.9,1.2c0.4,0.1,0.8,0.1,1.2-0.2c0.3-0.2,0.6-0.5,0.7-0.9c0.1-0.4,0.1-0.8-0.2-1.2
					c-0.2-0.3-0.5-0.6-0.9-0.7c-0.5-0.1-1-0.3-1.5-0.5c0.1,0.1,0.2,0.1,0.4,0.2c-0.4-0.2-0.7-0.4-1.1-0.6c-0.3-0.2-0.8-0.3-1.2-0.2
					c-0.3,0.1-0.7,0.4-0.9,0.7s-0.3,0.8-0.2,1.2C137.9,56.4,138.1,56.7,138.5,57L138.5,57z"/>
			</g>
		</g>
		<g>
			<g>
				<path d="M146.5,59.5c0.8,0.2,1.5,0.3,2.3,0.3c0.2,0,0.4,0,0.6-0.1c0.2-0.1,0.3-0.2,0.5-0.3c0.1-0.1,0.2-0.3,0.3-0.5
					s0.1-0.4,0.1-0.6c0-0.4-0.1-0.8-0.4-1.1c-0.3-0.3-0.7-0.4-1.1-0.4c-0.3,0-0.7,0-1-0.1c0.1,0,0.3,0,0.4,0.1
					c-0.3,0-0.6-0.1-0.9-0.2c-0.4-0.1-0.8,0-1.2,0.2c-0.2,0.1-0.3,0.2-0.4,0.4c-0.1,0.1-0.2,0.3-0.3,0.5c-0.1,0.4-0.1,0.8,0.2,1.2
					C145.8,59.1,146.1,59.4,146.5,59.5L146.5,59.5z"/>
			</g>
		</g>
		<g>
			<g>
				<path d="M154.5,61c1.7,0.3,3.3,0.5,5,0.5c0.8,0,1.5-0.7,1.5-1.5s-0.7-1.5-1.5-1.5c-1.1,0-2.1-0.1-3.2-0.2c0.1,0,0.3,0,0.4,0.1
					c-0.5-0.1-0.9-0.1-1.4-0.2c-0.4-0.1-0.8-0.1-1.2,0.2c-0.3,0.2-0.6,0.5-0.7,0.9C153.3,59.9,153.7,60.8,154.5,61L154.5,61z"/>
			</g>
		</g>
		<g>
			<g>
				<path d="M166.1,62c0.1,0,0.2,0,0.2,0c-0.1,0-0.3,0-0.4,0.1c1-0.1,1.9-0.1,2.9-0.1c0.4,0,0.8-0.2,1.1-0.4
					c0.3-0.3,0.5-0.7,0.4-1.1c0-0.4-0.1-0.8-0.4-1.1c-0.1-0.1-0.2-0.2-0.3-0.2c-0.2-0.1-0.5-0.2-0.8-0.2c-1.2-0.1-2.4,0-3.5,0.1
					c-0.3,0.1-0.7,0.4-0.9,0.7s-0.3,0.8-0.2,1.2s0.3,0.7,0.7,0.9c0.1,0.1,0.2,0.1,0.4,0.2C165.6,62.1,165.8,62.1,166.1,62L166.1,62z
					"/>
			</g>
		</g>
		<g>
			<g>
				<path d="M176,63c1.2,0.1,2.4,0.2,3.6,0.3c0.4,0,0.8-0.2,1.1-0.4c0.3-0.3,0.5-0.7,0.4-1.1c0-0.4-0.1-0.8-0.4-1.1
					c-0.3-0.3-0.6-0.4-1.1-0.4c-1.2-0.1-2.4-0.2-3.6-0.3c-0.4,0-0.8,0.2-1.1,0.4c-0.3,0.3-0.5,0.7-0.4,1.1c0,0.4,0.1,0.8,0.4,1.1
					C175.3,62.8,175.6,63,176,63L176,63z"/>
			</g>
		</g>
		<g>
			<g>
				<path d="M186.4,63.9c1,0.2,2,0.3,3.1,0.5c0.2,0.1,0.4,0.1,0.6,0c0.2,0,0.4-0.1,0.6-0.2c0.3-0.2,0.6-0.5,0.7-0.9
					c0.1-0.4,0.1-0.8-0.2-1.2c-0.2-0.3-0.5-0.6-0.9-0.7c-1-0.2-2-0.3-3.1-0.5c-0.2-0.1-0.4-0.1-0.6,0c-0.2,0-0.4,0.1-0.6,0.2
					c-0.3,0.2-0.6,0.5-0.7,0.9c-0.1,0.4-0.1,0.8,0.2,1.2C185.7,63.6,186.1,63.9,186.4,63.9L186.4,63.9z"/>
			</g>
		</g>
		<g>
			<g>
				<path d="M196.3,64.3c1,0.2,2,0.3,3.1,0.5c0.2,0.1,0.4,0.1,0.6,0c0.2,0,0.4-0.1,0.6-0.2c0.3-0.2,0.6-0.5,0.7-0.9
					c0.1-0.4,0.1-0.8-0.2-1.2c-0.2-0.3-0.5-0.6-0.9-0.7c-1-0.2-2-0.3-3.1-0.5c-0.2-0.1-0.4-0.1-0.6,0c-0.2,0-0.4,0.1-0.6,0.2
					c-0.3,0.2-0.6,0.5-0.7,0.9c-0.1,0.4-0.1,0.8,0.2,1.2C195.6,63.9,195.9,64.2,196.3,64.3L196.3,64.3z"/>
			</g>
		</g>
		<g>
			<g>
				<path d="M208.8,66.2c0.3-0.1,0.6-0.2,0.9-0.2c-0.1,0-0.3,0-0.4,0.1c0.4,0,0.8,0,1.1,0c-0.1,0-0.3,0-0.4-0.1
					c0.4,0.1,0.7,0.1,1.1,0.3c0.3,0.1,0.9,0,1.2-0.2s0.6-0.5,0.7-0.9c0.1-0.4,0.1-0.8-0.2-1.2c-0.1-0.1-0.2-0.2-0.2-0.3
					c-0.2-0.2-0.4-0.3-0.7-0.4c-0.6-0.3-1.3-0.4-2-0.4s-1.4,0.1-2,0.3c-0.4,0.1-0.7,0.3-0.9,0.7c-0.2,0.3-0.3,0.8-0.2,1.2
					s0.3,0.7,0.7,0.9C208,66.2,208.4,66.3,208.8,66.2L208.8,66.2z"/>
			</g>
		</g>
		<g>
			<g>
				<path d="M216.3,65.3c0.3,0.1,0.7,0.1,1,0.1s0.7,0,1-0.1c0.5-0.1,1.1-0.3,1.6-0.6c0.3-0.2,0.6-0.5,0.7-0.9
					c0.1-0.4,0.1-0.8-0.2-1.2c-0.2-0.3-0.5-0.6-0.9-0.7c-0.4-0.1-0.8,0-1.2,0.2c-0.1,0.1-0.2,0.1-0.3,0.2c0.1-0.1,0.2-0.1,0.4-0.2
					c-0.3,0.1-0.6,0.2-0.9,0.3c0.1,0,0.3,0,0.4-0.1c-0.3,0-0.7,0-1,0c0.1,0,0.3,0,0.4,0.1c-0.1,0-0.1,0-0.2,0
					c-0.2-0.1-0.4-0.1-0.6,0c-0.2,0-0.4,0.1-0.6,0.2c-0.3,0.2-0.6,0.5-0.7,0.9c-0.1,0.4-0.1,0.8,0.2,1.2
					C215.6,64.9,215.9,65.2,216.3,65.3L216.3,65.3z"/>
			</g>
		</g>
	</g>
</g>
</svg>
