
<svg version="1.1" xmlns="http://www.w3.org/2000/svg" xmlns:xlink="http://www.w3.org/1999/xlink" x="0px" y="0px"
	 viewBox="0 0 293.6 290.3" style="enable-background:new 0 0 293.6 290.3;" xml:space="preserve">
<style type="text/css">
	.st0{fill:#FFEA92;}
	.st1{fill:#B7A497;}
	.st2{fill:#8E4A1B;}
	.st3{fill:#FFFFFF;}
	.st4{fill:#D17633;}
	.st5{fill:#FF9843;}
	.st6{fill:#9B2C2C;}
	.st7{fill:#333333;}
	.st8{fill:#FFD7E2;}
	.st9{fill:#225B10;}
	.st10{fill:#FF6C22;}
</style>
<g>
	<g>
		<g>
			<path class="st2" d="M7.4,141.1h0.3c48-17.5,86.7-31.2,136.4-44.1c-0.3-0.1,141.8,38,141.7,37.7v1.1c-42,17-85.1,31.4-128.8,43.1
				C157,179,57.2,155.3,7.4,141.1z"/>
		</g>
		<g>
			<g>
				<path d="M7.4,142.1c0.9,0,1.9-0.5,2.7-0.8c1.2-0.4,2.3-0.9,3.5-1.3c2.3-0.8,4.6-1.7,6.9-2.5c4.5-1.6,9-3.3,13.6-4.9
					c8.7-3.1,17.5-6.2,26.3-9.2c17.4-5.9,34.8-11.6,52.4-16.7c10.5-3.1,21.1-6,31.7-8.7c1.7-0.4,1.3-2.9-0.4-2.9l0,0
					c-1.8-0.1-1.9,2.3-0.4,2.9c1.2,0.5,2.6,0.7,3.9,1c3.4,0.9,6.9,1.8,10.3,2.8c11.3,3,22.7,6.1,34,9.1c13.6,3.6,27.3,7.3,40.9,10.9
					c11.8,3.1,23.5,6.3,35.3,9.4c5.6,1.5,11.3,3.3,17.1,4.4c0.3,0.1,0.7,0.2,1,0c0.7-0.3,1-0.7,1.1-1.4l0,0c0.2-1.9-2.8-1.9-3,0l0,0
					c0.4-0.5,0.7-1,1.1-1.4c0.3-0.1,1.1,0.1,0.5-0.1c-0.3-0.1-0.5-0.1-0.8-0.2c-1-0.2-1.9-0.5-2.9-0.7c-3.5-0.9-7-1.8-10.4-2.7
					c-11.3-3-22.6-6-33.9-9c-13.6-3.6-27.2-7.2-40.8-10.9c-11.7-3.1-23.5-6.3-35.2-9.4c-3.9-1-7.7-2.1-11.6-3.1
					c-1.8-0.5-3.7-1.2-5.5-1.5c-0.1,0-0.2,0-0.2-0.1c-0.1,1-0.3,2-0.4,2.9l0,0c-0.1-1-0.3-2-0.4-2.9c-18.3,4.7-36.4,10-54.4,15.6
					c-17.4,5.5-34.7,11.4-51.9,17.5c-5,1.8-9.9,3.6-14.9,5.4c-2.5,0.9-5.1,1.8-7.6,2.8c-1.3,0.5-2.7,1-4,1.5
					c-0.6,0.2-1.2,0.4-1.8,0.6c-0.4,0.2-1.2,0.6-1.7,0.6C5.4,139.1,5.5,142.1,7.4,142.1L7.4,142.1z"/>
			</g>
		</g>
	</g>
	<g>
		<g>
			<g>
				<path class="st2" d="M2.8,52.8c46.6-2.3,93.2-5.1,139.7-8.4c50.3,7.7,100.1,17.8,149.3,30.3c-0.3,8.6-0.5,17.3-0.8,25.9
					c-9.8,0.4-111.3,0.6-121.2,0.8c-15.6-2.1-155.9-22-168.1-22.1c0-0.7,0-1.4,0-1.4s0-12.5,0-25C2.1,52.8,2.4,52.8,2.8,52.8z"/>
			</g>
		</g>
		<g>
			<g>
				<path d="M170.1,103.2c5-0.1,9.9-0.1,14.9-0.1c9.2-0.1,18.5-0.1,27.7-0.1c10.7,0,21.4-0.1,32.1-0.1c9.6,0,19.1-0.1,28.7-0.2
					c5.6,0,11.2-0.1,16.9-0.2c0.3,0,0.6,0,0.9,0c1.9-0.1,1.9-3.1,0-3c-5,0.2-9.9,0.2-14.9,0.2c-9.2,0.1-18.5,0.1-27.7,0.2
					c-10.7,0.1-21.4,0.1-32.1,0.2c-9.6,0-19.1,0.1-28.7,0.1c-5.6,0-11.2,0-16.9,0.1c-0.3,0-0.6,0-0.9,0
					C168.2,100.3,168.2,103.3,170.1,103.2L170.1,103.2z"/>
			</g>
		</g>
		<g>
			<g>
				<path d="M2.6,81.1c7.1,0.3,14.2,1.4,21.2,2.3c12.7,1.6,25.3,3.2,38,4.9c14.6,2,29.3,4,43.9,6c13.1,1.8,26.1,3.6,39.2,5.4
					c7.9,1.1,15.7,2.2,23.6,3.3c0.5,0.1,1.1,0.1,1.6,0.2c0.8,0.1,1.5-0.8,1.5-1.5c0-0.9-0.7-1.4-1.5-1.5c-0.4,0,0.4,0.1,0,0
					c-0.1,0-0.2,0-0.3,0c-0.3,0-0.5-0.1-0.8-0.1c-0.6-0.1-1.2-0.2-1.8-0.2c-1.6-0.2-3.1-0.4-4.7-0.6c-4.5-0.6-9-1.2-13.4-1.9
					c-12.7-1.8-25.4-3.5-38-5.3c-14.7-2-29.3-4-44-6c-13.1-1.8-26.2-3.6-39.4-5.2c-7.9-1-15.8-2.1-23.8-2.7c-0.4,0-0.9-0.1-1.3-0.1
					C0.6,78,0.6,81,2.6,81.1L2.6,81.1z"/>
			</g>
		</g>
	</g>
	<g>
		<g>
			<path class="st3" d="M91.1,63C72.2,67.6,54,75.3,37.5,85.6c-4.4,2.7-8.7,5.7-12,9.8c-3.2,4-5.3,9.3-4.5,14.4
				c0.8,5.3,4.6,9.7,9.2,12.4c4.6,2.6,10,3.6,15.3,3.8c12,0.4,24.1-2.9,34.1-9.4c3.4-2.2,6.5-4.7,8.9-8c2.2-3.1,3.5-6.7,4.5-10.4
				c3.1-11.4,3.1-23.5,0.2-34.9"/>
		</g>
		<g>
			<path class="st3" d="M205.3,73.2c-3.8,8-4.4,17-4.9,25.9c-0.6,10.1-1,20.7,3.7,29.6c3.6,6.7,9.9,11.7,16.8,15
				c9.6,4.5,20.6,5.9,31,3.9c7.6-1.5,15.4-5.3,18.4-12.3c2.6-6.1,1-13.1-1.7-19.1c-5.2-11.4-14.5-20.7-25.2-27.3s-24.7-12.5-37-15.5
				"/>
		</g>
		<g>
			<path class="st3" d="M130.7,54.5c-8.4,1.6-16.7,3.7-24.9,6.2c-4.3,1.3-8.5,2.7-12.5,4.6c2.7,11.2,2.6,23.1-0.4,34.3
				c-1,3.7-2.3,7.3-4.5,10.4c-2.3,3.3-5.5,5.8-8.9,8c-5.2,3.4-11,5.9-17,7.5c-0.4,16.8,4.1,32.6,16.3,43.6
				c9.7,8.8,22.9,12.5,35.8,15.3c10.9,2.3,21.8,4.1,32.9,5.4c8.2,0.9,16.5,1.6,24.6,0.2c8.2-1.4,15.8-4.8,23-9
				c13.9-8.1,26.2-19.6,33.3-34c-2.7-0.7-5.3-1.7-7.8-2.9c-6.9-3.2-13.2-8.2-16.8-15c-4.8-8.9-4.3-19.6-3.7-29.6
				c0.5-9.3,1.2-18.9,5.6-27.2c-21.2-15.4-48.7-22.2-74.6-17.9"/>
		</g>
		<g>
			<g>
				<path d="M61.1,125.2c-0.2,13,2.5,26.6,10.3,37.2c4,5.5,9.1,10,15,13.3c6,3.4,12.6,5.7,19.2,7.5c7.5,2,15.2,3.5,22.8,4.8
					c8.2,1.4,16.4,2.6,24.6,3.3c8.1,0.7,16.2,0.7,24.1-1.4c7.3-1.9,14.2-5.3,20.6-9.3c11.6-7.1,22.1-16.6,29.2-28.4
					c0.9-1.4,1.7-2.9,2.4-4.4c0.9-1.7-1.7-3.2-2.6-1.5c-6,11.8-15.5,21.5-26.3,28.9c-5.8,4-12.1,7.5-18.8,10
					c-7.3,2.7-14.8,3.7-22.6,3.4c-8-0.3-15.9-1.4-23.8-2.6c-7.7-1.2-15.4-2.6-23.1-4.3c-12.9-2.9-26.1-7.3-35.3-17.3
					C67,153.8,63.7,139.2,64,125.1C64.2,123.2,61.2,123.2,61.1,125.2L61.1,125.2z"/>
			</g>
		</g>
		<g>
			<g>
				<path d="M93.5,66.3c7.7-3.7,16.2-5.9,24.5-8c2.1-0.5,4.2-1,6.4-1.5c2.1-0.5,4.3-1.1,6.4-1.3c-0.5,0.1,0.3,0,0.5,0
					c0.4,0,0.8-0.1,1.2-0.2c1-0.1,1.9-0.3,2.9-0.4c1.8-0.2,3.7-0.4,5.5-0.5c14.8-0.9,29.8,1.7,43.5,7.3c7.8,3.2,15.1,7.4,21.8,12.4
					c1.5,1.2,3-1.4,1.5-2.6c-12.2-9.1-26.5-15.4-41.5-18.4c-7.5-1.5-15.3-2.2-22.9-1.9c-3.8,0.1-7.5,0.5-11.3,1.1
					c-0.2,0-1.5,0.1-0.7,0.2c-0.3,0-0.6-0.1-0.9,0c-1.2,0.1-2.4,0.5-3.6,0.7c-2.2,0.5-4.4,0.9-6.6,1.5c-9.6,2.3-19.4,4.8-28.3,9.1
					C90.2,64.5,91.8,67.1,93.5,66.3L93.5,66.3z"/>
			</g>
		</g>
		<g>
			<g>
				<path d="M90.7,62.4C76.1,66,62,71.3,48.6,78.3c-6.5,3.4-13,7.1-18.8,11.6c-5.5,4.3-10,10.3-10.5,17.4
					c-0.4,6.6,3.4,12.5,8.8,16.1c6,4,13.6,5,20.6,4.8c7.2-0.1,14.4-1.6,21.1-4.2c6.5-2.6,13.1-6.2,17.9-11.4c5-5.5,7-13,8.1-20.1
					c1.2-7.7,1.2-15.5,0-23.2c-0.3-1.9-0.7-3.8-1.2-5.7s-3.4-1.1-2.9,0.8c1.8,7.1,2.4,14.4,1.9,21.7c-0.3,3.6-0.8,7.1-1.7,10.6
					c-0.8,3.5-1.9,6.9-3.6,10c-3.3,5.7-9.2,9.6-14.9,12.5c-6,3-12.6,5-19.3,5.7c-6.6,0.7-13.8,0.6-20.1-1.8
					c-5.6-2.1-10.8-6.8-11.6-13c-0.9-6.5,3.1-12.5,7.7-16.6c5.1-4.6,11.4-8,17.4-11.3c13.8-7.6,28.6-13.3,44-17
					C93.4,64.8,92.6,61.9,90.7,62.4L90.7,62.4z"/>
			</g>
		</g>
		<g>
			<g>
				<path d="M203.7,72.4c-3.6,7.7-4.5,16.2-5,24.6c-0.5,8-1.1,16.1,0.7,24c1.7,7.6,5.9,14,12,18.8c6.2,4.8,13.7,7.9,21.4,9.3
					c7.8,1.4,16.1,1.2,23.6-1.2c6.5-2.1,12.6-6.1,15.2-12.7c2.9-7.5,0.2-16-3.4-22.8c-3.5-6.7-8.5-12.6-14.1-17.5
					c-5.8-5-12.3-9.1-19.1-12.5c-7.3-3.7-15-6.8-22.8-9.1c-1.8-0.6-3.7-1.1-5.6-1.5c-1.9-0.5-2.7,2.4-0.8,2.9
					c7.3,1.8,14.4,4.3,21.3,7.4c6.7,3,13.3,6.4,19.3,10.7c5.8,4.1,11,9.1,15.2,14.8c4.2,5.8,8,12.8,8.2,20
					c0.6,15.9-18.3,20.1-30.7,19.3c-14-0.8-30-8-35.3-21.8c-2.7-7.1-2.7-14.8-2.4-22.3c0.4-7.8,0.7-15.7,2.9-23.3
					c0.5-1.9,1.2-3.7,2-5.5C207.1,72.2,204.6,70.6,203.7,72.4L203.7,72.4z"/>
			</g>
		</g>
		<g>
			<path class="st7" d="M105.6,123.5c-0.4,2.9-0.1,6,1,8.8c0.3,0.8,0.7,1.6,1.5,2.2c1.7,1.2,4.5,0.6,6-0.8s1.8-3.3,1.9-5.1
				c0.1-1.7,0-3.4-0.8-4.9s-2.4-2.9-4.5-3.2c-2.1-0.3-4.4,0.7-4.8,2.3"/>
		</g>
		<g>
			<path class="st7" d="M164.3,123.3c-0.7,2.9-0.7,5.9,0.2,8.8c0.2,0.8,0.6,1.7,1.3,2.3c1.6,1.3,4.5,0.9,6-0.4
				c1.6-1.3,2.1-3.2,2.4-4.9c0.3-1.7,0.3-3.4-0.3-4.9c-0.7-1.6-2.2-3-4.2-3.4s-4.4,0.4-5,2"/>
		</g>
		<g>
			<path class="st7" d="M145.7,131.9c-3.6-0.7-7.4-0.7-11,0.2c-1,0.2-2.1,0.6-2.8,1.3c-1.6,1.6-1.1,4.5,0.5,6
				c1.6,1.6,3.9,2.1,6.2,2.4c2.1,0.3,4.2,0.3,6.2-0.3c2-0.7,3.8-2.2,4.3-4.2s-0.5-4.4-2.5-5"/>
		</g>
		<g>
			<g>
				<path class="st7" d="M138.8,138.9c0.1,1.9,0.2,3.9,0.3,5.8c0,0.8,0.7,1.5,1.5,1.5s1.5-0.7,1.5-1.5c-0.1-1.9-0.2-3.9-0.3-5.8
					c0-0.8-0.7-1.5-1.5-1.5C139.5,137.5,138.8,138.1,138.8,138.9L138.8,138.9z"/>
			</g>
		</g>
	</g>
	<g>
		<g>
			<path class="st4" d="M157.3,290.3c38-17.5,76.1-34.9,114.1-52.4c0.6-3.1,1.1-6.3,1.6-9.4c5.3-30.6,9.6-61.4,13.1-92.3
				c-42.6,17.2-86.1,31.8-130.4,43.7"/>
		</g>
		<g>
			<path class="st5" d="M157,178c-49.9-11.3-99.6-24-148.8-38c6,37,11.4,74.1,16.1,111.3c5.5,1.9,10.9,3.8,16.4,5.7
				c38.7,13,78.1,23.3,117.8,31.5"/>
		</g>
		<g>
			<g>
				<path d="M6.4,142.1c4.6,28.4,8.9,56.9,12.7,85.5c1.1,8,2.1,16.1,3.1,24.1c0.2,1.9,3.2,1.9,3,0c-3.6-28.8-7.6-57.5-12.1-86.1
					c-1.2-8.1-2.5-16.2-3.8-24.2C9,139.4,6.1,140.3,6.4,142.1L6.4,142.1z"/>
			</g>
		</g>
		<g>
			<g>
				<path d="M156.4,178.4c0,28.7,0.1,57.3,0.1,86c0,8.2,0,16.3,0,24.5c0,1.9,3,1.9,3,0c0-28.7-0.1-57.3-0.1-86c0-8.2,0-16.3,0-24.5
					C159.4,176.5,156.4,176.5,156.4,178.4L156.4,178.4z"/>
			</g>
		</g>
		<g>
			<g>
				<path d="M285.3,135.1c-3,26.4-6.6,52.7-10.9,78.9c-1.2,7.3-2.4,14.6-3.7,21.9c-0.3,1.9,2.6,2.7,2.9,0.8c4.7-26.2,8.7-52.6,12-79
					c1-7.5,1.9-15,2.7-22.6C288.5,133.2,285.5,133.2,285.3,135.1L285.3,135.1z"/>
			</g>
		</g>
		<g>
			<g>
				<path d="M159.5,289.8c29.6-13.6,59.2-27.2,88.9-40.8c8.3-3.8,16.6-7.6,24.9-11.4c1.8-0.8,0.2-3.4-1.5-2.6
					c-29.6,13.6-59.2,27.2-88.9,40.8c-8.3,3.8-16.6,7.6-24.9,11.4C156.2,288,157.8,290.6,159.5,289.8L159.5,289.8z"/>
			</g>
		</g>
		<g>
			<g>
				<path d="M157.7,287.3c-24-4.6-47.8-10.2-71.3-17c-5.7-1.7-11.5-3.3-17.1-5.2c-2.8-1-5.6-2.1-8.5-3.2c-5.6-2-11.3-4-16.9-6
					c-5.9-2.1-11.8-4-17.6-6.3c-1.8-0.7-2.6,2.2-0.8,2.9c4.9,2,10,3.6,15,5.4c6.1,2.1,12.1,4.3,18.2,6.4c2,0.7,4,1.5,6,2.2
					c5.5,2.1,11.1,3.7,16.7,5.4c11.6,3.5,23.4,6.7,35.2,9.5c13.4,3.3,26.8,6.2,40.3,8.7C158.8,290.5,159.6,287.7,157.7,287.3
					L157.7,287.3z"/>
			</g>
		</g>
		<g>
			<g>
				<path d="M284.3,134.3c0,0.4,0,0.7,0,1.1c0.4-0.5,0.7-1,1.1-1.4c-26.1,10.5-52.5,20.1-79.3,28.6c-13.5,4.3-27,8.3-40.6,12.1
					c-1.6,0.4-3.1,0.9-4.7,1.3c-0.9,0.2-1.7,0.5-2.6,0.7c0,0-1.6,0.5-0.8,0.4c-0.1,0-0.4-0.1-0.5-0.1c-1-0.2-2.1-0.5-3.1-0.7
					c-11.4-2.7-22.8-5.5-34.2-8.3c-17.9-4.4-35.8-8.8-53.7-13.3c-17.6-4.5-35.3-9-52.8-13.9c-1.8-0.5-3.5-1-5.3-1.5
					c-1.9-0.5-2.7,2.4-0.8,2.9c17.1,4.9,34.3,9.3,51.5,13.7c18.2,4.7,36.5,9.2,54.8,13.7c12.5,3.1,25,6.1,37.5,9.1
					c1.9,0.5,3.9,1.1,5.8,1.4c1.3,0.2,2.9-0.6,4.2-0.9c1.8-0.5,3.6-1,5.4-1.5c3.4-0.9,6.7-1.9,10.1-2.8c6.8-2,13.6-4,20.3-6.1
					c27-8.3,53.6-17.6,79.8-28c3.3-1.3,6.5-2.6,9.7-3.9c0.6-0.3,1.1-0.7,1.1-1.4c0-0.4,0-0.7,0-1.1
					C287.3,132.3,284.3,132.3,284.3,134.3L284.3,134.3z"/>
			</g>
		</g>
	</g>
	<g>
		<g>
			<path class="st5" d="M141.4,78.4c-46.3-1.1-92.6-1.4-139-0.9c0-0.3,0-0.6,0-0.6s0-12.5,0-25c46.7-2.3,93.4-5.1,140.1-8.4"/>
		</g>
		<g>
			<path class="st4" d="M142,44.9c50.5,7.7,100.6,17.8,150,30.3c-0.3,8.6-0.5,17.1-0.8,25.7c-49.6-9.1-99.6-16.1-149.8-21"/>
		</g>
		<g>
			<g>
				<path d="M0.5,53.4c0,8.3,0,16.5,0,24.8c0,1.9,3,1.9,3,0c0-8.3,0-16.5,0-24.8C3.5,51.5,0.5,51.5,0.5,53.4L0.5,53.4z"/>
			</g>
		</g>
		<g>
			<path class="st6" d="M1.9,78.7c46.4-0.5,92.8-0.1,139,0.9"/>
			<g>
				<path d="M1.9,80.2C20,80,38.1,80,56.2,80c18,0.1,36.1,0.2,54.1,0.5c10.2,0.2,20.4,0.4,30.6,0.6c1.9,0,1.9-3,0-3
					c-18.1-0.4-36.2-0.7-54.3-0.9c-18-0.2-36.1-0.3-54.1-0.2c-10.2,0-20.4,0.1-30.7,0.2C0,77.2,0,80.2,1.9,80.2L1.9,80.2z"/>
			</g>
		</g>
		<g>
			<g>
				<path d="M143.8,46.5c19.4,3,38.7,6.3,58,10c19.2,3.7,38.4,7.7,57.5,12.2c10.8,2.5,21.6,5.1,32.3,7.8c-0.4-0.5-0.7-1-1.1-1.4
					c-0.3,8.6-0.5,17.1-0.8,25.7c0.6-0.5,1.3-1,1.9-1.4c-19.4-3.6-38.8-6.8-58.3-9.7s-39-5.5-58.5-7.8c-11.1-1.3-22.2-2.5-33.3-3.6
					c-1.9-0.2-1.9,2.8,0,3c19.5,1.9,39.1,4.2,58.5,6.7s38.8,5.4,58.1,8.6c10.9,1.8,21.9,3.7,32.8,5.7c1,0.2,1.9-0.4,1.9-1.4
					c0.3-8.6,0.5-17.1,0.8-25.7c0-0.6-0.5-1.3-1.1-1.4c-19-4.8-38.1-9.3-57.2-13.4c-19.2-4.1-38.4-7.8-57.7-11.2
					c-11-1.9-21.9-3.7-32.9-5.4C142.7,43.3,141.9,46.2,143.8,46.5L143.8,46.5z"/>
			</g>
		</g>
		<g>
			<path class="st6" d="M1.4,53.2c46.7-2.3,93.4-5.1,140.1-8.4"/>
			<g>
				<path d="M1.4,54.7c18.2-0.9,36.5-1.8,54.7-2.9c18.2-1,36.4-2.2,54.6-3.4c10.3-0.7,20.5-1.4,30.8-2.1c1.9-0.1,1.9-3.1,0-3
					c-18.2,1.3-36.4,2.5-54.6,3.7c-18.2,1.1-36.4,2.2-54.7,3.2c-10.3,0.5-20.5,1.1-30.8,1.6C-0.5,51.8-0.5,54.8,1.4,54.7L1.4,54.7z"
					/>
			</g>
		</g>
		<g>
			<path class="st6" d="M142.6,44.4c-0.7,11-1.5,22-2.2,33.1"/>
			<g>
				<path d="M141.1,44.4c-0.7,11-1.5,22-2.2,33.1c-0.1,1.9,2.9,1.9,3,0c0.7-11,1.5-22,2.2-33.1C144.3,42.4,141.3,42.4,141.1,44.4
					L141.1,44.4z"/>
			</g>
		</g>
	</g>
	<g>
		<g>
			<path class="st9" d="M132.1,29.5c-4.4-1.2-9.1-2.3-13.4-0.9c-4.5,1.4-8.3,5.5-13,5c-3.3-0.3-6.1-3.1-6.5-6.4
				c-0.4-3.2,1.8-6.6,4.9-7.6c0.8-0.3,1.6-0.4,2.3-0.9c2.7-2-0.4-6.4,0.7-9.6c1-2.9,4.9-3.3,8-2.8c0.9,0.2,1.9,0.3,2.7-0.1
				c0.8-0.4,1.2-1.3,1.7-2.1c1.8-2.6,5.9-3,8.5-1.3c2.7,1.7,3.9,5.1,3.8,8.3c-0.1,2-0.7,4.1-0.3,6.1s2.6,3.9,4.4,3"/>
		</g>
		<g>
			<path class="st10" d="M143,14.7c-4.7,4.3-8.2,10-9.8,16.1c-0.7,2.4-1,5-0.5,7.5c0.9,4.5,4.7,8.1,8.9,9.9s8.9,2.3,13.5,2.7
				c17.9,1.6,35.8,3.1,53.6,4.7c6,0.5,13.2,0.5,16.4-4.6c0.6-0.9,0.9-1.9,0.8-2.9c-0.2-1.4-1.4-2.4-2.6-3.3
				C200,27,171.4,16.3,142.1,14.4"/>
		</g>
		<g>
			<g>
				<path d="M132.2,28c-4-1.1-8.2-2.1-12.4-1.4c-3.6,0.6-6.5,2.8-9.7,4.4c-3,1.4-6.5,1.5-8.6-1.4c-2-2.7-1-6.5,1.8-8.2
					c1.5-0.9,3.2-0.8,4.4-2.2c1-1.1,1.1-2.6,1-4c-0.3-2.4-1.9-6,1.1-7.3c1.3-0.5,2.8-0.5,4.2-0.4c1.8,0.2,3.6,0.6,5-0.8
					c1.1-1.1,1.4-2.5,2.9-3.1c1.3-0.6,3-0.5,4.3,0.1c1.7,0.8,2.8,2.4,3.3,4.1c0.6,2.1,0.3,4.1,0,6.3c-0.2,2.1-0.1,4.3,1.4,5.9
					c1.2,1.4,3.1,2.2,4.9,1.5c1.8-0.7,1-3.6-0.8-2.9c-2,0.8-2.7-2-2.6-3.4c0.1-2.2,0.7-4.3,0.3-6.5c-0.5-3.5-2.6-6.9-6.1-8.2
					c-3.2-1.1-6.9-0.2-8.9,2.6c-0.4,0.6-0.7,1.5-1.5,1.6c-0.9,0.1-2-0.3-2.8-0.3c-1.5-0.1-3.2,0-4.6,0.6c-1.5,0.6-2.7,1.6-3.4,3
					c-0.7,1.5-0.5,3.1-0.2,4.7c0.2,1.1,0.9,3.1,0.3,4.2c-0.4,0.7-1.4,0.8-2.2,1c-0.9,0.3-1.7,0.7-2.5,1.3c-2.8,2.1-4.3,5.9-3.2,9.3
					c1,3.4,4.1,5.9,7.7,6.3c4.3,0.4,7.9-2.5,11.5-4.3c4.7-2.3,9.7-1.1,14.5,0.2C133.3,31.4,134.1,28.5,132.2,28L132.2,28z"/>
			</g>
		</g>
		<g>
			<g>
				<path d="M142,13.7c-5.2,4.8-9.2,11.4-10.6,18.4c-0.8,3.7-0.5,7.4,1.4,10.7c1.7,2.8,4.3,5,7.2,6.4c3.4,1.7,7.1,2.4,10.9,2.8
					c4.2,0.5,8.5,0.8,12.7,1.2c8.8,0.8,17.6,1.5,26.3,2.3c4.3,0.4,8.6,0.8,12.9,1.1c3.7,0.3,7.4,0.8,11,0.7c3-0.1,6.1-0.5,8.8-2
					c2.5-1.4,5.1-4.2,4.8-7.3c-0.2-1.7-1.3-3-2.6-4c-1.4-1.1-2.9-2.2-4.3-3.2c-3.1-2.2-6.2-4.3-9.4-6.2c-6.4-3.9-13-7.2-19.9-10.1
					c-13.8-5.8-28.5-9.6-43.5-11.1c-1.8-0.2-3.7-0.3-5.5-0.5c-1.9-0.1-1.9,2.9,0,3c27.7,1.8,54.8,11.6,77.4,27.9
					c1.2,0.9,2.5,1.7,3.6,2.7c1.4,1.2,1.6,2.4,0.5,4c-1.5,2.1-4.1,3.1-6.6,3.5c-2.7,0.5-5.6,0.3-8.3,0.1c-4.1-0.4-8.3-0.7-12.4-1.1
					c-7.9-0.7-15.9-1.4-23.8-2.1c-4.1-0.4-8.1-0.7-12.2-1.1c-3.8-0.3-7.7-0.5-11.5-1.2c-6.7-1.1-14.9-4.8-14.9-12.7
					c0-3.8,1.5-7.8,3.2-11.2c1.8-3.4,4.1-6.4,6.9-9C145.5,14.5,143.4,12.4,142,13.7L142,13.7z"/>
			</g>
		</g>
		<g>
			<g>
				<path d="M103.5,29.3c1,0.2,2,0.3,3.1,0.5c0.2,0.1,0.4,0.1,0.6,0c0.2,0,0.4-0.1,0.6-0.2c0.3-0.2,0.6-0.5,0.7-0.9s0.1-0.8-0.2-1.2
					c-0.2-0.3-0.5-0.6-0.9-0.7c-1-0.2-2-0.3-3.1-0.5c-0.2-0.1-0.4-0.1-0.6,0c-0.2,0-0.4,0.1-0.6,0.2c-0.3,0.2-0.6,0.5-0.7,0.9
					s-0.1,0.8,0.2,1.2C102.8,28.9,103.1,29.2,103.5,29.3L103.5,29.3z"/>
			</g>
		</g>
		<g>
			<g>
				<path d="M112.9,26.6c0.6-0.4,1.2-0.8,1.8-1.3c0.2-0.1,0.3-0.2,0.4-0.4c0.1-0.1,0.2-0.3,0.3-0.5c0.1-0.2,0.1-0.4,0-0.6
					c0-0.2-0.1-0.4-0.2-0.6c-0.2-0.3-0.5-0.6-0.9-0.7c-0.1,0-0.3,0-0.4-0.1c-0.3,0-0.5,0.1-0.8,0.2c-0.6,0.4-1.2,0.8-1.8,1.3
					c-0.2,0.1-0.3,0.2-0.4,0.4c-0.1,0.1-0.2,0.3-0.3,0.5c-0.1,0.2-0.1,0.4,0,0.6c0,0.2,0.1,0.4,0.2,0.6c0.2,0.3,0.5,0.6,0.9,0.7
					c0.1,0,0.3,0,0.4,0.1C112.4,26.8,112.6,26.7,112.9,26.6L112.9,26.6z"/>
			</g>
		</g>
		<g>
			<g>
				<path d="M120.3,22.6c0.8,0.1,1.5,0.3,2.3,0.4c0.2,0.1,0.4,0.1,0.6,0c0.2,0,0.4-0.1,0.6-0.2c0.3-0.2,0.6-0.5,0.7-0.9
					s0.1-0.8-0.2-1.2c-0.2-0.3-0.5-0.6-0.9-0.7c-0.8-0.1-1.5-0.3-2.3-0.4c-0.2-0.1-0.4-0.1-0.6,0c-0.2,0-0.4,0.1-0.6,0.2
					c-0.3,0.2-0.6,0.5-0.7,0.9s-0.1,0.8,0.2,1.2C119.6,22.3,119.9,22.6,120.3,22.6L120.3,22.6z"/>
			</g>
		</g>
		<g>
			<g>
				<path d="M127.7,24.7c0.5,0.3,1,0.7,1.6,1c0.2,0.1,0.4,0.2,0.6,0.2s0.4,0,0.6,0s0.4-0.1,0.5-0.3c0.2-0.1,0.3-0.2,0.4-0.4
					c0.2-0.3,0.3-0.8,0.2-1.2c-0.1-0.1-0.1-0.2-0.2-0.4s-0.3-0.4-0.5-0.5c-0.5-0.3-1-0.7-1.6-1c-0.2-0.1-0.4-0.2-0.6-0.2
					s-0.4,0-0.6,0c-0.2,0-0.4,0.1-0.5,0.3c-0.2,0.1-0.3,0.2-0.4,0.4c-0.2,0.3-0.3,0.8-0.2,1.2c0.1,0.1,0.1,0.2,0.2,0.4
					C127.3,24.4,127.5,24.6,127.7,24.7L127.7,24.7z"/>
			</g>
		</g>
		<g>
			<g>
				<path d="M135.8,34.2c0.2,0.6,0.5,1.1,0.8,1.6c0.1,0.2,0.2,0.3,0.4,0.4c0.1,0.1,0.3,0.2,0.5,0.3s0.4,0.1,0.6,0
					c0.2,0,0.4-0.1,0.6-0.2c0.1-0.1,0.2-0.2,0.3-0.2c0.2-0.2,0.3-0.4,0.4-0.7c0-0.1,0-0.3,0.1-0.4c0-0.3-0.1-0.5-0.2-0.8
					c-0.2-0.3-0.4-0.6-0.5-1c0.1,0.1,0.1,0.2,0.2,0.4c0-0.1-0.1-0.2-0.1-0.3c0-0.2-0.1-0.4-0.3-0.5c-0.1-0.2-0.2-0.3-0.4-0.4
					c-0.2-0.1-0.4-0.2-0.6-0.2c-0.2,0-0.4,0-0.6,0c-0.1,0.1-0.2,0.1-0.4,0.2c-0.2,0.1-0.4,0.3-0.5,0.5c-0.1,0.1-0.1,0.2-0.2,0.4
					C135.7,33.7,135.7,33.9,135.8,34.2L135.8,34.2z"/>
			</g>
		</g>
		<g>
			<g>
				<path d="M140.9,39.1c0.9,0.6,1.9,1,2.9,1.2c0.4,0.1,0.8,0.1,1.2-0.2c0.3-0.2,0.6-0.5,0.7-0.9c0.1-0.4,0.1-0.8-0.2-1.2
					c-0.2-0.3-0.5-0.6-0.9-0.7c-0.5-0.1-1-0.3-1.5-0.5c0.1,0.1,0.2,0.1,0.4,0.2c-0.4-0.2-0.7-0.4-1.1-0.6c-0.3-0.2-0.8-0.3-1.2-0.2
					c-0.3,0.1-0.7,0.4-0.9,0.7s-0.3,0.8-0.2,1.2C140.3,38.6,140.5,38.9,140.9,39.1L140.9,39.1z"/>
			</g>
		</g>
		<g>
			<g>
				<path d="M148.9,41.6c0.8,0.2,1.5,0.3,2.3,0.3c0.2,0,0.4,0,0.6-0.1c0.2-0.1,0.3-0.2,0.5-0.3c0.1-0.1,0.2-0.3,0.3-0.5
					s0.1-0.4,0.1-0.6c0-0.4-0.1-0.8-0.4-1.1c-0.3-0.3-0.7-0.4-1.1-0.4c-0.3,0-0.7,0-1-0.1c0.1,0,0.3,0,0.4,0.1
					c-0.3,0-0.6-0.1-0.9-0.2c-0.4-0.1-0.8,0-1.2,0.2c-0.2,0.1-0.3,0.2-0.4,0.4c-0.1,0.1-0.2,0.3-0.3,0.5c-0.1,0.4-0.1,0.8,0.2,1.2
					C148.2,41.3,148.5,41.5,148.9,41.6L148.9,41.6z"/>
			</g>
		</g>
		<g>
			<g>
				<path d="M156.9,43.1c1.7,0.3,3.3,0.5,5,0.5c0.8,0,1.5-0.7,1.5-1.5s-0.7-1.5-1.5-1.5c-1.1,0-2.1-0.1-3.2-0.2c0.1,0,0.3,0,0.4,0.1
					c-0.5-0.1-0.9-0.1-1.4-0.2c-0.4-0.1-0.8-0.1-1.2,0.2c-0.3,0.2-0.6,0.5-0.7,0.9C155.6,42,156,43,156.9,43.1L156.9,43.1z"/>
			</g>
		</g>
		<g>
			<g>
				<path d="M168.5,44.2c0.1,0,0.2,0,0.2,0c-0.1,0-0.3,0-0.4,0.1c1-0.1,1.9-0.1,2.9-0.1c0.4,0,0.8-0.2,1.1-0.4
					c0.3-0.3,0.5-0.7,0.4-1.1c0-0.4-0.1-0.8-0.4-1.1c-0.1-0.1-0.2-0.2-0.3-0.2c-0.2-0.1-0.5-0.2-0.8-0.2c-1.2-0.1-2.4,0-3.5,0.1
					c-0.3,0.1-0.7,0.4-0.9,0.7s-0.3,0.8-0.2,1.2s0.3,0.7,0.7,0.9c0.1,0.1,0.2,0.1,0.4,0.2C168,44.3,168.2,44.3,168.5,44.2
					L168.5,44.2z"/>
			</g>
		</g>
		<g>
			<g>
				<path d="M178.4,45.2c1.2,0.1,2.4,0.2,3.6,0.3c0.4,0,0.8-0.2,1.1-0.4c0.3-0.3,0.5-0.7,0.4-1.1c0-0.4-0.1-0.8-0.4-1.1
					c-0.3-0.3-0.6-0.4-1.1-0.4c-1.2-0.1-2.4-0.2-3.6-0.3c-0.4,0-0.8,0.2-1.1,0.4c-0.3,0.3-0.5,0.7-0.4,1.1c0,0.4,0.1,0.8,0.4,1.1
					C177.6,45,178,45.1,178.4,45.2L178.4,45.2z"/>
			</g>
		</g>
		<g>
			<g>
				<path d="M188.8,46.1c1,0.2,2,0.3,3.1,0.5c0.2,0.1,0.4,0.1,0.6,0c0.2,0,0.4-0.1,0.6-0.2c0.3-0.2,0.6-0.5,0.7-0.9
					c0.1-0.4,0.1-0.8-0.2-1.2c-0.2-0.3-0.5-0.6-0.9-0.7c-1-0.2-2-0.3-3.1-0.5c-0.2-0.1-0.4-0.1-0.6,0c-0.2,0-0.4,0.1-0.6,0.2
					c-0.3,0.2-0.6,0.5-0.7,0.9c-0.1,0.4-0.1,0.8,0.2,1.2C188.1,45.7,188.4,46,188.8,46.1L188.8,46.1z"/>
			</g>
		</g>
		<g>
			<g>
				<path d="M198.7,46.4c1,0.2,2,0.3,3.1,0.5c0.2,0.1,0.4,0.1,0.6,0c0.2,0,0.4-0.1,0.6-0.2c0.3-0.2,0.6-0.5,0.7-0.9
					c0.1-0.4,0.1-0.8-0.2-1.2c-0.2-0.3-0.5-0.6-0.9-0.7c-1-0.2-2-0.3-3.1-0.5c-0.2-0.1-0.4-0.1-0.6,0c-0.2,0-0.4,0.1-0.6,0.2
					c-0.3,0.2-0.6,0.5-0.7,0.9c-0.1,0.4-0.1,0.8,0.2,1.2C198,46.1,198.3,46.4,198.7,46.4L198.7,46.4z"/>
			</g>
		</g>
		<g>
			<g>
				<path d="M211.2,48.4c0.3-0.1,0.6-0.2,0.9-0.2c-0.1,0-0.3,0-0.4,0.1c0.4,0,0.8,0,1.1,0c-0.1,0-0.3,0-0.4-0.1
					c0.4,0.1,0.7,0.1,1.1,0.3c0.3,0.1,0.9,0,1.2-0.2s0.6-0.5,0.7-0.9c0.1-0.4,0.1-0.8-0.2-1.2c-0.1-0.1-0.2-0.2-0.2-0.3
					c-0.2-0.2-0.4-0.3-0.7-0.4c-0.6-0.3-1.3-0.4-2-0.4s-1.4,0.1-2,0.3c-0.4,0.1-0.7,0.3-0.9,0.7c-0.2,0.3-0.3,0.8-0.2,1.2
					s0.3,0.7,0.7,0.9C210.4,48.4,210.8,48.5,211.2,48.4L211.2,48.4z"/>
			</g>
		</g>
		<g>
			<g>
				<path d="M218.7,47.4c0.3,0.1,0.7,0.1,1,0.1s0.7,0,1-0.1c0.5-0.1,1.1-0.3,1.6-0.6c0.3-0.2,0.6-0.5,0.7-0.9
					c0.1-0.4,0.1-0.8-0.2-1.2c-0.2-0.3-0.5-0.6-0.9-0.7c-0.4-0.1-0.8,0-1.2,0.2c-0.1,0.1-0.2,0.1-0.3,0.2c0.1-0.1,0.2-0.1,0.4-0.2
					c-0.3,0.1-0.6,0.2-0.9,0.3c0.1,0,0.3,0,0.4-0.1c-0.3,0-0.7,0-1,0c0.1,0,0.3,0,0.4,0.1c-0.1,0-0.1,0-0.2,0
					c-0.2-0.1-0.4-0.1-0.6,0c-0.2,0-0.4,0.1-0.6,0.2c-0.3,0.2-0.6,0.5-0.7,0.9c-0.1,0.4-0.1,0.8,0.2,1.2
					C218,47,218.3,47.4,218.7,47.4L218.7,47.4z"/>
			</g>
		</g>
	</g>
</g>
</svg>
