
<svg version="1.1" xmlns="http://www.w3.org/2000/svg" xmlns:xlink="http://www.w3.org/1999/xlink" x="0px" y="0px"
	 viewBox="0 0 524.6 357.8" style="enable-background:new 0 0 524.6 357.8;" xml:space="preserve">
<style type="text/css">
	.st0{fill:#FFEA92;}
	.st1{fill:#B7A497;}
	.st2{fill:#8E4A1B;}
	.st3{fill:#FFFFFF;}
	.st4{fill:#D17633;}
	.st5{fill:#FF9843;}
	.st6{fill:#9B2C2C;}
	.st7{fill:#333333;}
	.st8{fill:#FFD7E2;}
	.st9{fill:#225B10;}
	.st10{fill:#FF6C22;}
</style>
<g>
	<g>
		<g>
			<g>
				<path class="st2" d="M238.4,208.5l0.3,0c48-17.5,86.7-31.2,136.4-44.1c-0.3-0.1,141.8,38,141.7,37.7v1.1
					c-42,17-85.1,31.4-128.8,43.1C388,246.4,288.3,222.7,238.4,208.5z"/>
			</g>
			<g>
				<g>
					<path d="M238.4,209.6c0.9,0,1.9-0.5,2.7-0.8c1.2-0.4,2.3-0.9,3.5-1.3c2.3-0.8,4.6-1.7,6.9-2.5c4.5-1.6,9-3.3,13.6-4.9
						c8.7-3.1,17.5-6.2,26.3-9.2c17.4-5.9,34.8-11.6,52.4-16.7c10.5-3.1,21.1-6,31.7-8.7c1.7-0.4,1.3-2.9-0.4-2.9c0,0,0,0,0,0
						c-1.8-0.1-1.9,2.3-0.4,2.9c1.2,0.5,2.6,0.7,3.9,1c3.4,0.9,6.9,1.8,10.3,2.8c11.3,3,22.7,6.1,34,9.1
						c13.6,3.6,27.3,7.3,40.9,10.9c11.8,3.1,23.5,6.3,35.3,9.4c5.6,1.5,11.3,3.3,17.1,4.4c0.3,0.1,0.7,0.2,1,0
						c0.7-0.3,1-0.7,1.1-1.4c0,0,0,0,0,0c0.2-1.9-2.8-1.9-3,0c0,0,0,0,0,0c0.4-0.5,0.7-1,1.1-1.4c0.3-0.1,1.1,0.1,0.5-0.1
						c-0.3-0.1-0.5-0.1-0.8-0.2c-1-0.2-1.9-0.5-2.9-0.7c-3.5-0.9-7-1.8-10.4-2.7c-11.3-3-22.6-6-33.9-9
						c-13.6-3.6-27.2-7.2-40.8-10.9c-11.7-3.1-23.5-6.3-35.2-9.4c-3.9-1-7.7-2.1-11.6-3.1c-1.8-0.5-3.7-1.2-5.5-1.5
						c-0.1,0-0.2,0-0.2-0.1c-0.1,1-0.3,2-0.4,2.9c0,0,0,0,0,0c-0.1-1-0.3-2-0.4-2.9c-18.3,4.7-36.4,10-54.4,15.6
						c-17.4,5.5-34.7,11.4-51.9,17.5c-5,1.8-9.9,3.6-14.9,5.4c-2.5,0.9-5.1,1.8-7.6,2.8c-1.3,0.5-2.7,1-4,1.5
						c-0.6,0.2-1.2,0.4-1.8,0.6c-0.4,0.2-1.2,0.6-1.7,0.6C236.5,206.5,236.5,209.5,238.4,209.6L238.4,209.6z"/>
				</g>
			</g>
		</g>
		<g>
			<g>
				<g>
					<path class="st2" d="M233.8,120.2c46.6-2.3,93.2-5.1,139.7-8.4c50.3,7.7,100.1,17.8,149.3,30.3c-0.3,8.6-0.5,17.3-0.8,25.9
						c-9.8,0.4-111.3,0.6-121.2,0.8c-15.7-2.1-156-22.1-168.1-22.1c0-0.7,0-1.4,0-1.4s0-12.5,0-25
						C233.1,120.2,233.5,120.2,233.8,120.2z"/>
				</g>
			</g>
			<g>
				<g>
					<path d="M401.2,170.7c5-0.1,9.9-0.1,14.9-0.1c9.2-0.1,18.5-0.1,27.7-0.1c10.7,0,21.4-0.1,32.1-0.1c9.6,0,19.1-0.1,28.7-0.2
						c5.6,0,11.2-0.1,16.9-0.2c0.3,0,0.6,0,0.9,0c1.9-0.1,1.9-3.1,0-3c-5,0.2-9.9,0.2-14.9,0.2c-9.2,0.1-18.5,0.1-27.7,0.2
						c-10.7,0.1-21.4,0.1-32.1,0.2c-9.6,0-19.1,0.1-28.7,0.1c-5.6,0-11.2,0-16.9,0.1c-0.3,0-0.6,0-0.9,0
						C399.2,167.7,399.2,170.7,401.2,170.7L401.2,170.7z"/>
				</g>
			</g>
			<g>
				<g>
					<path d="M233.6,148.5c7.1,0.3,14.2,1.4,21.2,2.3c12.7,1.6,25.3,3.2,38,4.9c14.6,2,29.3,4,43.9,6c13.1,1.8,26.1,3.6,39.2,5.4
						c7.9,1.1,15.7,2.2,23.6,3.3c0.5,0.1,1.1,0.1,1.6,0.2c0.8,0.1,1.5-0.8,1.5-1.5c0-0.9-0.7-1.4-1.5-1.5c-0.4,0,0.4,0.1,0,0
						c-0.1,0-0.2,0-0.3,0c-0.3,0-0.5-0.1-0.8-0.1c-0.6-0.1-1.2-0.2-1.8-0.2c-1.6-0.2-3.1-0.4-4.7-0.6c-4.5-0.6-9-1.2-13.4-1.9
						c-12.7-1.8-25.4-3.5-38-5.3c-14.7-2-29.3-4-44-6c-13.1-1.8-26.3-3.5-39.4-5.2c-7.9-1-15.8-2.1-23.8-2.7c-0.4,0-0.9-0.1-1.3-0.1
						C231.7,145.5,231.7,148.5,233.6,148.5L233.6,148.5z"/>
				</g>
			</g>
		</g>
		<g>
			<g>
				<path class="st3" d="M322.2,130.4c-18.9,4.6-37.1,12.3-53.6,22.6c-4.4,2.7-8.7,5.7-12,9.8c-3.2,4-5.3,9.3-4.5,14.4
					c0.8,5.3,4.6,9.7,9.2,12.4c4.6,2.6,10,3.6,15.3,3.8c12,0.4,24.1-2.9,34.1-9.4c3.4-2.2,6.5-4.7,8.9-8c2.2-3.1,3.5-6.7,4.5-10.4
					c3.1-11.4,3.1-23.5,0.2-34.9"/>
			</g>
			<g>
				<path class="st3" d="M436.4,140.6c-3.8,8-4.4,17-4.9,25.9c-0.6,10.1-1,20.7,3.7,29.6c3.6,6.7,9.9,11.7,16.8,15
					c9.6,4.5,20.6,5.9,31,3.9c7.6-1.5,15.4-5.3,18.4-12.3c2.6-6.1,1-13.1-1.7-19.1c-5.2-11.4-14.5-20.7-25.2-27.3
					c-10.7-6.6-24.7-12.5-37-15.5"/>
			</g>
			<g>
				<path class="st3" d="M361.7,121.9c-8.4,1.6-16.7,3.7-24.9,6.2c-4.3,1.3-8.5,2.7-12.5,4.6c2.7,11.2,2.6,23.1-0.4,34.3
					c-1,3.7-2.3,7.3-4.5,10.4c-2.3,3.3-5.5,5.8-8.9,8c-5.2,3.4-11,5.9-17,7.5c-0.4,16.8,4.1,32.6,16.3,43.6
					c9.7,8.8,22.9,12.5,35.8,15.3c10.9,2.3,21.8,4.1,32.9,5.4c8.2,0.9,16.5,1.6,24.6,0.2c8.2-1.4,15.8-4.8,23-9
					c13.9-8.1,26.2-19.6,33.3-34c-2.7-0.7-5.3-1.7-7.8-2.9c-6.9-3.2-13.2-8.2-16.8-15c-4.8-8.9-4.3-19.6-3.7-29.6
					c0.5-9.3,1.2-18.9,5.6-27.2c-21.2-15.4-48.7-22.2-74.6-17.9"/>
			</g>
			<g>
				<g>
					<path d="M292.2,192.6c-0.2,13,2.5,26.6,10.3,37.2c4,5.5,9.1,10,15,13.3c6,3.4,12.6,5.7,19.2,7.5c7.5,2,15.2,3.5,22.8,4.8
						c8.2,1.4,16.4,2.6,24.6,3.3c8.1,0.7,16.2,0.7,24.1-1.4c7.3-1.9,14.2-5.3,20.6-9.3c11.6-7.1,22.1-16.6,29.2-28.4
						c0.9-1.4,1.7-2.9,2.4-4.4c0.9-1.7-1.7-3.2-2.6-1.5c-6,11.8-15.5,21.5-26.3,28.9c-5.8,4-12.1,7.5-18.8,10
						c-7.3,2.7-14.8,3.7-22.6,3.4c-8-0.3-15.9-1.4-23.8-2.6c-7.7-1.2-15.4-2.6-23.1-4.3c-12.9-2.9-26.1-7.3-35.3-17.3
						c-9.8-10.6-13.1-25.2-12.8-39.3C295.2,190.6,292.2,190.6,292.2,192.6L292.2,192.6z"/>
				</g>
			</g>
			<g>
				<g>
					<path d="M324.5,133.7c7.7-3.7,16.2-5.9,24.5-8c2.1-0.5,4.2-1,6.4-1.5c2.1-0.5,4.3-1.1,6.4-1.3c-0.5,0.1,0.3,0,0.5,0
						c0.4,0,0.8-0.1,1.2-0.2c1-0.1,1.9-0.3,2.9-0.4c1.8-0.2,3.7-0.4,5.5-0.5c14.8-0.9,29.8,1.7,43.5,7.3c7.8,3.2,15.1,7.4,21.8,12.4
						c1.5,1.2,3-1.4,1.5-2.6c-12.2-9.1-26.5-15.4-41.5-18.4c-7.5-1.5-15.3-2.2-22.9-1.9c-3.8,0.1-7.5,0.5-11.3,1.1
						c-0.2,0-1.5,0.1-0.7,0.2c-0.3,0-0.6-0.1-0.9,0c-1.2,0.1-2.4,0.5-3.6,0.7c-2.2,0.5-4.4,0.9-6.6,1.5c-9.6,2.3-19.4,4.8-28.3,9.1
						C321.3,131.9,322.8,134.5,324.5,133.7L324.5,133.7z"/>
				</g>
			</g>
			<g>
				<g>
					<path d="M321.8,129.8c-14.6,3.6-28.8,8.9-42.1,15.9c-6.5,3.4-13,7.1-18.8,11.6c-5.5,4.3-10,10.3-10.5,17.4
						c-0.4,6.6,3.4,12.5,8.8,16.1c6,4,13.6,5,20.6,4.8c7.2-0.1,14.4-1.6,21.1-4.2c6.5-2.6,13.1-6.2,17.9-11.4c5-5.5,7-13,8.1-20.1
						c1.2-7.7,1.2-15.5,0-23.2c-0.3-1.9-0.7-3.8-1.2-5.7c-0.5-1.9-3.4-1.1-2.9,0.8c1.8,7.1,2.4,14.4,1.9,21.7
						c-0.3,3.6-0.8,7.1-1.7,10.6c-0.8,3.5-1.9,6.9-3.6,10c-3.3,5.7-9.2,9.6-14.9,12.5c-6,3-12.6,5-19.3,5.7
						c-6.6,0.7-13.8,0.6-20.1-1.8c-5.6-2.1-10.8-6.8-11.6-13c-0.9-6.5,3.1-12.5,7.7-16.6c5.1-4.6,11.4-8,17.4-11.3
						c13.8-7.6,28.6-13.3,44-17C324.5,132.2,323.7,129.3,321.8,129.8L321.8,129.8z"/>
				</g>
			</g>
			<g>
				<g>
					<path d="M434.8,139.8c-3.6,7.7-4.5,16.2-5,24.6c-0.5,8-1.1,16.1,0.7,24c1.7,7.6,5.9,14,12,18.8c6.2,4.8,13.7,7.9,21.4,9.3
						c7.8,1.4,16.1,1.2,23.6-1.2c6.5-2.1,12.6-6.1,15.2-12.7c2.9-7.5,0.2-16-3.4-22.8c-3.5-6.7-8.5-12.6-14.1-17.5
						c-5.8-5-12.3-9.1-19.1-12.5c-7.3-3.7-15-6.8-22.8-9.1c-1.8-0.6-3.7-1.1-5.6-1.5c-1.9-0.5-2.7,2.4-0.8,2.9
						c7.3,1.8,14.4,4.3,21.3,7.4c6.7,3,13.3,6.4,19.3,10.7c5.8,4.1,11,9.1,15.2,14.8c4.2,5.8,8,12.8,8.2,20
						c0.6,15.9-18.3,20.1-30.7,19.3c-14-0.8-30-8-35.3-21.8c-2.7-7.1-2.7-14.8-2.4-22.3c0.4-7.8,0.7-15.7,2.9-23.3
						c0.5-1.9,1.2-3.7,2-5.5C438.2,139.6,435.6,138.1,434.8,139.8L434.8,139.8z"/>
				</g>
			</g>
			<g>
				<path class="st7" d="M336.6,190.9c-0.4,2.9-0.1,6,1,8.8c0.3,0.8,0.7,1.6,1.5,2.2c1.7,1.2,4.5,0.6,6-0.8s1.8-3.3,1.9-5.1
					c0.1-1.7,0-3.4-0.8-4.9c-0.8-1.5-2.4-2.9-4.5-3.2s-4.4,0.7-4.8,2.3"/>
			</g>
			<g>
				<path class="st7" d="M395.3,190.7c-0.7,2.9-0.7,5.9,0.2,8.8c0.2,0.8,0.6,1.7,1.3,2.3c1.6,1.3,4.5,0.9,6-0.4s2.1-3.2,2.4-4.9
					c0.3-1.7,0.3-3.4-0.3-4.9s-2.2-3-4.2-3.4c-2-0.4-4.4,0.4-5,2"/>
			</g>
			<g>
				<path class="st7" d="M376.7,199.3c-3.6-0.7-7.4-0.7-11,0.2c-1,0.2-2.1,0.6-2.8,1.3c-1.6,1.6-1.1,4.5,0.5,6s3.9,2.1,6.2,2.4
					c2.1,0.3,4.2,0.3,6.2-0.3s3.8-2.2,4.3-4.2c0.5-2-0.5-4.4-2.5-5"/>
			</g>
			<g>
				<g>
					<path class="st7" d="M369.8,206.3c0.1,1.9,0.2,3.9,0.3,5.8c0,0.8,0.7,1.5,1.5,1.5c0.8,0,1.5-0.7,1.5-1.5
						c-0.1-1.9-0.2-3.9-0.3-5.8c0-0.8-0.7-1.5-1.5-1.5C370.6,204.9,369.8,205.5,369.8,206.3L369.8,206.3z"/>
				</g>
			</g>
		</g>
		<g>
			<g>
				<path class="st4" d="M388.4,357.7c38-17.5,76.1-34.9,114.1-52.4c0.6-3.1,1.1-6.3,1.6-9.4c5.3-30.6,9.6-61.4,13.1-92.3
					c-42.6,17.2-86.1,31.8-130.4,43.7"/>
			</g>
			<g>
				<path class="st5" d="M388,245.4c-49.9-11.3-99.6-24-148.8-38c6,37,11.4,74.1,16.1,111.3c5.5,1.9,10.9,3.8,16.4,5.7
					c38.7,13,78.1,23.3,117.8,31.5"/>
			</g>
			<g>
				<g>
					<path d="M237.5,209.6c4.6,28.4,8.9,56.9,12.7,85.5c1.1,8,2.1,16.1,3.1,24.1c0.2,1.9,3.2,1.9,3,0c-3.6-28.8-7.6-57.5-12.1-86.1
						c-1.2-8.1-2.5-16.2-3.8-24.2C240,206.9,237.2,207.7,237.5,209.6L237.5,209.6z"/>
				</g>
			</g>
			<g>
				<g>
					<path d="M387.5,245.8c0,28.7,0.1,57.3,0.1,86c0,8.2,0,16.3,0,24.5c0,1.9,3,1.9,3,0c0-28.7-0.1-57.3-0.1-86c0-8.2,0-16.3,0-24.5
						C390.5,243.9,387.5,243.9,387.5,245.8L387.5,245.8z"/>
				</g>
			</g>
			<g>
				<g>
					<path d="M516.3,202.5c-3,26.4-6.6,52.7-10.9,78.9c-1.2,7.3-2.4,14.6-3.7,21.9c-0.3,1.9,2.6,2.7,2.9,0.8
						c4.7-26.2,8.7-52.6,12-79c1-7.5,1.9-15,2.7-22.6C519.5,200.6,516.5,200.6,516.3,202.5L516.3,202.5z"/>
				</g>
			</g>
			<g>
				<g>
					<path d="M390.5,357.2c29.6-13.6,59.2-27.2,88.9-40.8c8.3-3.8,16.6-7.6,24.9-11.4c1.8-0.8,0.2-3.4-1.5-2.6
						c-29.6,13.6-59.2,27.2-88.9,40.8c-8.3,3.8-16.6,7.6-24.9,11.4C387.3,355.4,388.8,358,390.5,357.2L390.5,357.2z"/>
				</g>
			</g>
			<g>
				<g>
					<path d="M388.7,354.7c-24-4.6-47.8-10.2-71.3-17c-5.7-1.7-11.5-3.3-17.1-5.2c-2.8-1-5.6-2.1-8.5-3.2c-5.6-2-11.3-4-16.9-6
						c-5.9-2.1-11.8-4-17.6-6.3c-1.8-0.7-2.6,2.2-0.8,2.9c4.9,2,10,3.6,15,5.4c6.1,2.1,12.1,4.3,18.2,6.4c2,0.7,4,1.5,6,2.2
						c5.5,2.1,11.1,3.7,16.7,5.4c11.6,3.5,23.4,6.7,35.2,9.5c13.4,3.3,26.8,6.2,40.3,8.7C389.8,358,390.6,355.1,388.7,354.7
						L388.7,354.7z"/>
				</g>
			</g>
			<g>
				<g>
					<path d="M515.3,201.7c0,0.4,0,0.7,0,1.1c0.4-0.5,0.7-1,1.1-1.4c-26.1,10.5-52.5,20.1-79.3,28.6c-13.5,4.3-27,8.3-40.6,12.1
						c-1.6,0.4-3.1,0.9-4.7,1.3c-0.9,0.2-1.7,0.5-2.6,0.7c0,0-1.6,0.5-0.8,0.4c-0.1,0-0.4-0.1-0.5-0.1c-1-0.2-2.1-0.5-3.1-0.7
						c-11.4-2.7-22.8-5.5-34.2-8.3c-17.9-4.4-35.8-8.8-53.7-13.3c-17.6-4.5-35.3-9-52.8-13.9c-1.8-0.5-3.5-1-5.3-1.5
						c-1.9-0.5-2.7,2.4-0.8,2.9c17.1,4.9,34.3,9.3,51.5,13.7c18.2,4.7,36.5,9.2,54.8,13.7c12.5,3.1,25,6.1,37.5,9.1
						c1.9,0.5,3.9,1.1,5.8,1.4c1.3,0.2,2.9-0.6,4.2-0.9c1.8-0.5,3.6-1,5.4-1.5c3.4-0.9,6.7-1.9,10.1-2.8c6.8-2,13.6-4,20.3-6.1
						c27-8.3,53.6-17.6,79.8-28c3.3-1.3,6.5-2.6,9.7-3.9c0.6-0.3,1.1-0.7,1.1-1.4c0-0.4,0-0.7,0-1.1
						C518.3,199.8,515.3,199.8,515.3,201.7L515.3,201.7z"/>
				</g>
			</g>
		</g>
		<g>
			<g>
				<path class="st5" d="M372.5,145.8c-46.3-1.1-92.6-1.4-139-0.9c0-0.3,0-0.6,0-0.6s0-12.5,0-25c46.7-2.3,93.4-5.1,140.1-8.4"/>
			</g>
			<g>
				<path class="st4" d="M373.1,112.3c50.5,7.7,100.6,17.8,150,30.3c-0.3,8.6-0.5,17.1-0.8,25.7c-49.6-9.1-99.6-16.1-149.8-21"/>
			</g>
			<g>
				<g>
					<path d="M231.5,120.8c0,8.3,0,16.5,0,24.8c0,1.9,3,1.9,3,0c0-8.3,0-16.5,0-24.8C234.5,118.9,231.5,118.9,231.5,120.8
						L231.5,120.8z"/>
				</g>
			</g>
			<g>
				<path class="st6" d="M233,146.1c46.4-0.5,92.8-0.1,139,0.9"/>
				<g>
					<path d="M233,147.6c18.1-0.2,36.2-0.2,54.3-0.2c18,0.1,36.1,0.2,54.1,0.5c10.2,0.2,20.4,0.4,30.6,0.6c1.9,0,1.9-3,0-3
						c-18.1-0.4-36.2-0.7-54.3-0.9c-18-0.2-36.1-0.3-54.1-0.2c-10.2,0-20.4,0.1-30.7,0.2C231,144.6,231,147.6,233,147.6L233,147.6z"
						/>
				</g>
			</g>
			<g>
				<g>
					<path d="M374.8,113.9c19.4,3,38.7,6.3,58,10c19.2,3.7,38.4,7.7,57.5,12.2c10.8,2.5,21.6,5.1,32.3,7.8c-0.4-0.5-0.7-1-1.1-1.4
						c-0.3,8.6-0.5,17.1-0.8,25.7c0.6-0.5,1.3-1,1.9-1.4c-19.4-3.6-38.8-6.8-58.3-9.7c-19.5-2.9-39-5.5-58.5-7.8
						c-11.1-1.3-22.2-2.5-33.3-3.6c-1.9-0.2-1.9,2.8,0,3c19.5,1.9,39.1,4.2,58.5,6.7c19.4,2.5,38.8,5.4,58.1,8.6
						c10.9,1.8,21.9,3.7,32.8,5.7c1,0.2,1.9-0.4,1.9-1.4c0.3-8.6,0.5-17.1,0.8-25.7c0-0.6-0.5-1.3-1.1-1.4
						c-19-4.8-38.1-9.3-57.2-13.4c-19.2-4.1-38.4-7.8-57.7-11.2c-11-1.9-21.9-3.7-32.9-5.4C373.7,110.7,372.9,113.6,374.8,113.9
						L374.8,113.9z"/>
				</g>
			</g>
			<g>
				<path class="st6" d="M232.5,120.6c46.7-2.3,93.4-5.1,140.1-8.4"/>
				<g>
					<path d="M232.5,122.1c18.2-0.9,36.5-1.8,54.7-2.9c18.2-1,36.4-2.2,54.6-3.4c10.3-0.7,20.5-1.4,30.8-2.1c1.9-0.1,1.9-3.1,0-3
						c-18.2,1.3-36.4,2.5-54.6,3.7c-18.2,1.1-36.4,2.2-54.7,3.2c-10.3,0.5-20.5,1.1-30.8,1.6C230.5,119.2,230.5,122.2,232.5,122.1
						L232.5,122.1z"/>
				</g>
			</g>
			<g>
				<path class="st6" d="M373.7,111.8c-0.7,11-1.5,22-2.2,33.1"/>
				<g>
					<path d="M372.2,111.8c-0.7,11-1.5,22-2.2,33.1c-0.1,1.9,2.9,1.9,3,0c0.7-11,1.5-22,2.2-33.1
						C375.3,109.8,372.3,109.9,372.2,111.8L372.2,111.8z"/>
				</g>
			</g>
		</g>
		<g>
			<g>
				<path class="st9" d="M363.2,96.9c-4.4-1.2-9.1-2.3-13.4-0.9c-4.5,1.4-8.3,5.5-13,5c-3.3-0.3-6.1-3.1-6.5-6.4
					c-0.4-3.2,1.8-6.6,4.9-7.6c0.8-0.3,1.6-0.4,2.3-0.9c2.7-2-0.4-6.4,0.7-9.6c1-2.9,4.9-3.3,8-2.8c0.9,0.2,1.9,0.3,2.7-0.1
					c0.8-0.4,1.2-1.3,1.7-2.1c1.8-2.6,5.9-3,8.5-1.3c2.7,1.7,3.9,5.1,3.8,8.3c-0.1,2-0.7,4.1-0.3,6.1s2.6,3.9,4.4,3"/>
			</g>
			<g>
				<path class="st10" d="M374.1,82.1c-4.7,4.3-8.2,10-9.8,16.1c-0.7,2.4-1,5-0.5,7.5c0.9,4.5,4.7,8.1,8.9,9.9
					c4.2,1.8,8.9,2.3,13.5,2.7c17.9,1.6,35.8,3.1,53.6,4.7c6,0.5,13.2,0.5,16.4-4.6c0.6-0.9,0.9-1.9,0.8-2.9
					c-0.2-1.4-1.4-2.4-2.6-3.3c-23.3-17.8-51.9-28.5-81.2-30.4"/>
			</g>
			<g>
				<g>
					<path d="M363.3,95.4c-4-1.1-8.2-2.1-12.4-1.4c-3.6,0.6-6.5,2.8-9.7,4.4c-3,1.4-6.5,1.5-8.6-1.4c-2-2.7-1-6.5,1.8-8.2
						c1.5-0.9,3.2-0.8,4.4-2.2c1-1.1,1.1-2.6,1-4c-0.3-2.4-1.9-6,1.1-7.3c1.3-0.5,2.8-0.5,4.2-0.4c1.8,0.2,3.6,0.6,5-0.8
						c1.1-1.1,1.4-2.5,2.9-3.1c1.3-0.6,3-0.5,4.3,0.1c1.7,0.8,2.8,2.4,3.3,4.1c0.6,2.1,0.3,4.1,0,6.3c-0.2,2.1-0.1,4.3,1.4,5.9
						c1.2,1.4,3.1,2.2,4.9,1.5c1.8-0.7,1-3.6-0.8-2.9c-2,0.8-2.7-2-2.6-3.4c0.1-2.2,0.7-4.3,0.3-6.5c-0.5-3.5-2.6-6.9-6.1-8.2
						c-3.2-1.1-6.9-0.2-8.9,2.6c-0.4,0.6-0.7,1.5-1.5,1.6c-0.9,0.1-2-0.3-2.8-0.3c-1.5-0.1-3.2,0-4.6,0.6c-1.5,0.6-2.7,1.6-3.4,3
						c-0.7,1.5-0.5,3.1-0.2,4.7c0.2,1.1,0.9,3.1,0.3,4.2c-0.4,0.7-1.4,0.8-2.2,1c-0.9,0.3-1.7,0.7-2.5,1.3c-2.8,2.1-4.3,5.9-3.2,9.3
						c1,3.4,4.1,5.9,7.7,6.3c4.3,0.4,7.9-2.5,11.5-4.3c4.7-2.3,9.7-1.1,14.5,0.2C364.3,98.8,365.1,95.9,363.3,95.4L363.3,95.4z"/>
				</g>
			</g>
			<g>
				<g>
					<path d="M373,81.1c-5.2,4.8-9.2,11.4-10.6,18.4c-0.8,3.7-0.5,7.4,1.4,10.7c1.7,2.8,4.3,5,7.2,6.4c3.4,1.7,7.1,2.4,10.9,2.8
						c4.2,0.5,8.5,0.8,12.7,1.2c8.8,0.8,17.6,1.5,26.3,2.3c4.3,0.4,8.6,0.8,12.9,1.1c3.7,0.3,7.4,0.8,11,0.7c3-0.1,6.1-0.5,8.8-2
						c2.5-1.4,5.1-4.2,4.8-7.3c-0.2-1.7-1.3-3-2.6-4c-1.4-1.1-2.9-2.2-4.3-3.2c-3.1-2.2-6.2-4.3-9.4-6.2c-6.4-3.9-13-7.2-19.9-10.1
						c-13.8-5.8-28.5-9.6-43.5-11.1c-1.8-0.2-3.7-0.3-5.5-0.5c-1.9-0.1-1.9,2.9,0,3c27.7,1.8,54.8,11.6,77.4,27.9
						c1.2,0.9,2.5,1.7,3.6,2.7c1.4,1.2,1.6,2.4,0.5,4c-1.5,2.1-4.1,3.1-6.6,3.5c-2.7,0.5-5.6,0.3-8.3,0.1c-4.1-0.4-8.3-0.7-12.4-1.1
						c-7.9-0.7-15.9-1.4-23.8-2.1c-4.1-0.4-8.1-0.7-12.2-1.1c-3.8-0.3-7.7-0.5-11.5-1.2c-6.7-1.1-14.9-4.8-14.9-12.7
						c0-3.8,1.5-7.8,3.2-11.2c1.8-3.4,4.1-6.4,6.9-9C376.5,81.9,374.4,79.8,373,81.1L373,81.1z"/>
				</g>
			</g>
			<g>
				<g>
					<path d="M334.5,96.7c1,0.2,2,0.3,3.1,0.5c0.2,0.1,0.4,0.1,0.6,0c0.2,0,0.4-0.1,0.6-0.2c0.3-0.2,0.6-0.5,0.7-0.9
						c0.1-0.4,0.1-0.8-0.2-1.2c-0.2-0.3-0.5-0.6-0.9-0.7c-1-0.2-2-0.3-3.1-0.5c-0.2-0.1-0.4-0.1-0.6,0c-0.2,0-0.4,0.1-0.6,0.2
						c-0.3,0.2-0.6,0.5-0.7,0.9c-0.1,0.4-0.1,0.8,0.2,1.2C333.8,96.3,334.1,96.6,334.5,96.7L334.5,96.7z"/>
				</g>
			</g>
			<g>
				<g>
					<path d="M343.9,94c0.6-0.4,1.2-0.8,1.8-1.3c0.2-0.1,0.3-0.2,0.4-0.4c0.1-0.1,0.2-0.3,0.3-0.5c0.1-0.2,0.1-0.4,0-0.6
						c0-0.2-0.1-0.4-0.2-0.6c-0.2-0.3-0.5-0.6-0.9-0.7c-0.1,0-0.3,0-0.4-0.1c-0.3,0-0.5,0.1-0.8,0.2c-0.6,0.4-1.2,0.8-1.8,1.3
						c-0.2,0.1-0.3,0.2-0.4,0.4c-0.1,0.1-0.2,0.3-0.3,0.5c-0.1,0.2-0.1,0.4,0,0.6c0,0.2,0.1,0.4,0.2,0.6c0.2,0.3,0.5,0.6,0.9,0.7
						c0.1,0,0.3,0,0.4,0.1C343.4,94.2,343.7,94.1,343.9,94L343.9,94z"/>
				</g>
			</g>
			<g>
				<g>
					<path d="M351.3,90.1c0.8,0.1,1.5,0.3,2.3,0.4c0.2,0.1,0.4,0.1,0.6,0c0.2,0,0.4-0.1,0.6-0.2c0.3-0.2,0.6-0.5,0.7-0.9
						c0.1-0.4,0.1-0.8-0.2-1.2c-0.2-0.3-0.5-0.6-0.9-0.7c-0.8-0.1-1.5-0.3-2.3-0.4c-0.2-0.1-0.4-0.1-0.6,0c-0.2,0-0.4,0.1-0.6,0.2
						c-0.3,0.2-0.6,0.5-0.7,0.9c-0.1,0.4-0.1,0.8,0.2,1.2C350.6,89.7,350.9,90,351.3,90.1L351.3,90.1z"/>
				</g>
			</g>
			<g>
				<g>
					<path d="M358.7,92.1c0.5,0.3,1,0.7,1.6,1c0.2,0.1,0.4,0.2,0.6,0.2c0.2,0,0.4,0,0.6,0c0.2,0,0.4-0.1,0.5-0.3
						c0.2-0.1,0.3-0.2,0.4-0.4c0.2-0.3,0.3-0.8,0.2-1.2c-0.1-0.1-0.1-0.2-0.2-0.4c-0.1-0.2-0.3-0.4-0.5-0.5c-0.5-0.3-1-0.7-1.6-1
						c-0.2-0.1-0.4-0.2-0.6-0.2c-0.2,0-0.4,0-0.6,0c-0.2,0-0.4,0.1-0.5,0.3c-0.2,0.1-0.3,0.2-0.4,0.4c-0.2,0.3-0.3,0.8-0.2,1.2
						c0.1,0.1,0.1,0.2,0.2,0.4C358.3,91.8,358.5,92,358.7,92.1L358.7,92.1z"/>
				</g>
			</g>
			<g>
				<g>
					<path d="M366.8,101.6c0.2,0.6,0.5,1.1,0.8,1.6c0.1,0.2,0.2,0.3,0.4,0.4c0.1,0.1,0.3,0.2,0.5,0.3c0.2,0.1,0.4,0.1,0.6,0
						c0.2,0,0.4-0.1,0.6-0.2c0.1-0.1,0.2-0.2,0.3-0.2c0.2-0.2,0.3-0.4,0.4-0.7c0-0.1,0-0.3,0.1-0.4c0-0.3-0.1-0.5-0.2-0.8
						c-0.2-0.3-0.4-0.6-0.5-1c0.1,0.1,0.1,0.2,0.2,0.4c0-0.1-0.1-0.2-0.1-0.3c0-0.2-0.1-0.4-0.3-0.5c-0.1-0.2-0.2-0.3-0.4-0.4
						c-0.2-0.1-0.4-0.2-0.6-0.2c-0.2,0-0.4,0-0.6,0c-0.1,0.1-0.2,0.1-0.4,0.2c-0.2,0.1-0.4,0.3-0.5,0.5c-0.1,0.1-0.1,0.2-0.2,0.4
						C366.8,101.1,366.8,101.3,366.8,101.6L366.8,101.6z"/>
				</g>
			</g>
			<g>
				<g>
					<path d="M371.9,106.5c0.9,0.6,1.9,1,2.9,1.2c0.4,0.1,0.8,0.1,1.2-0.2c0.3-0.2,0.6-0.5,0.7-0.9c0.1-0.4,0.1-0.8-0.2-1.2
						c-0.2-0.3-0.5-0.6-0.9-0.7c-0.5-0.1-1-0.3-1.5-0.5c0.1,0.1,0.2,0.1,0.4,0.2c-0.4-0.2-0.7-0.4-1.1-0.6c-0.3-0.2-0.8-0.3-1.2-0.2
						c-0.3,0.1-0.7,0.4-0.9,0.7c-0.2,0.3-0.3,0.8-0.2,1.2C371.3,106,371.6,106.3,371.9,106.5L371.9,106.5z"/>
				</g>
			</g>
			<g>
				<g>
					<path d="M379.9,109c0.8,0.2,1.5,0.3,2.3,0.3c0.2,0,0.4,0,0.6-0.1c0.2-0.1,0.3-0.2,0.5-0.3c0.1-0.1,0.2-0.3,0.3-0.5
						c0.1-0.2,0.1-0.4,0.1-0.6c0-0.4-0.1-0.8-0.4-1.1c-0.3-0.3-0.7-0.4-1.1-0.4c-0.3,0-0.7,0-1-0.1c0.1,0,0.3,0,0.4,0.1
						c-0.3,0-0.6-0.1-0.9-0.2c-0.4-0.1-0.8,0-1.2,0.2c-0.2,0.1-0.3,0.2-0.4,0.4c-0.1,0.1-0.2,0.3-0.3,0.5c-0.1,0.4-0.1,0.8,0.2,1.2
						C379.2,108.7,379.5,108.9,379.9,109L379.9,109z"/>
				</g>
			</g>
			<g>
				<g>
					<path d="M387.9,110.6c1.7,0.3,3.3,0.5,5,0.5c0.8,0,1.5-0.7,1.5-1.5c0-0.8-0.7-1.5-1.5-1.5c-1.1,0-2.1-0.1-3.2-0.2
						c0.1,0,0.3,0,0.4,0.1c-0.5-0.1-0.9-0.1-1.4-0.2c-0.4-0.1-0.8-0.1-1.2,0.2c-0.3,0.2-0.6,0.5-0.7,0.9
						C386.7,109.4,387.1,110.4,387.9,110.6L387.9,110.6z"/>
				</g>
			</g>
			<g>
				<g>
					<path d="M399.5,111.6c0.1,0,0.2,0,0.2,0c-0.1,0-0.3,0-0.4,0.1c1-0.1,1.9-0.1,2.9-0.1c0.4,0,0.8-0.2,1.1-0.4
						c0.3-0.3,0.5-0.7,0.4-1.1c0-0.4-0.1-0.8-0.4-1.1c-0.1-0.1-0.2-0.2-0.3-0.2c-0.2-0.1-0.5-0.2-0.8-0.2c-1.2-0.1-2.4,0-3.5,0.1
						c-0.3,0.1-0.7,0.4-0.9,0.7c-0.2,0.3-0.3,0.8-0.2,1.2c0.1,0.4,0.3,0.7,0.7,0.9c0.1,0.1,0.2,0.1,0.4,0.2
						C399,111.7,399.3,111.7,399.5,111.6L399.5,111.6z"/>
				</g>
			</g>
			<g>
				<g>
					<path d="M409.4,112.6c1.2,0.1,2.4,0.2,3.6,0.3c0.4,0,0.8-0.2,1.1-0.4c0.3-0.3,0.5-0.7,0.4-1.1c0-0.4-0.1-0.8-0.4-1.1
						c-0.3-0.3-0.6-0.4-1.1-0.4c-1.2-0.1-2.4-0.2-3.6-0.3c-0.4,0-0.8,0.2-1.1,0.4c-0.3,0.3-0.5,0.7-0.4,1.1c0,0.4,0.1,0.8,0.4,1.1
						C408.7,112.4,409,112.5,409.4,112.6L409.4,112.6z"/>
				</g>
			</g>
			<g>
				<g>
					<path d="M419.9,113.5c1,0.2,2,0.3,3.1,0.5c0.2,0.1,0.4,0.1,0.6,0c0.2,0,0.4-0.1,0.6-0.2c0.3-0.2,0.6-0.5,0.7-0.9
						c0.1-0.4,0.1-0.8-0.2-1.2c-0.2-0.3-0.5-0.6-0.9-0.7c-1-0.2-2-0.3-3.1-0.5c-0.2-0.1-0.4-0.1-0.6,0c-0.2,0-0.4,0.1-0.6,0.2
						c-0.3,0.2-0.6,0.5-0.7,0.9c-0.1,0.4-0.1,0.8,0.2,1.2C419.2,113.1,419.5,113.5,419.9,113.5L419.9,113.5z"/>
				</g>
			</g>
			<g>
				<g>
					<path d="M429.7,113.9c1,0.2,2,0.3,3.1,0.5c0.2,0.1,0.4,0.1,0.6,0c0.2,0,0.4-0.1,0.6-0.2c0.3-0.2,0.6-0.5,0.7-0.9
						c0.1-0.4,0.1-0.8-0.2-1.2c-0.2-0.3-0.5-0.6-0.9-0.7c-1-0.2-2-0.3-3.1-0.5c-0.2-0.1-0.4-0.1-0.6,0c-0.2,0-0.4,0.1-0.6,0.2
						c-0.3,0.2-0.6,0.5-0.7,0.9c-0.1,0.4-0.1,0.8,0.2,1.2C429,113.5,429.4,113.8,429.7,113.9L429.7,113.9z"/>
				</g>
			</g>
			<g>
				<g>
					<path d="M442.2,115.8c0.3-0.1,0.6-0.2,0.9-0.2c-0.1,0-0.3,0-0.4,0.1c0.4,0,0.8,0,1.1,0c-0.1,0-0.3,0-0.4-0.1
						c0.4,0.1,0.7,0.1,1.1,0.3c0.3,0.1,0.9,0,1.2-0.2c0.3-0.2,0.6-0.5,0.7-0.9c0.1-0.4,0.1-0.8-0.2-1.2c-0.1-0.1-0.2-0.2-0.2-0.3
						c-0.2-0.2-0.4-0.3-0.7-0.4c-0.6-0.3-1.3-0.4-2-0.4c-0.7,0-1.4,0.1-2,0.3c-0.4,0.1-0.7,0.3-0.9,0.7c-0.2,0.3-0.3,0.8-0.2,1.2
						c0.1,0.4,0.3,0.7,0.7,0.9C441.4,115.8,441.9,115.9,442.2,115.8L442.2,115.8z"/>
				</g>
			</g>
			<g>
				<g>
					<path d="M449.7,114.8c0.3,0.1,0.7,0.1,1,0.1c0.3,0,0.7,0,1-0.1c0.5-0.1,1.1-0.3,1.6-0.6c0.3-0.2,0.6-0.5,0.7-0.9
						c0.1-0.4,0.1-0.8-0.2-1.2c-0.2-0.3-0.5-0.6-0.9-0.7c-0.4-0.1-0.8,0-1.2,0.2c-0.1,0.1-0.2,0.1-0.3,0.2c0.1-0.1,0.2-0.1,0.4-0.2
						c-0.3,0.1-0.6,0.2-0.9,0.3c0.1,0,0.3,0,0.4-0.1c-0.3,0-0.7,0-1,0c0.1,0,0.3,0,0.4,0.1c-0.1,0-0.1,0-0.2,0
						c-0.2-0.1-0.4-0.1-0.6,0c-0.2,0-0.4,0.1-0.6,0.2c-0.3,0.2-0.6,0.5-0.7,0.9c-0.1,0.4-0.1,0.8,0.2,1.2
						C449,114.5,449.3,114.8,449.7,114.8L449.7,114.8z"/>
				</g>
			</g>
		</g>
	</g>
	<g>
		<g>
			<path d="M247,76.2c0-15.5-7.8-29.5-18.6-40.2c-13.3-13.2-30.6-21.9-48.3-27.5c-21.4-6.8-44.3-9.3-66.8-8.2
				c-21.5,1.1-43,5.5-62.7,14.4C34.9,21.7,19.7,31.9,9.8,46.3c-8.5,12.3-12,27.4-8.3,42c4,15.6,15.3,28.2,28.1,37.4
				c16.1,11.6,35.2,18.7,54.5,22.7c11.1,2.3,22.5,3.6,33.8,3.9c4.9,0.1,9.8,0,14.7-0.2c2.1-0.1,4.2-0.2,6.2-0.3c0.2,0,3,0,3-0.2
				c-0.1,0.5-0.5-0.4-0.4,0c0,0.1,0.4,0.3,0.5,0.4c0.4,0.3,0.7,0.5,1.1,0.8c0.9,0.6,1.7,1.1,2.6,1.6c1.8,1.1,3.8,2.1,5.7,3
				c4.4,2.1,8.9,3.8,13.4,5.3c9.4,3.2,19.1,5.7,28.9,7.5c4,0.7,7.9,1.3,11.9,1.7c1.5,0.1,2-2.1,0.8-2.8c-5.8-3.3-11.3-7.3-16.4-11.7
				c-2.6-2.3-5.2-4.7-7.4-7.4c-1.8-2.1-3.5-4.5-4.3-7.1c-0.3,0.6-0.7,1.2-1,1.8c14.8-4.4,29.2-10.9,41.6-20.1
				C229,117,238,107.3,243,95.5C245.6,89.3,246.9,82.8,247,76.2c0-1.9-3-1.9-3,0c0,11.5-4.6,22.4-11.7,31.4
				c-8.3,10.5-19.5,18.5-31.4,24.6c-7.8,4-16.1,7.2-24.5,9.7c-0.8,0.2-1.3,1.1-1,1.8c1.4,4.8,5.1,8.8,8.5,12.2
				c4.2,4.2,8.9,7.8,13.8,11.2c2.3,1.6,4.7,3.2,7.2,4.6c0.3-0.9,0.5-1.9,0.8-2.8c-8.8-0.8-17.5-2.7-26.1-4.9
				c-9.3-2.4-18.6-5.3-27.3-9.5c-1.9-0.9-3.7-1.9-5.5-2.9c-0.8-0.4-1.5-0.9-2.2-1.4c-0.8-0.5-1.7-1.5-2.7-1.6
				c-0.8-0.1-1.7,0.1-2.6,0.1c-1.9,0.1-3.8,0.2-5.7,0.3c-10.4,0.4-20.8,0.3-31.2-0.8c-20.3-2.2-40.6-7.5-58.6-17.2
				c-14.3-7.7-27.8-18.4-35.4-33C1.9,85.5,1.2,70.7,6.9,57.6c6.5-14.8,19.2-26,32.9-34c17.3-10.2,37-16,56.8-18.8
				c22.3-3.1,45.3-2.4,67.3,2.4c18.7,4.1,37.2,11.1,52.8,22.6c12.1,9,22.7,21.2,26.2,36.2c0.8,3.3,1.1,6.7,1.1,10.1
				C244,78.1,247,78.1,247,76.2z"/>
		</g>
	</g>
</g>
</svg>
